<svg width="40" height="25" viewBox="0 0 40 25" fill="none" xmlns="http://www.w3.org/2000/svg">
<path fill-rule="evenodd" clip-rule="evenodd" d="M38.8319 2.51092V21.8341C38.8319 23.1441 38.3952 23.7991 37.3035 23.7991H3.67904C2.58733 23.7991 2.04148 23.1441 1.93231 21.8341V2.62009C1.93231 1.31005 2.47816 0.655029 3.67904 0.655029L37.3035 0.7642C38.286 0.87337 38.941 1.31005 38.8319 2.51092Z" fill="#E4E4E4" stroke="#A9A6AA" stroke-width="0.924672"/>
<path d="M14.6024 6.95573C14.3846 6.69587 14.2493 6.38408 14.2118 6.05585C14.1743 5.72762 14.2361 5.39615 14.3903 5.09916C14.5444 4.80217 14.7847 4.55159 15.0837 4.37594C15.3827 4.2003 15.7285 4.10665 16.0816 4.10564C16.1578 4.1059 16.2339 4.11042 16.3095 4.11918C16.5553 4.14625 16.7929 4.21862 17.0086 4.3321C17.2243 4.44558 17.4138 4.59792 17.5661 4.7803L21.4505 9.40199C23.0397 9.37294 24.623 9.21227 26.1818 8.92189L27.4832 7.37678C27.9497 6.8217 28.1613 6.11613 28.0712 5.41528C27.9812 4.71443 27.597 4.07573 27.0031 3.63966C26.4092 3.20359 25.6543 3.00589 24.9045 3.09005C24.1547 3.17421 23.4713 3.53333 23.0047 4.08841L20.7523 6.76614L18.5039 4.09087C17.9987 3.49431 17.261 3.10921 16.4526 3.01989C15.6442 2.93058 14.8309 3.14432 14.1907 3.61434C13.5506 4.08434 13.1357 4.7723 13.0371 5.52756C12.9385 6.28282 13.1641 7.04383 13.6646 7.64394L14.7025 8.8751C15.2544 8.99084 15.8445 9.0881 16.4636 9.16563L14.6024 6.95573Z" fill="#89F1AB"/>
<path d="M19.9936 15.6069L17.5661 18.4952C17.2538 18.853 16.8038 19.0819 16.3129 19.1327C15.8219 19.1835 15.3292 19.0522 14.9408 18.7669C14.5524 18.4816 14.2994 18.0653 14.2361 17.6074C14.1728 17.1495 14.3043 16.6867 14.6024 16.3186L16.1382 14.4903C15.6746 14.4378 15.2206 14.3767 14.7762 14.3069L13.6645 15.6279C13.4131 15.9247 13.2269 16.2651 13.1165 16.6293C13.0061 16.9936 12.9738 17.3746 13.0213 17.7506C13.0689 18.1266 13.1954 18.49 13.3936 18.8202C13.5918 19.1504 13.8578 19.4407 14.1763 19.6746C14.4948 19.9085 14.8596 20.0813 15.2498 20.183C15.6399 20.2848 16.0477 20.3136 16.4498 20.2677C16.8518 20.2219 17.2403 20.1023 17.5928 19.9158C17.9453 19.7292 18.2549 19.4796 18.5039 19.1809L20.7523 16.5082L23.0047 19.1871C23.4747 19.7326 24.1558 20.083 24.9003 20.1622C25.6448 20.2415 26.3927 20.0434 26.9819 19.6107C27.5711 19.178 27.9542 18.5458 28.048 17.8509C28.1418 17.1561 27.9389 16.4546 27.4832 15.8987L26.166 14.334C24.368 14.5971 22.5512 14.7316 20.7313 14.7365L19.9936 15.6069Z" fill="#89F1AB"/>
<path d="M16.4635 9.16933L17.8479 10.8166C18.045 11.0504 18.1522 11.3395 18.1522 11.6372C18.1522 11.9349 18.045 12.2239 17.8479 12.4577L17.6609 12.6806L16.1382 14.4903C17.6017 14.6537 19.0742 14.7359 20.5481 14.7365H20.7312L22.416 12.7261C22.677 12.4158 22.819 12.0325 22.819 11.6378C22.819 11.243 22.677 10.8597 22.416 10.5495L21.4517 9.40206C19.7851 9.44744 18.1171 9.36969 16.4635 9.16933Z" fill="#DA38EB"/>
<path d="M30.8829 10.4485C30.6691 9.77268 30.1772 9.20382 29.5151 8.8668C28.8529 8.52975 28.0747 8.45216 27.3514 8.651C26.9866 8.75077 26.5967 8.84182 26.187 8.92187L23.9004 11.6378L26.166 14.3339C27.1092 14.1959 28.0424 14.0026 28.9598 13.7553C29.3184 13.6564 29.6527 13.4922 29.9434 13.2725C30.2342 13.0527 30.4758 12.7814 30.6544 12.4744C30.833 12.1673 30.945 11.8303 30.9843 11.4827C31.0234 11.1351 30.989 10.7837 30.8829 10.4485Z" fill="#DA38EB"/>
<path d="M16.9101 11.5048L14.7065 8.8788C14.3745 8.80859 14.0558 8.7335 13.7554 8.65102C13.3927 8.53702 13.0092 8.49251 12.6277 8.52015C12.2462 8.54779 11.8745 8.64703 11.5349 8.81192C11.1954 8.9768 10.8948 9.20392 10.6513 9.47982C10.4077 9.75564 10.2262 10.0746 10.1174 10.4175C10.0087 10.7604 9.97498 11.1203 10.0184 11.4757C10.0617 11.831 10.1813 12.1745 10.3699 12.4858C10.5585 12.797 10.8122 13.0694 11.116 13.2869C11.4198 13.5044 11.7674 13.6624 12.1379 13.7517C13.0034 13.9856 13.8831 14.1706 14.7723 14.3057L16.9101 11.7695C16.9421 11.7318 16.9595 11.6852 16.9595 11.6372C16.9595 11.5891 16.9421 11.5424 16.9101 11.5048Z" fill="#DA38EB"/>
<path d="M17.6608 12.6805L17.8478 12.4577C18.0449 12.2238 18.1521 11.9348 18.1521 11.6371C18.1521 11.3394 18.0449 11.0504 17.8478 10.8166L16.4635 9.16931C15.8444 9.09171 15.2543 8.99445 14.7024 8.87871L16.91 11.5048C16.942 11.5424 16.9593 11.589 16.9593 11.6371C16.9593 11.6852 16.942 11.7318 16.91 11.7694L14.7762 14.3093C15.2196 14.3782 15.6736 14.4394 16.1381 14.4927L17.6608 12.6805Z" fill="#24359C"/>
<path d="M26.1819 8.92186C24.6235 9.21217 23.0407 9.37284 21.4519 9.40196L22.4161 10.5506C22.6778 10.8607 22.8202 11.244 22.8202 11.639C22.8202 12.0339 22.6778 12.4173 22.4161 12.7273L20.7314 14.7365C22.5513 14.7316 24.3681 14.597 26.1661 14.3339L23.9005 11.6377L26.1819 8.92186Z" fill="#24359C"/>
</svg>
