<svg width="157" height="35" fill="none" xmlns="http://www.w3.org/2000/svg"><g clip-path="url(#a)"><path d="M28.079 1.175c2.025 0 7.114.079 8.142.123 1.13.05 2.551.26 3.49.949.94.688.89 2.085.797 3.097-.105.92-.281 1.831-.526 2.724-.398 1.603-1.042 3.358-2.301 4.494-1.357 1.224-3.412 1.279-5.138 1.279l-3.373.029-1.146 4.253h-4.243l1.446-5.699 2.316-9.13.536-2.119zm4.828 8.698c.855 0 1.78-.03 2.237-.85.35-.696.57-1.45.654-2.223.118-.802.25-1.554-.718-1.76-.467-.099-3.638-.07-3.638-.07l-.227.886-.383 1.519-.63 2.458 2.705.04zm9.573-8.698h7.783a12.39 12.39 0 0 1 1.809.128c1.037.143 2.424.413 2.95 1.43.526 1.018.27 2.375.044 3.442a11.48 11.48 0 0 1-1.43 3.855 3.078 3.078 0 0 1-1.426 1.092c-.246.103-1.121.413-1.593.595a2.491 2.491 0 0 1 1.898.914 3.01 3.01 0 0 1 .226 2.178c-.138.684-.335 1.362-.492 2.036l-.28 1.1-.054.193h-4.386l.408-1.677c.177-.703.492-1.622.108-2.306-.383-.683-1.475-.432-2.02-.491l-1.633-.035c-.723.04-.713-.147-.84.344l-.492 1.967-.556 2.203h-4.322l1.45-5.719 2.312-9.13.535-2.119zm6.391 8.56a1.42 1.42 0 0 0 .856-.723c.372-.657.614-1.38.713-2.129.12-.424.12-.873 0-1.298-.197-.373-.758-.427-1.126-.452-.369-.025-.694 0-1.038 0h-2.473l-.172.654-.369 1.475-.614 2.512c1.126 0 4.145-.014 4.243-.039h-.02zm5.895-.113c.278-1.3.676-2.57 1.19-3.796a8.55 8.55 0 0 1 1.475-2.458 5.9 5.9 0 0 1 2.616-1.559c1.72-.53 3.522-.748 5.32-.644 1.716.074 4.336.344 4.995 2.247.659 1.903 0 4.15-.521 5.954a25.945 25.945 0 0 1-2.262 5.822c-1.047 1.834-2.851 2.58-4.916 2.812-1.708.177-3.43.177-5.138 0-.984-.098-2.272-.492-2.95-1.22-.679-.727-.797-1.966-.708-2.984.192-1.412.493-2.808.9-4.174zm4.165 1.037a7.576 7.576 0 0 0-.344 2.67c.103.91 1.224.983 1.966 1.013.911.08 1.828-.059 2.675-.403.787-.408 1.195-1.342 1.475-2.134.28-.792.438-1.559.674-2.33.284-.86.47-1.75.555-2.65a1.967 1.967 0 0 0-.142-1.22 1.643 1.643 0 0 0-1.18-.556 8.127 8.127 0 0 0-2.759.133c-.44.073-.85.275-1.175.58a4.21 4.21 0 0 0-.659 1.289 17.39 17.39 0 0 0-.536 1.548 4.72 4.72 0 0 0-.285 1.102v-.04l-.265.998z" fill="#FE0000"/><path d="M97.95 9.622a23.045 23.045 0 0 1 1.165-3.796 8.47 8.47 0 0 1 1.475-2.458 6.059 6.059 0 0 1 2.709-1.593 14.968 14.968 0 0 1 5.266-.605c1.686.079 4.233.369 4.887 2.242.268.97.311 1.99.128 2.98a21.484 21.484 0 0 1-.689 3.141 25.208 25.208 0 0 1-2.291 5.792c-1.037 1.775-2.905 2.459-4.867 2.675a23.744 23.744 0 0 1-5.118 0c-.984-.113-2.252-.492-2.901-1.268-.65-.777-.748-1.997-.65-3 .2-1.389.495-2.762.886-4.11zm4.149 1.033a7.593 7.593 0 0 0-.344 2.67c.103.914 1.224.983 1.967 1.012a5.651 5.651 0 0 0 2.665-.403c.781-.408 1.19-1.342 1.475-2.129.285-.787.432-1.559.668-2.335.276-.86.452-1.75.526-2.65a1.958 1.958 0 0 0-.167-1.215 1.659 1.659 0 0 0-1.175-.56 8.076 8.076 0 0 0-2.748.137 2.22 2.22 0 0 0-1.17.58 4.148 4.148 0 0 0-.64 1.289 15.79 15.79 0 0 0-.531 1.548 4.52 4.52 0 0 0-.29 1.097v-.04l-.236.998zm-4.99 1.052a21.63 21.63 0 0 1-.836 2.748 5.82 5.82 0 0 1-.924 1.72 5.664 5.664 0 0 1-1.638 1.21c-1.435.792-3.097.753-4.695.753-.83 0-1.657-.05-2.488-.05-1.067 0-2.36-.172-3.127-.983-.85-.934-.683-2.532-.57-3.692.1-.996.277-1.982.53-2.95a27.6 27.6 0 0 1 1.476-4.878 7.45 7.45 0 0 1 2.203-2.95 7.813 7.813 0 0 1 3.441-1.268 20.65 20.65 0 0 1 4.74-.157c.983.083 2.266.236 2.95 1.071.683.836.664 1.76.56 2.705-.08.63-.2 1.254-.363 1.868-.025.098-.07.383-.128.428-.06.044-.394 0-.492 0h-3.835c.133-.566.344-1.475-.197-1.879a2.803 2.803 0 0 0-1.573-.349 6.087 6.087 0 0 0-1.834.158c-1.475.388-1.74 2.232-2.139 3.47-.211.67-.349 1.402-.52 2.076-.207.816-.807 2.4-.084 3.117.491.492 1.475.492 2.158.492.683 0 1.573-.109 2.124-.6.48-.445.802-1.033.92-1.677l.073-.398h4.248l.02.015zm30.769 6.43h-7.316L119.327 5.07h-.191l-3.118 13.069h-4.223l4.297-16.992h7.267l1.259 12.916h.172l3.112-12.916h4.263l-4.287 16.992z" fill="#008E38"/><path d="M67.653 11.053 65.435 6.5v-.074c0-.108.413-2.675 2.493-3.442 1.765-.634 4.342 0 5.728.379l.556.138c.083 0 .187.044.305.073 1.617.404 5.9 1.475 7.05-2.797L81.77 0l2.09 4.18v.073A4.96 4.96 0 0 1 81.94 7.39c-1.121.777-2.596.983-4.376.57l-.398-.088c-5.025-1.126-6.22-1.392-7.749-.354a4.072 4.072 0 0 0-1.662 2.684l-.103.85zm-1.711-4.627 1.475 3.024a4.46 4.46 0 0 1 1.716-2.34c1.706-1.16 3.068-.851 8.127.285l.403.088c1.642.369 2.985.202 3.988-.491a4.455 4.455 0 0 0 1.696-2.73l-1.436-2.87c-1.45 4.198-5.978 3.063-7.502 2.684l-.296-.074-.57-.137c-1.332-.345-3.815-.984-5.438-.394-1.622.59-2.084 2.552-2.163 2.955zM71.527 19.052l-2.178-4.194v-.083c0-.113.556-2.788 2.611-3.535 1.755-.635 4.312.024 5.684.378l.555.138.3.074c1.603.403 5.856 1.475 6.992-2.798l.187-.787.32.605 1.77 3.575v.073a4.917 4.917 0 0 1-1.913 3.147c-1.112.772-2.567.959-4.327.56l-1.249-.28c-4.199-.959-5.462-1.249-6.883-.275a4.425 4.425 0 0 0-1.74 2.675l-.129.727zm-1.662-4.268 1.476 2.823a4.76 4.76 0 0 1 1.77-2.365c1.593-1.092 2.91-.792 7.266.201l1.25.286c1.617.363 2.95.201 3.933-.492a4.449 4.449 0 0 0 1.696-2.734l-1.421-2.866c-1.44 4.194-5.934 3.058-7.444 2.68l-.295-.074-.565-.138c-1.323-.344-3.781-.983-5.409-.393-1.627.59-2.153 2.64-2.257 3.072z" fill="#fff"/><path d="M65.686 6.46s.369-2.517 2.336-3.225c1.966-.708 5.054.276 6.146.521 1.18.27 6.352 1.967 7.65-2.896 0-.049 0-.093.034-.142l1.75 3.5s-.643 4.7-5.993 3.506c-5.35-1.195-6.677-1.539-8.358-.413a4.322 4.322 0 0 0-1.775 2.867l-1.79-3.717zM69.605 14.819s.492-2.64 2.458-3.348c1.967-.708 5.015.275 6.097.52 1.17.271 6.303 1.968 7.587-2.895 0-.05 0-.094.034-.143l1.74 3.501s-.639 4.7-5.944 3.506c-5.305-1.195-6.677-1.652-8.324-.527a4.612 4.612 0 0 0-1.844 2.847l-1.804-3.461z" fill="#FE0000"/><path d="M69.192 10.487s1.268-4.779 5.448-5.526c0 0 7.045 5.236 9.341 3.515a7.646 7.646 0 0 1-5.123 5.841s-5.915-4.823-9.666-3.83z" fill="#9DED11"/><path d="M78.416 7.808c.05.042.095.088.137.137.03.045.064.099.094.153.076 0 .152.01.226.03.103.068-.143.083-.172.078l.074.147c.088 0 .216.06.196.143-.02.084-.044 0-.069 0l.03.059h.034c.064-.093.148-.133.33-.128h.064s-.06.074-.07.089c-.009.014.03.132.065.221.034.088.172-.04.221 0a.492.492 0 0 0-.201.27.836.836 0 0 1 .3-.078c.01.053.01.108 0 .162a.379.379 0 0 1 0 .074.345.345 0 0 1-.08.388c.121-.006.242.005.36.035l.113.03-.074.033-.079.05a.29.29 0 0 1-.088.137s-.035 0-.044.035h.083c.13.015.26.038.389.069 0 0-.3.088-.266.123.093.012.185.031.275.059l.099.034a.487.487 0 0 0-.103.034c-.076.034-.15.072-.222.113a.678.678 0 0 1-.31.04.927.927 0 0 1 .286.132c.088.06.088.06.093.07-.044-.104-.054-.148 0-.202.054-.054.064 0 .06.064-.006.064.171.206.22.31a.266.266 0 0 1-.044.206.162.162 0 0 0 .177-.094v-.063c-.024-.114-.04-.153.035-.217h.073c-.049.079.079.241.099.35a.345.345 0 0 1-.114.176c-.15.039-.306.054-.462.045a.054.054 0 0 1-.039 0l-.177-.35h.123a.138.138 0 0 0 .128-.108 1.137 1.137 0 0 0-.074-.132c-.118-.025-.221-.07-.3-.03.087.02.167.065.231.128 0 0 .098.093.06.088a.73.73 0 0 0-.256-.098l-.345-.683v-.03h-.039l-.6-1.175v-.04l-.492-.983.045.099zm1.814 3.564a.733.733 0 0 1 .393.246.098.098 0 0 1 0 .103.595.595 0 0 0 .079.241.103.103 0 0 1-.108.108l-.364-.698zm-1.991-3.751c.053.067.113.13.177.187l.491.983h-.03l.065.054a.095.095 0 0 0 0-.034l.614 1.185a.074.074 0 0 0 0 .044l.344.683a.23.23 0 0 0-.083 0l-.398-.772v-.024L78.254 7.64l-.015-.02zm1.917 3.599-.069.024-.191-.368h.083l.177.344zm-.024.118.098.034.359.698a.25.25 0 0 1-.084 0l-.373-.732zM78.165 7.65a.073.073 0 0 1 .034-.054l1.166 2.287.398.772h-.074l-.378-.738s.024.03.034.05l-.03-.06c0-.024 0-.044-.034-.044l-.084-.162h.025l-.044-.035-.708-1.396-.03-.03-.324-.629.049.04zm1.913 3.595a.132.132 0 0 0-.06.034l-.201-.398h.069l.192.368v-.005zm-.03.063.088.03.374.728h-.024a.277.277 0 0 1-.06 0l-.378-.758zm-.246-.491-.024-.05.064.035-.04.015zM78.121 7.68a.483.483 0 0 1 .039.069v-.104l.325.63a.029.029 0 0 0-.03 0c.01.018.026.033.044.044l.708 1.396c-.034-.024-.083-.044-.113-.068l-.973-1.967zm1.927 3.599h-.025.035l.378.737-.098-.03-.575-1.125h.079l.206.418zm-.777-1.524.084.162h-.025l.05.059.378.737h-.079l-.491-.934s.03-.024.069-.024h.014zm.521 1.018.025.049a.45.45 0 0 0-.079 0l-.039-.084c.026.009.05.02.074.035h.02zm-2.03-3.442c.083.069.172.123.255.201.043.047.082.096.118.148l.984 1.967h-.035a2.532 2.532 0 0 1-.23-.114l-.178-.349.123.04-.187-.167-.304-.595.167.073h.059a1.85 1.85 0 0 1-.241-.108l-.276-.54.128.034a.532.532 0 0 0-.152-.094l-.246-.491.015-.005zm2.581 4.68a1.737 1.737 0 0 1-.246-.103l-.491-.983a1.08 1.08 0 0 1 .172-.04l.565 1.127zm-1.14-2.237-.09-.054a1.013 1.013 0 0 0-.166-.078l.191.373c.086.058.16.13.222.212v.098a.314.314 0 0 0-.103 0l.319.625.094-.05h.063l-.039-.083-.069-.025h.05l-.492-.934.02-.084zm-2.036-1.888.324.04c.128.03.256.049.389.073l-.054-.068a.492.492 0 0 0-.231 0c.024-.089.073-.177.265-.094a.231.231 0 0 1-.059-.093c-.108 0-.24-.064-.221-.138a.33.33 0 0 0-.275.06.388.388 0 0 1-.197.102l-.172-.334a.265.265 0 0 1 .162-.059h.084a.492.492 0 0 0-.045-.074.492.492 0 0 1-.28 0l-.138-.275.148.044c.03.016.061.03.093.04a.645.645 0 0 1-.078-.232l.113.094c.083.064.172.079.27.162v.025a.167.167 0 0 1 .162 0h.084c-.098.044-.113.088 0 .211.02.026.043.049.069.069.04.041.084.077.133.108l-.064-.093a.286.286 0 0 1 0-.236.61.61 0 0 0 .083.078l.246.492h-.103l.044.025h.089l.275.54-.143-.088h-.078l-.236-.059c.096.023.189.06.275.108-.05.064-.349-.04-.438-.069.06.026.117.056.172.089-.039 0-.162 0-.216-.04l-.113-.034.153.079s-.045 0-.025.024l.644.084s-.108-.128-.05-.098l.075.044.305.595-.06-.054-.654.373-.491-.983a.428.428 0 0 1 .093 0l-.113-.044-.236-.467.02.073zm2.95 4.022a1.27 1.27 0 0 1-.398-.305.817.817 0 0 0-.251 0l-.35.064-.215-.422c.138-.035.28-.057.422-.064h.148a.66.66 0 0 0 0-.104c-.143 0-.236.06-.379.06l-.187-.03h-.069l-.171-.34c.067.046.119.111.147.187.034 0 0-.118 0-.152l-.192-.098-.55-1.077c.624.688.624.698.653.723 0-.05-.029-.114-.029-.163.088.079.201.138.31.227v-.03a2.227 2.227 0 0 1-.276-.236.325.325 0 0 1-.073 0s0-.024.039-.03c-.064-.108-.069-.201-.133-.3 0 0-.04-.034-.03-.044a2.1 2.1 0 0 1 .576.384l.152.093.32.625a.491.491 0 0 1-.192.078.894.894 0 0 1-.118 0l.187.089s.054-.074.069-.098l.069-.045.491.984.03.024zm-.782.192h.05c.029.025.191.123.186.138l-.172-.035-.064-.123v.02zm-.62-2.95a1.259 1.259 0 0 0-.196-.059s.054.054.069.074a.953.953 0 0 0 .27.31l.035.024-.177-.349zm.251.492h-.044c-.093 0-.201-.03-.3-.05-.098-.02.148.173.187.207.1.08.206.149.32.207l.03.024-.193-.374v-.014zm.345 2.63a2.792 2.792 0 0 0-.266-.074l-.157-.083-.05-.099c.17.074.334.16.492.256h-.02zm-2.616-4.454h.044l.447.054.236.467a.777.777 0 0 1-.112-.054s.049.054.058.078h.074l.492.984a.597.597 0 0 0-.069.049l.221.246.551 1.076-.162-.083s.133.098.192.138l.171.339a.49.49 0 0 0-.162.073c0 .084-.103.109-.196.123l-.394-.762c.109.06.227.138.33.207 0-.04 0-.108.03-.128l-.448-.231-1.313-2.576h.01zm.413-.104h-.044a.054.054 0 0 1 0-.024c.039-.079 0-.084-.104-.167-.103-.084-.044-.118 0-.143l.172.334h-.024zm-.226-.437a3.27 3.27 0 0 1-.59-.251l-.025-.05c.163-.03.33-.03.492 0l.123.3zm2.183 4.405-.217-.423a2.86 2.86 0 0 1-.418.084l.197.383h.138c.1-.009.2-.023.3-.044zm-.433.054.133.266.132.064a.597.597 0 0 0 .173.044s.22.113.26.128l-.064-.123-.103-.04a.235.235 0 0 0 .084 0l-.492-.201c.069.017.136.04.202.069 0 0-.045-.03-.231-.133l-.104-.04.01-.034zm.202.398-.492-.26c.099.064.193.137.28.216l-.197-.098a4.049 4.049 0 0 0-.545-.364.23.23 0 0 1-.103 0l-.261-.492.093.035c0-.035-.03-.07-.039-.099a.157.157 0 0 1 .03-.157c0-.074-.054-.147-.113-.24-.06-.094.098-.202.23-.222a.276.276 0 0 1 .158 0c.058.026.113.055.167.088l.393.762h-.32a.295.295 0 0 0 .114 0c.07.008.141.008.211 0l.197.384.133.266a4.37 4.37 0 0 0-.408-.207c.206.118.216.108.236.147l.191.094.05.098-.005.05zm-3.865-5.988c.22.067.415.195.566.369.016.05.037.097.063.142l.109.118c.034.054.059.103.093.153.034.049.256.265.093.285h-.054c.197.226.413.457.625.683a.34.34 0 0 1 .192-.059l1.312 2.577-.983-.492-.074.04-1.937-3.796-.005-.02zm1.283.9-.024-.05h-.035l.05.03.01.02zm1.52 4.602a.645.645 0 0 1-.182-.07c-.143.055-.28.104-.413.163l-.06-.113a.634.634 0 0 1 .138-.04l.227-.098c-.07.004-.14.014-.207.03a.983.983 0 0 1-.211 0l-.177-.35.113.025h.073a.39.39 0 0 0-.108-.034h-.093l-.438-.86a.65.65 0 0 1 .222.029c.135.072.267.153.393.24a.453.453 0 0 1 .113.276c.053.107.125.203.211.285h.148l.26.492-.01.025zm-2.64-3.88.112.094c0-.295-.049-.59-.078-.89l-.226-.098c-.143-.07-.261-.138-.197-.217v-.049c0-.079-.034-.172 0-.221l-.06-.025c-.196-.113-.147-.275 0-.27l.222.054 1.937 3.796c-.177.098-.344.186-.491.285l-1.254-2.459h.034zm2.025 3.973a.826.826 0 0 0-.167.06.322.322 0 0 1-.241.073l-.079-.153a.303.303 0 0 1 .094-.034c.112-.011.224-.031.334-.059l.059.113zm-.113-.216a.169.169 0 0 0-.05 0l-.166-.035a3.202 3.202 0 0 1-.33-.108l-.206-.403c.118.044.23.089.354.123l-.138-.06a.871.871 0 0 1-.256-.156l-.196-.384c.039.03.078.069.123.108a.379.379 0 0 1 .245-.31l.438.86-.182-.034c.063.028.13.05.197.064l.177.35-.01-.015zM74.148 6.77c.054 0 .059-.03.079 0a.25.25 0 0 1 .137 0v.035a.49.49 0 0 1 .138 0v.034c0 .005 0 .05-.044.054-.044.005-.04.054-.113.044-.074-.01-.04.04-.084.04l-.113-.221v.014zm.202.389h.064c.034.024-.03.03-.04.044l-.024-.044zm0 .054h.054c.02 0 0 0-.03.03v-.05l-.024.02zm.186.369.792 1.543h.034v.07l.62 1.214.374-.207-1.254-2.458a1.53 1.53 0 0 0-.536-.162h-.03zm2.193 4.292h-.123l-.044-.089a.356.356 0 0 1 .103-.059l.079.153-.015-.005zm-.25-.492-.163-.054-.201-.413.167.064.206.403h-.01zM74.02 6.8h.04a.103.103 0 0 1 .083-.04l.113.222h-.04a.09.09 0 0 1-.073.03l-.113-.222-.01.01zm.157.31a.721.721 0 0 1 .104 0v.034h.069v.103a.108.108 0 0 1-.054 0 .064.064 0 0 1-.06.025l-.059-.162zm.232.452a.492.492 0 0 1 .142 0l.792 1.544-.182-.094-.492-.983a.044.044 0 0 1 0-.03h-.044l-.241-.491.025.054zm.983 1.657.62 1.214.053.05.197.383h-.03c-.043 0-.088-.03-.132-.044l-.123-.241h.054l-.079-.07-.491-.982c0-.084 0-.192-.035-.33l-.034.02zm1.214 2.65a1.09 1.09 0 0 1-.177 0s.07 0 .089-.034l.054-.025.034.059zm-.275-.54a3.73 3.73 0 0 0-.374-.129l-.206-.408.295.098.074.025.211.413zm-2.64-4.583c.04-.04.098-.074.098-.133 0-.06-.04-.108-.034-.143.069.074.172.246.137.315l-.044.04.138-.05.113.221c-.035 0-.035.035-.089.035a.088.088 0 0 0-.03.044h.129V7.1l.098.187h-.03a.128.128 0 0 1-.088.024.088.088 0 0 1-.064.03s-.054 0-.079.034l-.324-.644.069.015zm.334.663v.035l.084-.035a.147.147 0 0 0-.07 0h-.014zm.069.138a2.32 2.32 0 0 1 .315 0l.24.492h-.039.054l.492.983-.418-.216-.403-.797c0-.03.069-.03.088-.044a.718.718 0 0 1-.108 0l-.221-.418zm1.327 2.001.492.984-.044-.03h-.04c.034.026.07.047.109.064l.177.25-.37-.122-.215-.423v-.148a1.114 1.114 0 0 0-.123-.152.969.969 0 0 1-.07-.108l-.166-.325v-.024l.196.255.133.153c0-.129-.011-.257-.034-.384l-.045.01zm.03.654-.074-.152.074.152zm-.374-.732.113.073.163.148s-.123-.172-.148-.202A1.93 1.93 0 0 0 75 9.347l.064.123h.014zm.88 1.73-.113-.04-.206-.397.113.03.206.407zm-.393-.59-.556-1.091s.03.024.04.049a.8.8 0 0 0 .083.098s.03.089.074.108c.03.07.07.134.118.192l.03.069.088.172c0 .03-.025.025.034.084l.217.422a.484.484 0 0 0-.089 0l-.034-.073-.005-.03zm-1.996-3.904.069-.024c.034 0 0 .04 0 .064h.034l.325.644v.034s-.06 0-.08.035l-.348-.753zm.433.841h.093l.226.443h-.088l-.06-.113-.171-.34v.01zm.339.492.403.796-.103-.083-.379-.743.079.03zm.673 1.327.064.123-.093-.054a.064.064 0 0 0-.04 0l-.059-.118h.064l.064.044v.005zm.104.202s0 .044.034.083c.038.084.082.165.133.241l-.167-.324zm-.379-.556v-.03h.064s-.054.03-.06.035l-.004-.005zm1.106 2.169-.103-.03-.207-.398.084.024.207.399.02.005zm-.373-.556a.305.305 0 0 1 .093 0l.034.074h-.093l-.034-.074zm.083 0-.118-.064-.521-1.023c0-.03-.034-.088-.03-.098.005-.01.06.074.109.108l.555 1.092.005-.015zm-2.065-3.88h.044l.399.773-.07.044-.206-.595a.396.396 0 0 0 0-.069c-.044 0 0 .044-.054.054l-.108-.211-.005.005zm.418.817h.094l.172.34h-.084l-.182-.34zm.266.349-.074.03.393.766.123.07-.378-.743-.064-.123zm.545 1.077v.03l-.069.039-.029-.06a.217.217 0 0 1 .113-.034l-.015.025zm.167.32.06.117a.196.196 0 0 0-.099 0l-.064-.118a.221.221 0 0 1 .118-.024l-.015.024zm.856 1.848h-.093l-.207-.403h.093l.207.403zm-.354-.526a.486.486 0 0 1 .084 0l.034.064h-.088l-.03-.064zm.05-.069-.109-.05-.492-.923a.203.203 0 0 0-.054-.109c.03 0 .06.064.099.08l.52 1.022.035-.02zM73.444 6.82v-.073l.108.211v.03c0 .03-.04 0-.04.034l-.068-.202zm.452.728-.24-.58-.045.05.098.186h.05l-.045.03.35.683a.074.074 0 0 0 .049 0h.03l-.183-.364h-.034l-.03-.005zm.202.393.393.767-.108-.049-.334-.649h.098a.207.207 0 0 1-.069-.03l.02-.039zm.54 1.058.03.059-.059.044-.049-.099.079-.004zm.143.29.064.118h-.074l-.064-.128a.231.231 0 0 1 .089-.015l-.015.025zm.866 1.853a.231.231 0 0 1-.025.167l-.374-.732h.03l.059.049h.064l.03.054h-.07a.182.182 0 0 0 .094.069l.192.393zm-.32-.63-.069-.034c-.034-.034-.069-.029-.103-.044l-.516-1.091.064-.04h.039l.064.128a.491.491 0 0 0 .069.26c.02.024.043.044.069.06h.029a.461.461 0 0 1-.054-.094c0-.03-.084-.098-.074-.108l.044.044.492.925-.054-.005zm-1.967-3.593.025-.06s0-.043.03-.043l.103.201.098.187a.118.118 0 0 1-.04.03h.025l.35.683h-.129l-.058-.108h.044-.05l-.31-.605a.089.089 0 0 0 0-.098c-.043 0 0 0 0 .03v.053l-.142-.28.054.01zm.669 1.091.334.65-.187-.099-.29-.57.143.02zm.492.984.049.098a.29.29 0 0 0-.064.143l-.089-.173a.153.153 0 0 1 .06-.049h.044v-.02zm1.101 2.315a.42.42 0 0 0-.034.05l-.423-.831.083.049.374.732zm-.443-.875a.208.208 0 0 1-.059 0l-.339-.668.05.054-.074-.109-.054-.142a.064.064 0 0 0 0 .044l-.099-.201.03-.035.55 1.082-.005-.025zm-1.819-3.441v-.05l.143.28-.03.03-.127-.25.014-.01zm.172.226s0 .024-.039.039l.29.57h.06l-.31-.604v-.005zm.315.614.06.108h-.065l-.049-.093.054-.015zm.084.163.29.57-.079-.044-.275-.531.064.005zm.55 1.081.089.172a.653.653 0 0 0 0 .089l-.108-.217.034-.044h-.015zm-.098-.074s-.005-.034-.01-.029l.01.03zm-.05-.103V8.85h-.009l.01.05zm-.053-.103-.064-.123c.049 0 0 .069.059.103l.005.02zm-.089-.177v-.044a.083.083 0 0 0 0 .034v.01zm1.397 2.744a.27.27 0 0 1-.099.054L75 10.433l.177.099.413.83zm-.492-.944h-.152l-.905-1.77a.053.053 0 0 1 0-.03V8.55c0-.024.03 0 .04.035.009.034.043.039.068.063v.045a.09.09 0 0 0 0 .054l.064.123a.164.164 0 0 0 0 .064v.049a.25.25 0 0 0 0 .083l.034.089v.054a.03.03 0 0 0 0-.03l.109.217v.059l.098.201a.152.152 0 0 0 0 .089l.059.064.34.668.245-.059zm-1.81-3.305a.064.064 0 0 1 0-.044s0-.069.03-.074l.128.251.29.57h-.088v.035l-.192-.369v-.069l-.03.035-.049-.094a.53.53 0 0 0 .054-.088.069.069 0 0 0-.074.044l-.103-.201.035.004zm.492.728h-.103a.697.697 0 0 0 .143.05l-.04-.05zm.074.148h-.133l.266.52a.039.039 0 0 1 0-.039l.142.064-.275-.53V7.99zm1.092 2.335a.034.034 0 0 1-.03 0L74.02 8.57h.03l.904 1.77-.01-.015zm-1.534-3 .049.094v.025l-.054-.103.004-.015zm.068.134.192.368v.025l-.197-.384.005-.01zm.246.491.266.521v.03l-.045-.084-.23-.452.01-.015zm1.736 3.442-.113.025-.556-1.092c.056.016.11.038.162.064l.492.983.015.02zm-.546-1.067a.563.563 0 0 0-.138-.034h.035a.115.115 0 0 0-.054 0l-.472-.95v.025s0-.039-.04-.078v-.05l.035.025s-.094-.098-.07-.108h.026l-.055-.064v-.044h.04v-.03a.696.696 0 0 0-.064-.098h.024l-.049-.064s-.04-.034 0-.04a1.156 1.156 0 0 1-.073-.122l-.104-.202a.78.78 0 0 0 .079-.093l.044.083v.054l.826 1.79h.01zm-1.795-3.27a.815.815 0 0 1 .138.29l-.138-.29zm.163.31.25.492v-.04a.22.22 0 0 1 0 .07l.261.491v-.059l.143.074-.231-.453h-.064v-.073l-.197-.384V7.45l-.054-.103a.242.242 0 0 1-.044.073c-.001-.038.01-.075.03-.108l-.114-.216s0 .064.04.088v.045c-.03.093-.03.113-.035.118l.015.02zm2.075 4.076a.786.786 0 0 1-.27-.034l-.35-.684.128-.03a1.176 1.176 0 0 0-.207-.093l-.172-.339.3.094.57 1.086zm-.605-1.19a.642.642 0 0 1-.153-.034h.054c-.083-.03-.152-.079-.236-.103l.172.024h-.044c0-.034.094 0 .103 0l-.186-.113h-.094l-.049-.093h.064-.034l-.054-.035v-.024h.034l-.044-.025-.285-.56a.853.853 0 0 1 .068.059s-.059-.089-.113-.148l-.939-1.844.079.064c0 .03.049.054.064.074a1.105 1.105 0 0 1 0-.221c0-.06-.128-.158-.197-.207a1.021 1.021 0 0 1-.123-.064l-.024-.049c.12.033.234.088.334.162l.152.3.251.492a.236.236 0 0 0 0 .079v-.05l.26.492v.202s.03-.074.045-.089l.103.202c.023.125.06.247.108.364.064.073.128.157.187.23.06.075 0 0 .03.025l.457.9.01-.01zm-.605-1.204c.01.019.023.035.04.049l-.04-.05zm.94 2.34-.1-.04h-.034l-.314-.614.088-.03.35.684h.01zm-.414-.811h-.123l-.172-.34h.044l.079.025.172.315zm-.315-.61h-.103l-.034-.069a.275.275 0 0 1 .078-.034l.06.103zm-.073-.142c-.045-.03-.104-.05-.148-.08V9.72a.686.686 0 0 0 .143.079l.005.025zm-.025-.04-.285-.56c-.064-.06-.113-.108-.108-.163.005-.054.034.04.064.074l-.94-1.844-.167-.127.054.108c.047.053.088.11.123.172h-.039l.064.128h.02v.03l.078.034c.035.068.084.157.133.236l-.103-.138-.06-.06.561 1.132c.038.035.071.074.099.118-.054-.035-.035-.05-.06-.069l.394.777a.143.143 0 0 1 .04 0l.053.049-.073-.034c.04.016.076.04.108.068 0 0 .024 0 .04.025l.004.044zm-1.45-2.847c-.04 0-.074-.049-.074-.059h.05l.024.06zm2.143 4.426-.044-.035-.27-.59.314.625zm-.403-.792h-.034l-.172-.344h.034l.172.344zm-.295-.58-.03-.054.035.069-.005-.015zm-.118-.231-.044-.03V9.7l.05.035-.006.025zm0-.054-.044-.03v.025l.044.005zm-.03-.055-.039-.024v-.025l-.123-.24v-.025l-.27-.526-.064-.074-.182-.369a.53.53 0 0 0 .054.089l-.196-.364-.207-.408.06.059.515 1.062c.015.005.03.005.045 0l.393.777.015.068zm-1.056-2.07a.04.04 0 0 0-.035 0l-.059-.122h.03l.064.123zm-.148-.294-.034-.04-.05-.088.055.039.054.108-.025-.02zm1.996 4.021c-.083-.063-.078-.113-.147-.201a1.237 1.237 0 0 0-.241-.207c-.03-.073.03-.123.103-.152l.285.56zm-.393-.767-.256-.069a1.239 1.239 0 0 1-.634-.398.728.728 0 0 0-.133-.27.399.399 0 0 1 .207.157.394.394 0 0 0 .216.212l.118.044a.492.492 0 0 1-.226-.25.566.566 0 0 0-.172-.31s.128.044.162.063c.138.099.153.226.27.345.08.07.174.124.276.157l.172.344v-.025zm-.285-.565-.03-.054h-.034c-.035 0-.108 0-.103.03a.359.359 0 0 0 .157 0l.01.024zm-.138-.266v-.029s-.015.005 0 .02v.01zm-.025-.049c-.049 0-.093-.049-.098-.069.025.02.054.038.084.05l.014.02zm0-.054v-.024a.718.718 0 0 1-.147-.084c-.089-.015-.015.03.123.098l.025.01zm0-.04a1.295 1.295 0 0 0-.137-.083h.059a.689.689 0 0 0-.226-.128 1.29 1.29 0 0 1-.217-.118 1.555 1.555 0 0 1-.25-.162s.25.108.295.123l.265.113v-.04c-.04-.034-.182-.127-.197-.147.074.045.145.094.212.148l.088.049.123.241-.014.005zm-.132-.265-.27-.526a.123.123 0 0 1-.045 0 .177.177 0 0 0-.084-.098.113.113 0 0 0-.034-.054l-.04-.025a.211.211 0 0 0-.098-.098c0-.054-.034-.069-.093-.103-.059-.035-.084-.108-.108-.094-.025.015.024.035.024.04l-.059-.045c-.103-.118-.103-.118-.113-.123-.01-.004 0 .025.104.128.014.041.036.08.063.113-.054-.03-.088-.098-.113-.108.02.034.045.064.074.089 0 0 .074.098.064.098-.01 0-.04-.025-.025 0a.698.698 0 0 1 .123.148s.07.049.094.088c.024.04.088.084.113.123.024.04.04.064.084.098.019.037.05.067.088.084l-.202-.113c-.181-.079-.363-.128-.535-.192 0 0-.084-.04-.099-.034.155.102.32.19.492.26l.128.06c.17.084.334.18.491.284h-.024zm-.315-.61c-.064-.073-.147-.137-.216-.206-.07-.069-.113-.128-.177-.192l-.457-.427c.024-.025.329.201.358.226.03.024.064.054.089.079-.044-.094-.079-.246-.216-.32a2.66 2.66 0 0 0-.231-.152.684.684 0 0 1-.148-.084 1.534 1.534 0 0 1 .477.202s.054.063.093.068a2.156 2.156 0 0 0-.211-.31s.059.03.103.07l.207.408c.045.098.099.192.162.28l.182.369-.015-.01zm-.58-1.14c-.157-.05-.438-.133-.403-.162h.142c.067.014.134.024.202.03l.059.132zm-.172-.344a.57.57 0 0 1-.157-.143s.054 0 .108.054l.049.089z" fill="#fff"/><path d="M74.994 15.542c1.253 0 1.897.713 1.897 1.966v.246h-1.219v-.324c0-.556-.236-.767-.644-.767-.408 0-.644.211-.644.767 0 .555.26.983 1.101 1.691 1.077.905 1.416 1.549 1.416 2.458 0 1.25-.654 1.967-1.917 1.967-1.264 0-1.923-.713-1.923-1.967v-.491h1.22v.545c0 .56.255.758.663.758.409 0 .679-.197.679-.758 0-.56-.256-.983-1.101-1.69-1.077-.9-1.416-1.55-1.416-2.46-.01-1.228.634-1.941 1.888-1.941zM81.208 20.522v1.033c0 1.249-.659 1.966-1.922 1.966-1.264 0-1.918-.713-1.918-1.966v-4.052c0-1.248.654-1.966 1.918-1.966 1.263 0 1.922.713 1.922 1.966v.758H79.99v-.836c0-.556-.256-.767-.669-.767-.413 0-.663.211-.663.767v4.208c0 .56.255.758.663.758.408 0 .669-.197.669-.758v-1.11h1.22z" fill="#000"/><path d="M17.08 27.583a1.966 1.966 0 0 1-.718 1.617 3.27 3.27 0 0 1-2.055.566h-.811v2.724h-.807v-6.923h1.795c1.73 0 2.596.672 2.596 2.016zm-3.584 1.475h.722a2.694 2.694 0 0 0 1.55-.345 1.274 1.274 0 0 0 .49-1.11 1.193 1.193 0 0 0-.447-1.023 2.37 2.37 0 0 0-1.4-.335h-.915v2.813zm7.97 3.431-.153-.742h-.04c-.203.279-.47.506-.776.664a2.379 2.379 0 0 1-.983.172 1.74 1.74 0 0 1-1.21-.398 1.477 1.477 0 0 1-.437-1.131c0-1.052.84-1.598 2.517-1.652h.88v-.325a1.293 1.293 0 0 0-.265-.9 1.062 1.062 0 0 0-.841-.294c-.516.019-1.02.155-1.475.398l-.241-.6c.266-.142.548-.25.84-.325.299-.081.606-.123.915-.123.495-.04.986.107 1.377.413a1.722 1.722 0 0 1 .457 1.299v3.544h-.565zm-1.775-.53a1.589 1.589 0 0 0 1.155-.404 1.473 1.473 0 0 0 .418-1.126v-.491l-.787.034a2.892 2.892 0 0 0-1.352.29.886.886 0 0 0-.413.807.82.82 0 0 0 .256.649c.204.165.46.25.723.24zm6.21-4.755c.209-.003.418.015.624.054l-.113.728a2.84 2.84 0 0 0-.566-.069 1.375 1.375 0 0 0-1.076.492 1.859 1.859 0 0 0-.448 1.273v2.788h-.787v-5.172h.65l.088.958h.04c.169-.31.406-.576.693-.782.264-.178.576-.272.895-.27zm4.65 5.285-.162-.742h-.039a2.212 2.212 0 0 1-.772.664 2.413 2.413 0 0 1-.983.172 1.726 1.726 0 0 1-1.21-.398 1.447 1.447 0 0 1-.442-1.131c0-1.052.84-1.598 2.517-1.652h.88v-.325a1.317 1.317 0 0 0-.26-.9 1.077 1.077 0 0 0-.841-.294c-.515.02-1.02.156-1.475.398l-.241-.6c.266-.142.548-.25.84-.325.299-.081.606-.123.915-.123.495-.04.987.107 1.377.413a1.721 1.721 0 0 1 .447 1.323v3.545l-.55-.025zm-1.774-.53a1.588 1.588 0 0 0 1.15-.404 1.473 1.473 0 0 0 .418-1.126v-.491l-.787.034a2.906 2.906 0 0 0-1.352.29.886.886 0 0 0-.413.807.822.822 0 0 0 .261.649c.204.165.46.25.723.24zm8.594-4.755c.208-.004.416.014.62.054l-.108.728a2.883 2.883 0 0 0-.57-.069 1.39 1.39 0 0 0-1.078.492c-.304.36-.46.822-.437 1.293v2.787h-.787v-5.191h.64l.088.958h.059c.17-.31.408-.578.698-.782.258-.175.563-.269.875-.27zm3.648 5.379a2.397 2.397 0 0 1-1.819-.703 2.719 2.719 0 0 1-.664-1.967 2.999 2.999 0 0 1 .62-1.991 2.048 2.048 0 0 1 1.657-.738 1.965 1.965 0 0 1 1.544.64c.395.472.599 1.076.57 1.69v.493h-3.575c-.023.503.142.997.463 1.386a1.598 1.598 0 0 0 1.234.492 4.229 4.229 0 0 0 1.657-.35v.699c-.255.113-.52.2-.792.26-.294.061-.594.091-.895.089zm-.216-4.725a1.283 1.283 0 0 0-.983.408c-.27.317-.425.715-.438 1.13h2.714a1.726 1.726 0 0 0-.334-1.14 1.164 1.164 0 0 0-.959-.398zm5.403 4.725a2.217 2.217 0 0 1-1.745-.693 2.852 2.852 0 0 1-.62-1.967 2.95 2.95 0 0 1 .63-2.01 2.262 2.262 0 0 1 1.79-.709c.25 0 .501.026.747.079.201.04.398.102.585.186l-.241.67a3.534 3.534 0 0 0-.57-.173 2.588 2.588 0 0 0-.541-.069c-1.062 0-1.593.674-1.593 2.021-.035.52.1 1.038.383 1.475a1.343 1.343 0 0 0 1.146.492c.458-.006.91-.1 1.332-.28v.698a2.824 2.824 0 0 1-1.303.28zm3.196-.093h-.786v-7.376h.786v7.375zm4.72 0-.133-.743h-.039c-.204.279-.47.506-.777.664a2.38 2.38 0 0 1-.983.172 1.74 1.74 0 0 1-1.21-.398 1.477 1.477 0 0 1-.437-1.131c0-1.052.84-1.598 2.517-1.652h.88v-.325a1.293 1.293 0 0 0-.265-.9 1.063 1.063 0 0 0-.84-.294c-.516.019-1.02.155-1.476.398l-.24-.6c.265-.142.548-.25.84-.325.298-.081.605-.123.914-.123.495-.04.987.107 1.377.413a1.742 1.742 0 0 1 .447 1.323v3.545l-.575-.025zm-1.775-.532a1.589 1.589 0 0 0 1.15-.427 1.475 1.475 0 0 0 .419-1.126v-.492l-.787.035a2.892 2.892 0 0 0-1.352.29.885.885 0 0 0-.413.806.822.822 0 0 0 .256.649c.2.176.46.27.727.265zm10.458.532v-3.378a1.475 1.475 0 0 0-.26-.934 1.027 1.027 0 0 0-.826-.31 1.337 1.337 0 0 0-1.087.423c-.261.38-.385.838-.35 1.298v2.9h-.786v-3.377a1.42 1.42 0 0 0-.265-.934 1.027 1.027 0 0 0-.817-.31 1.293 1.293 0 0 0-1.086.442c-.267.443-.386.96-.34 1.475v2.724h-.786v-5.212h.64l.098.728h.034c.151-.251.369-.455.63-.59.28-.145.593-.217.909-.211.811 0 1.342.29 1.588.88h.04c.155-.277.39-.5.673-.644a2.1 2.1 0 0 1 .983-.236 1.741 1.741 0 0 1 1.318.452c.329.406.486.925.438 1.446v3.387l-.748-.02zm5.467 0-.157-.743h-.04a2.256 2.256 0 0 1-.771.664 2.423 2.423 0 0 1-.983.172 1.74 1.74 0 0 1-1.21-.398 1.477 1.477 0 0 1-.438-1.131c0-1.052.841-1.598 2.518-1.652h.88v-.325a1.317 1.317 0 0 0-.26-.9 1.076 1.076 0 0 0-.841-.294c-.516.02-1.02.155-1.475.398l-.197-.625c.266-.141.548-.25.84-.324.299-.082.606-.123.915-.123.495-.041.987.107 1.377.413a1.719 1.719 0 0 1 .447 1.323v3.544h-.605zm-1.78-.532a1.59 1.59 0 0 0 1.156-.403 1.475 1.475 0 0 0 .418-1.126v-.491l-.801.054a2.89 2.89 0 0 0-1.353.29.885.885 0 0 0-.413.806.821.821 0 0 0 .29.625c.198.163.448.25.704.245zm5.92.625a2.217 2.217 0 0 1-1.745-.693 2.852 2.852 0 0 1-.62-1.967 2.95 2.95 0 0 1 .63-2.01 2.257 2.257 0 0 1 1.784-.709c.253 0 .505.026.753.079.201.04.398.102.585.186l-.241.67a3.538 3.538 0 0 0-.57-.173 2.586 2.586 0 0 0-.541-.069c-1.059 0-1.587.674-1.583 2.021-.035.52.099 1.038.383 1.475a1.343 1.343 0 0 0 1.146.492c.458-.006.91-.1 1.332-.28v.698a2.823 2.823 0 0 1-1.313.28zm.698 1.273a.825.825 0 0 1-.358.713 1.888 1.888 0 0 1-1.072.251c-.154 0-.307-.014-.458-.044v-.492c.163.027.328.04.492.04a1.3 1.3 0 0 0 .566-.099.355.355 0 0 0 .191-.349.374.374 0 0 0-.187-.33 1.907 1.907 0 0 0-.703-.206L72 32.5h.522l-.261.54c.57.113.85.394.85.816zm6.19-3.967a2.856 2.856 0 0 1-.638 1.966 2.258 2.258 0 0 1-1.77.713 2.306 2.306 0 0 1-1.235-.33 2.109 2.109 0 0 1-.83-.933 3.258 3.258 0 0 1-.296-1.431 2.856 2.856 0 0 1 .635-1.967 2.238 2.238 0 0 1 1.76-.708 2.2 2.2 0 0 1 1.73.723c.454.552.684 1.253.645 1.967zm-1.651-3.29a.94.94 0 0 1-.399-.088 5.528 5.528 0 0 1-.383-.192c-.128-.069-.246-.138-.359-.197a.718.718 0 0 0-.334-.083.453.453 0 0 0-.36.137 1.075 1.075 0 0 0-.186.433h-.462c.018-.325.135-.637.334-.895a.87.87 0 0 1 .703-.324c.145-.002.29.027.423.083.133.058.263.124.388.197l.354.192a.699.699 0 0 0 .32.088.422.422 0 0 0 .35-.137c.09-.13.151-.278.181-.433h.492a1.7 1.7 0 0 1-.33.895.885.885 0 0 1-.732.324zm-2.306 3.29a2.458 2.458 0 0 0 .398 1.514 1.381 1.381 0 0 0 1.17.521 1.4 1.4 0 0 0 1.17-.516c.296-.45.435-.983.399-1.52a2.43 2.43 0 0 0-.399-1.504 1.607 1.607 0 0 0-2.35 0 2.458 2.458 0 0 0-.388 1.505zm7.394 2.694a2.395 2.395 0 0 1-1.819-.703 2.72 2.72 0 0 1-.664-1.967 2.999 2.999 0 0 1 .62-1.991 2.047 2.047 0 0 1 1.657-.738 1.965 1.965 0 0 1 1.544.64c.395.472.599 1.076.57 1.69v.493h-3.574a2.03 2.03 0 0 0 .462 1.386 1.592 1.592 0 0 0 1.229.492 4.253 4.253 0 0 0 1.662-.35v.699c-.255.113-.52.2-.792.26-.294.061-.594.091-.895.089zm-.23-4.725a1.284 1.284 0 0 0-.984.408c-.27.317-.425.715-.442 1.13h2.713a1.726 1.726 0 0 0-.329-1.14 1.165 1.165 0 0 0-.959-.398zm6.69 3.215a1.297 1.297 0 0 1-.54 1.117c-.45.286-.98.424-1.514.393a3.275 3.275 0 0 1-1.613-.33v-.727c.257.13.527.23.806.3.27.07.548.107.826.108.327.019.653-.049.944-.197a.653.653 0 0 0 .258-.876.644.644 0 0 0-.189-.215 3.968 3.968 0 0 0-1.022-.492 5.978 5.978 0 0 1-1.033-.492 1.38 1.38 0 0 1-.452-.457 1.194 1.194 0 0 1-.153-.61 1.171 1.171 0 0 1 .492-.983 2.404 2.404 0 0 1 1.42-.364c.564.002 1.12.117 1.638.34l-.28.639c-.446-.2-.927-.31-1.416-.325a1.627 1.627 0 0 0-.846.177.546.546 0 0 0-.28.492.604.604 0 0 0 .103.359c.096.113.213.206.344.275.295.147.599.276.91.384.472.114.914.327 1.298.624a1.2 1.2 0 0 1 .3.86zm1.968.286.073.108c-.1.373-.22.74-.359 1.101-.152.423-.314.811-.491 1.17h-.59c.083-.33.177-.732.28-1.219.103-.487.172-.87.216-1.16h.87zm5.875 1.224a2.218 2.218 0 0 1-1.75-.693 2.872 2.872 0 0 1-.615-1.967 2.95 2.95 0 0 1 .615-2.01 2.266 2.266 0 0 1 1.79-.709c.25 0 .501.026.747.079.203.04.4.102.59.186l-.246.67a3.475 3.475 0 0 0-.566-.173 2.67 2.67 0 0 0-.545-.069c-1.059 0-1.587.674-1.583 2.021-.037.521.1 1.04.388 1.475a1.333 1.333 0 0 0 1.14.492c.459-.005.912-.1 1.333-.28v.698c-.404.195-.85.291-1.298.28zm3.196-.093h-.787v-7.376h.787v7.375zm1.445-6.599a.534.534 0 0 1 .133-.398.494.494 0 0 1 .659 0 .524.524 0 0 1 .138.393.539.539 0 0 1-.138.394.46.46 0 0 1-.329.133.444.444 0 0 1-.33-.133.53.53 0 0 1-.133-.389zm.851 6.599h-.787v-5.193h.787v5.192zm3.397.093a1.88 1.88 0 0 1-1.568-.708 3.05 3.05 0 0 1-.565-1.967 3.123 3.123 0 0 1 .57-1.966 2.091 2.091 0 0 1 2.51-.49c.274.137.515.332.705.573h.04l.113-.708h.624v7.523h-.777v-2.242c-.003-.27.013-.54.05-.807h-.05a1.856 1.856 0 0 1-1.652.792zm.118-.659a1.435 1.435 0 0 0 1.146-.423c.28-.419.415-.918.384-1.42v-.173a2.601 2.601 0 0 0-.369-1.568 1.405 1.405 0 0 0-1.17-.492 1.211 1.211 0 0 0-1.062.541c-.268.46-.395.988-.364 1.52-.031.516.094 1.03.359 1.474a1.229 1.229 0 0 0 1.076.541zm4.583-4.627v3.368c-.026.34.077.678.29.944a1.17 1.17 0 0 0 .905.315 1.474 1.474 0 0 0 1.189-.447c.29-.426.423-.938.379-1.45v-2.73h.787v5.192h-.649l-.113-.698h-.045c-.161.256-.393.46-.668.585a2.233 2.233 0 0 1-.984.207 1.968 1.968 0 0 1-1.421-.452 1.912 1.912 0 0 1-.467-1.436v-3.398h.797zm7.276 5.286a2.382 2.382 0 0 1-1.819-.703 2.719 2.719 0 0 1-.663-1.967 3.023 3.023 0 0 1 .614-1.991 2.058 2.058 0 0 1 1.662-.738 1.966 1.966 0 0 1 1.544.64c.395.472.599 1.076.57 1.69v.493h-3.579c-.019.502.145.995.462 1.386a1.606 1.606 0 0 0 1.234.492 4.215 4.215 0 0 0 1.657-.35v.699c-.253.113-.516.2-.787.26-.294.061-.594.091-.895.089zm-.216-4.725a1.289 1.289 0 0 0-.983.408c-.266.319-.42.716-.438 1.13h2.714a1.725 1.725 0 0 0-.329-1.14 1.171 1.171 0 0 0-.964-.398zm8.904 4.631-.157-.742h-.039a2.223 2.223 0 0 1-.772.664 2.4 2.4 0 0 1-.984.172 1.726 1.726 0 0 1-1.209-.398 1.445 1.445 0 0 1-.438-1.131c0-1.052.836-1.598 2.513-1.652h.88v-.325a1.298 1.298 0 0 0-.261-.9 1.075 1.075 0 0 0-.841-.294 3.445 3.445 0 0 0-1.475.398l-.24-.6c.266-.142.548-.25.84-.325.3-.082.609-.123.92-.123.493-.04.982.108 1.371.413a1.719 1.719 0 0 1 .448 1.323v3.545l-.556-.025zm-1.775-.53a1.592 1.592 0 0 0 1.151-.404 1.484 1.484 0 0 0 .423-1.126v-.491l-.787.034a2.874 2.874 0 0 0-1.352.29.885.885 0 0 0-.418.807.822.822 0 0 0 .261.649c.203.165.46.25.722.24zm5.684.624a1.898 1.898 0 0 1-1.568-.708 3.083 3.083 0 0 1-.566-1.967 3.124 3.124 0 0 1 .571-1.966 2.09 2.09 0 0 1 2.518-.495c.275.138.517.336.707.578h.044l.113-.708h.62v7.523h-.777v-2.242c-.002-.27.016-.54.054-.807h-.054a1.865 1.865 0 0 1-1.662.792zm.118-.659a1.43 1.43 0 0 0 1.146-.423c.282-.417.417-.918.383-1.42v-.173a2.601 2.601 0 0 0-.369-1.568 1.374 1.374 0 0 0-1.17-.492 1.207 1.207 0 0 0-1.057.541c-.272.458-.4.987-.369 1.52-.03.516.097 1.03.364 1.474a1.23 1.23 0 0 0 1.072.541zm4.587-4.627v3.368c-.026.34.078.678.29.944a1.165 1.165 0 0 0 .905.315 1.474 1.474 0 0 0 1.17-.457 2.24 2.24 0 0 0 .379-1.45v-2.72h.782v5.192h-.649l-.113-.698h-.04c-.163.257-.397.46-.673.585a2.219 2.219 0 0 1-.984.207 1.967 1.967 0 0 1-1.416-.452 1.91 1.91 0 0 1-.491-1.436v-3.398h.84zm5.01-1.406a.534.534 0 0 1 .133-.398.493.493 0 0 1 .335-.123.438.438 0 0 1 .324.128.499.499 0 0 1 .138.393.5.5 0 0 1-.138.393.44.44 0 0 1-.324.133.457.457 0 0 1-.335-.132.54.54 0 0 1-.133-.394zm.856 6.599h-.787v-5.193h.787v5.192zm1.416-.502a.702.702 0 0 1 .147-.492.522.522 0 0 1 .413-.167.568.568 0 0 1 .428.167.817.817 0 0 1-.005.954.62.62 0 0 1-.831 0 .653.653 0 0 1-.152-.462z" fill="#5F6572"/></g><defs><clipPath id="a"><path fill="#fff" d="M0 0h156.32v34.82H0z"/></clipPath></defs></svg>