<svg width="32" height="54" viewBox="0 0 32 54" fill="none" xmlns="http://www.w3.org/2000/svg">
<path d="M24.3871 0H6.96774C5.12042 0.00207474 3.34935 0.73684 2.0431 2.0431C0.736841 3.34935 0.00207474 5.12042 0 6.96774V47.0323C0.00207474 48.8796 0.736841 50.6507 2.0431 51.9569C3.34935 53.2632 5.12042 53.9979 6.96774 54H24.3871C26.2344 53.9979 28.0055 53.2632 29.3117 51.9569C30.618 50.6507 31.3528 48.8796 31.3548 47.0323V6.96774C31.3528 5.12042 30.618 3.34935 29.3117 2.0431C28.0055 0.73684 26.2344 0.00207474 24.3871 0ZM1.74194 8.70968H29.6129V41.8064H1.74194V8.70968ZM6.96774 1.74194H24.3871C25.7726 1.74332 27.101 2.29434 28.0808 3.27407C29.0605 4.2538 29.6115 5.5822 29.6129 6.96774H1.74194C1.74332 5.5822 2.29434 4.2538 3.27407 3.27407C4.2538 2.29434 5.5822 1.74332 6.96774 1.74194ZM24.3871 52.2581H6.96774C5.5822 52.2567 4.2538 51.7057 3.27407 50.7259C2.29434 49.7462 1.74332 48.4178 1.74194 47.0323V43.5484H29.6129V47.0323C29.6115 48.4178 29.0605 49.7462 28.0808 50.7259C27.101 51.7057 25.7726 52.2567 24.3871 52.2581Z" fill="black"/>
<path d="M15.6772 45.2903C15.1604 45.2903 14.6553 45.4436 14.2256 45.7307C13.7959 46.0178 13.461 46.4259 13.2632 46.9033C13.0655 47.3808 13.0137 47.9061 13.1145 48.413C13.2154 48.9198 13.4642 49.3854 13.8296 49.7508C14.195 50.1163 14.6606 50.3651 15.1675 50.4659C15.6743 50.5668 16.1997 50.515 16.6771 50.3172C17.1546 50.1195 17.5627 49.7846 17.8498 49.3549C18.1369 48.9252 18.2901 48.42 18.2901 47.9032C18.2901 47.2103 18.0148 46.5457 17.5248 46.0556C17.0348 45.5656 16.3702 45.2903 15.6772 45.2903ZM15.6772 48.7742C15.505 48.7742 15.3366 48.7231 15.1933 48.6274C15.0501 48.5317 14.9385 48.3957 14.8726 48.2365C14.8066 48.0774 14.7894 47.9023 14.823 47.7333C14.8566 47.5644 14.9396 47.4092 15.0614 47.2874C15.1832 47.1656 15.3384 47.0826 15.5073 47.049C15.6763 47.0154 15.8514 47.0327 16.0105 47.0986C16.1697 47.1645 16.3057 47.2761 16.4014 47.4194C16.4971 47.5626 16.5482 47.731 16.5482 47.9032C16.5482 48.1342 16.4564 48.3558 16.2931 48.5191C16.1298 48.6824 15.9082 48.7742 15.6772 48.7742ZM18.2901 3.48389H13.0643C12.8333 3.48389 12.6118 3.57565 12.4485 3.73899C12.2851 3.90233 12.1934 4.12386 12.1934 4.35485C12.1934 4.58585 12.2851 4.80738 12.4485 4.97072C12.6118 5.13406 12.8333 5.22582 13.0643 5.22582H18.2901C18.5211 5.22582 18.7427 5.13406 18.906 4.97072C19.0693 4.80738 19.1611 4.58585 19.1611 4.35485C19.1611 4.12386 19.0693 3.90233 18.906 3.73899C18.7427 3.57565 18.5211 3.48389 18.2901 3.48389Z" fill="black"/>
</svg>
