<svg width="92" height="54" viewBox="0 0 92 54" fill="none" xmlns="http://www.w3.org/2000/svg">
<path d="M24.9173 46H17.2507C16.7423 46 16.2548 45.7981 15.8954 45.4386C15.5359 45.0792 15.334 44.5916 15.334 44.0833C15.334 43.575 15.5359 43.0875 15.8954 42.728C16.2548 42.3686 16.7423 42.1667 17.2507 42.1667H24.9173C25.4256 42.1667 25.9132 42.3686 26.2726 42.728C26.632 43.0875 26.834 43.575 26.834 44.0833C26.834 44.5916 26.632 45.0792 26.2726 45.4386C25.9132 45.7981 25.4256 46 24.9173 46ZM87.209 46H82.4173C81.909 46 81.4214 45.7981 81.062 45.4386C80.7026 45.0792 80.5006 44.5916 80.5006 44.0833C80.5006 43.575 80.7026 43.0875 81.062 42.728C81.4214 42.3686 81.909 42.1667 82.4173 42.1667H85.6181L88.2018 28.3973C88.1673 21.3517 82.149 15.3333 74.7506 15.3333H62.1658L56.067 42.1667H67.084C67.5923 42.1667 68.0798 42.3686 68.4393 42.728C68.7987 43.0875 69.0006 43.575 69.0006 44.0833C69.0006 44.5916 68.7987 45.0792 68.4393 45.4386C68.0798 45.7981 67.5923 46 67.084 46H53.6673C53.3797 46.0001 53.0957 45.9355 52.8365 45.811C52.5772 45.6865 52.3493 45.5052 52.1697 45.2807C51.99 45.0561 51.8632 44.7939 51.7986 44.5137C51.734 44.2334 51.7334 43.9422 51.7966 43.6616L58.7656 12.995C58.8614 12.5704 59.0988 12.1911 59.4388 11.9194C59.7787 11.6477 60.2011 11.4998 60.6363 11.5H74.7506C84.2611 11.5 92.0006 19.2395 92.0006 28.75L89.0911 44.436C89.0096 44.8755 88.7767 45.2726 88.4329 45.5583C88.089 45.8441 87.656 46.0003 87.209 46Z" fill="black"/>
<path d="M74.75 53.6665C69.4676 53.6665 65.1666 49.3693 65.1666 44.0832C65.1666 38.797 69.4676 34.4998 74.75 34.4998C80.0323 34.4998 84.3333 38.797 84.3333 44.0832C84.3333 49.3693 80.0323 53.6665 74.75 53.6665ZM74.75 38.3332C71.5798 38.3332 69 40.913 69 44.0832C69 47.2533 71.5798 49.8331 74.75 49.8331C77.9201 49.8331 80.5 47.2533 80.5 44.0832C80.5 40.913 77.9201 38.3332 74.75 38.3332ZM32.5833 53.6665C27.301 53.6665 23 49.3693 23 44.0832C23 38.797 27.301 34.4998 32.5833 34.4998C37.8657 34.4998 42.1666 38.797 42.1666 44.0832C42.1666 49.3693 37.8657 53.6665 32.5833 53.6665ZM32.5833 38.3332C29.4132 38.3332 26.8333 40.913 26.8333 44.0832C26.8333 47.2533 29.4132 49.8331 32.5833 49.8331C35.7535 49.8331 38.3333 47.2533 38.3333 44.0832C38.3333 40.913 35.7535 38.3332 32.5833 38.3332ZM24.9167 11.4998H9.58333C9.075 11.4998 8.58749 11.2979 8.22804 10.9385C7.8686 10.579 7.66666 10.0915 7.66666 9.58317C7.66666 9.07484 7.8686 8.58733 8.22804 8.22788C8.58749 7.86844 9.075 7.6665 9.58333 7.6665H24.9167C25.425 7.6665 25.9125 7.86844 26.2719 8.22788C26.6314 8.58733 26.8333 9.07484 26.8333 9.58317C26.8333 10.0915 26.6314 10.579 26.2719 10.9385C25.9125 11.2979 25.425 11.4998 24.9167 11.4998ZM24.9167 22.9998H5.75C5.24167 22.9998 4.75415 22.7979 4.39471 22.4385C4.03527 22.079 3.83333 21.5915 3.83333 21.0832C3.83333 20.5748 4.03527 20.0873 4.39471 19.7279C4.75415 19.3684 5.24167 19.1665 5.75 19.1665H24.9167C25.425 19.1665 25.9125 19.3684 26.2719 19.7279C26.6314 20.0873 26.8333 20.5748 26.8333 21.0832C26.8333 21.5915 26.6314 22.079 26.2719 22.4385C25.9125 22.7979 25.425 22.9998 24.9167 22.9998ZM24.9167 34.4998H1.91667C1.40833 34.4998 0.920823 34.2979 0.561378 33.9384C0.201934 33.579 0 33.0915 0 32.5832C0 32.0748 0.201934 31.5873 0.561378 31.2279C0.920823 30.8684 1.40833 30.6665 1.91667 30.6665H24.9167C25.425 30.6665 25.9125 30.8684 26.2719 31.2279C26.6314 31.5873 26.8333 32.0748 26.8333 32.5832C26.8333 33.0915 26.6314 33.579 26.2719 33.9384C25.9125 34.2979 25.425 34.4998 24.9167 34.4998Z" fill="black"/>
<path d="M53.6673 46H40.2506C39.7423 46 39.2548 45.798 38.8953 45.4386C38.5359 45.0792 38.334 44.5916 38.334 44.0833C38.334 43.575 38.5359 43.0875 38.8953 42.728C39.2548 42.3686 39.7423 42.1666 40.2506 42.1666H52.1378L60.8471 3.83333H17.2507C16.7423 3.83333 16.2548 3.6314 15.8954 3.27195C15.5359 2.91251 15.334 2.425 15.334 1.91667C15.334 1.40833 15.5359 0.920824 15.8954 0.561379C16.2548 0.201934 16.7423 2.39773e-07 17.2507 2.39773e-07H63.2506C63.5382 -0.000143607 63.8222 0.0644382 64.0814 0.18896C64.3407 0.313483 64.5686 0.494753 64.7482 0.719335C64.9279 0.943916 65.0547 1.20605 65.1193 1.48631C65.1839 1.76657 65.1846 2.05777 65.1213 2.33833L55.538 44.505C55.4422 44.9295 55.2048 45.3089 54.8648 45.5806C54.5249 45.8523 54.1025 46.0002 53.6673 46Z" fill="black"/>
</svg>
