<svg width="70" height="56" viewBox="0 0 70 56" fill="none" xmlns="http://www.w3.org/2000/svg">
<path d="M68.756 5.97862C67.849 4.90647 66.5789 4.25159 65.1793 4.1347L15.8846 0.0186597C14.4849 -0.0982343 13.124 0.336939 12.0517 1.24379C10.9838 2.14709 10.3299 3.41077 10.2093 4.80352L9.21754 14.108H5.2575C2.35853 14.108 0 16.4665 0 19.3655V50.2231C0 53.122 2.35853 55.4806 5.2575 55.4806H54.7239C57.623 55.4806 59.9815 53.122 59.9815 50.2231V45.2174L61.7369 45.364C61.8849 45.3763 62.0322 45.3824 62.1782 45.3824C64.8808 45.3824 67.1848 43.3031 67.4137 40.5622L69.9814 9.81164C70.0981 8.41206 69.663 7.0509 68.756 5.97862ZM5.2575 16.8424H54.7239C56.1152 16.8424 57.2472 17.9743 57.2472 19.3655V22.1773H2.73436V19.3655C2.73436 17.9743 3.86625 16.8424 5.2575 16.8424ZM2.73436 24.9116H57.2472V30.5839H2.73436V24.9116ZM54.7239 52.7462H5.2575C3.86625 52.7462 2.73436 51.6143 2.73436 50.2231V33.3183H57.2472V50.2231C57.2472 51.6143 56.1152 52.7462 54.7239 52.7462ZM67.2565 9.58401L64.6887 40.3345C64.5729 41.721 63.3505 42.7553 61.9644 42.639L59.9815 42.4735V19.3655C59.9815 16.4665 57.623 14.108 54.7239 14.108H11.9675L12.9298 5.07915C12.9309 5.06876 12.9319 5.0585 12.9327 5.04797C13.0485 3.66152 14.2702 2.62738 15.6571 2.74359L64.9519 6.85963C65.6236 6.91568 66.2333 7.23 66.6684 7.7446C67.1036 8.25921 67.3125 8.91231 67.2565 9.58401Z" fill="black"/>
<path d="M51.5253 37.3833H38.3672C37.6121 37.3833 37 37.9954 37 38.7505V47.3349C37 48.09 37.6121 48.7021 38.3672 48.7021H51.5253C52.2804 48.7021 52.8925 48.09 52.8925 47.3349V38.7505C52.8925 37.9954 52.2804 37.3833 51.5253 37.3833ZM50.1581 45.9677H39.7344V40.1177H50.1581V45.9677Z" fill="black"/>
</svg>
