<svg xmlns="http://www.w3.org/2000/svg" xmlns:xlink="http://www.w3.org/1999/xlink" width="3456" zoomAndPan="magnify" viewBox="0 0 2592 3455.999975" height="4608" preserveAspectRatio="xMidYMid meet" version="1.0"><defs><clipPath id="9155b19164"><path d="M 1275.519531 1417.324219 L 2109.980469 1417.324219 L 2109.980469 2758 L 1275.519531 2758 Z M 1275.519531 1417.324219 " clip-rule="nonzero"/></clipPath><clipPath id="2b277c3d3c"><path d="M 882 1650 L 1666 1650 L 1666 2860.867188 L 882 2860.867188 Z M 882 1650 " clip-rule="nonzero"/></clipPath><clipPath id="9768fcbd83"><path d="M 959 595.117188 L 1178 595.117188 L 1178 770 L 959 770 Z M 959 595.117188 " clip-rule="nonzero"/></clipPath></defs><path fill="#000000" d="M 721.523438 2836.898438 C 677.464844 2833.445312 632.996094 2825.078125 592.207031 2807.625 C 572.480469 2799.1875 553.648438 2788.53125 536.808594 2775.203125 C 528.351562 2768.507812 520.402344 2761.171875 513.269531 2753.070312 C 506.839844 2745.765625 500.246094 2737.53125 496.191406 2728.554688 C 498.78125 2697.863281 502.507812 2667.292969 506.433594 2636.757812 C 518.546875 2542.402344 534.105469 2448.472656 551.703125 2354.996094 C 569.179688 2262.242188 589.203125 2169.863281 612.292969 2078.339844 C 635.238281 1987.429688 661.179688 1897.28125 691.75 1808.621094 C 721.402344 1722.59375 755.636719 1637.621094 798.667969 1557.347656 C 840.097656 1480.070312 890.507812 1403.171875 960.445312 1348.699219 C 943.246094 1360.945312 938.140625 1365.335938 944.335938 1360.894531 C 941.179688 1363.402344 938.011719 1365.90625 934.933594 1368.503906 C 901.398438 1396.773438 872.53125 1430.273438 846.691406 1465.589844 C 820.421875 1501.46875 797.222656 1539.484375 776.21875 1578.65625 C 733.117188 1659.019531 698.269531 1743.859375 668.375 1829.949219 C 637.722656 1918.222656 611.800781 2008.050781 589.203125 2098.699219 C 566.601562 2189.335938 547.363281 2280.753906 530.734375 2372.664062 C 514.003906 2465.183594 499.738281 2558.296875 489.597656 2651.785156 C 487.050781 2675.210938 484.851562 2698.679688 483.140625 2722.175781 C 482.90625 2725.4375 481.886719 2729.238281 483.140625 2732.304688 C 485.054688 2736.644531 487.601562 2740.730469 490.242188 2744.644531 C 496.335938 2753.691406 503.546875 2761.964844 511.375 2769.546875 C 542.929688 2800.09375 584.332031 2818.933594 626.363281 2830.082031 C 671.636719 2842.097656 718.914062 2845.367188 765.601562 2844.144531 C 812.839844 2842.890625 859.753906 2836.859375 906.117188 2827.851562 C 845.214844 2836.878906 783.039062 2841.71875 721.523438 2836.898438 " fill-opacity="1" fill-rule="nonzero"/><g clip-path="url(#9155b19164)"><path fill="#000000" d="M 2104.863281 2566.460938 C 2096.03125 2559.691406 2087.410156 2552.664062 2078.972656 2545.40625 C 2044.789062 2516 2013.832031 2483.027344 1984.496094 2448.851562 C 1954.863281 2414.320312 1926.84375 2378.460938 1899.914062 2341.800781 C 1844.777344 2266.753906 1793.59375 2188.9375 1743.667969 2110.363281 C 1693.125 2030.835938 1644.214844 1950.289062 1595.03125 1869.921875 C 1545.785156 1789.445312 1496.46875 1708.96875 1444.390625 1630.285156 C 1418.855469 1591.699219 1392.597656 1553.546875 1364.5625 1516.710938 C 1340.679688 1485.339844 1315.5 1454.160156 1286.328125 1427.441406 C 1290.425781 1430.867188 1289.691406 1429.898438 1275.539062 1417.90625 C 1284.433594 1426.167969 1292.808594 1434.980469 1300.847656 1444.082031 C 1331.457031 1478.707031 1358.132812 1516.761719 1383.84375 1555.097656 C 1409.855469 1593.878906 1434.648438 1633.496094 1459.019531 1673.324219 C 1508.15625 1753.640625 1555.8125 1834.839844 1603.988281 1915.726562 C 1652.277344 1996.804688 1701.214844 2077.523438 1752.246094 2156.910156 C 1802.195312 2234.617188 1854.285156 2311.199219 1911.203125 2383.984375 C 1939.214844 2419.789062 1968.375 2454.761719 1999.6875 2487.722656 C 2029.105469 2518.691406 2060.386719 2548.371094 2094.917969 2573.632812 C 2086.433594 2588.90625 2075.222656 2602.976562 2063.761719 2616.011719 C 2051.042969 2630.460938 2037.113281 2643.796875 2022.300781 2656.074219 C 1953.253906 2713.332031 1866.5 2745.113281 1778.289062 2757.175781 C 1841.78125 2751.09375 1904.570312 2735.035156 1961.40625 2705.6875 C 1999.757812 2685.902344 2035.21875 2660.5 2065.277344 2629.460938 C 2080.664062 2613.574219 2095.335938 2596.152344 2106.382812 2576.914062 C 2106.945312 2575.933594 2110.195312 2571.441406 2109.980469 2570.351562 C 2109.765625 2569.3125 2105.84375 2567.203125 2104.863281 2566.460938 " fill-opacity="1" fill-rule="nonzero"/></g><g clip-path="url(#2b277c3d3c)"><path fill="#000000" d="M 1418.496094 2836.339844 C 1395.417969 2833.496094 1372.378906 2829.847656 1349.667969 2824.835938 C 1339.152344 2822.523438 1328.921875 2819.292969 1318.476562 2816.785156 C 1307.410156 2814.136719 1296.082031 2812.730469 1284.738281 2811.964844 C 1238.324219 2808.867188 1191.269531 2815.398438 1145.722656 2823.90625 C 1128.941406 2827.046875 1112.242188 2830.613281 1095.621094 2834.503906 C 1081.976562 2837.695312 1068.386719 2840.902344 1054.488281 2842.828125 C 1031.824219 2845.957031 1008.644531 2846.324219 986.054688 2842.441406 C 975.152344 2840.558594 964.378906 2837.695312 954.070312 2833.628906 C 945.089844 2830.074219 935.410156 2825.660156 927.972656 2819.324219 C 919.382812 2808.449219 916.011719 2793.136719 913.105469 2779.929688 C 903.109375 2734.3125 901.644531 2686.59375 900.707031 2640.066406 C 899.75 2592.820312 900.472656 2545.5 901.910156 2498.261719 C 904.792969 2403.601562 910.710938 2308.96875 918.089844 2214.5625 C 925.464844 2120.074219 933.894531 2025.648438 943.992188 1931.417969 C 954.058594 1837.582031 964.480469 1743.726562 980.125 1650.632812 C 979.207031 1654.710938 978.328125 1658.785156 977.503906 1662.789062 C 975.007812 1674.355469 972.613281 1685.949219 970.371094 1697.578125 C 952.5 1790.453125 939.539062 1884.359375 927.769531 1978.1875 C 915.960938 2072.410156 906.257812 2166.898438 898.445312 2261.527344 C 890.628906 2356.230469 884.851562 2451.164062 882.945312 2546.191406 C 881.988281 2593.757812 882.222656 2641.445312 884.972656 2688.96875 C 886.328125 2712.433594 888.253906 2735.929688 891.839844 2759.183594 C 895.164062 2780.695312 899.175781 2803.996094 910.367188 2823.019531 C 915.15625 2831.152344 921.472656 2835.617188 929.632812 2840.199219 C 939.078125 2845.5 949.199219 2849.597656 959.5625 2852.722656 C 981.570312 2859.367188 1004.742188 2861.609375 1027.65625 2860.722656 C 1058.96875 2859.5 1088.5 2851.09375 1118.761719 2844.050781 C 1164.511719 2833.414062 1211.261719 2824.9375 1258.296875 2823.386719 C 1281.246094 2822.632812 1303.957031 2823.917969 1326.179688 2829.929688 C 1348.636719 2835.777344 1371.789062 2839.367188 1394.796875 2842.21875 C 1441.109375 2847.976562 1488.222656 2849.871094 1534.789062 2846.273438 C 1579.644531 2842.808594 1625.417969 2834.238281 1665.613281 2813.207031 C 1628.59375 2830.652344 1587.125 2837.910156 1546.558594 2840.742188 C 1503.894531 2843.714844 1460.90625 2841.578125 1418.496094 2836.339844 " fill-opacity="1" fill-rule="nonzero"/></g><path fill="#000000" d="M 1683.722656 2725.628906 C 1671.523438 2706.269531 1660.265625 2686.308594 1649.554688 2666.09375 C 1627.738281 2624.894531 1607.820312 2582.742188 1588.53125 2540.3125 C 1549.566406 2454.558594 1513.839844 2367.265625 1479.136719 2279.707031 C 1444.359375 2191.984375 1410.703125 2103.792969 1378.003906 2015.265625 C 1358.867188 1963.441406 1340.046875 1911.496094 1321.351562 1859.507812 C 1309.714844 1827.15625 1298.320312 1794.714844 1287.0625 1762.21875 C 1279.390625 1740.117188 1271.878906 1717.964844 1264.542969 1695.742188 C 1257.21875 1673.550781 1249.789062 1651.285156 1243.980469 1628.644531 C 1245.582031 1637.101562 1246.476562 1641.351562 1246.855469 1642.839844 C 1255.496094 1683.941406 1267.601562 1724.425781 1279.480469 1764.644531 C 1306.269531 1855.269531 1336.207031 1944.980469 1367.753906 2034.046875 C 1399.332031 2123.195312 1432.628906 2211.710938 1468.101562 2299.390625 C 1503.265625 2386.289062 1540.425781 2472.472656 1581.867188 2556.566406 C 1602.195312 2597.800781 1623.582031 2638.582031 1647.261719 2677.992188 C 1658.941406 2697.433594 1671.199219 2716.570312 1684.648438 2734.851562 C 1697.464844 2752.253906 1711.40625 2769.628906 1728.605469 2782.925781 C 1726.710938 2781.246094 1724.867188 2779.503906 1723.074219 2777.707031 C 1707.707031 2762.363281 1695.253906 2743.941406 1683.722656 2725.628906 " fill-opacity="1" fill-rule="nonzero"/><path fill="#000000" d="M 1177.472656 1216.132812 C 1158.949219 1247.527344 1143.15625 1298.359375 1178.074219 1325.089844 C 1168.546875 1308.019531 1166.980469 1289.457031 1172.09375 1270.695312 C 1176.933594 1252.996094 1185.777344 1236.542969 1195.4375 1221.054688 C 1215.460938 1188.9375 1240.046875 1160.097656 1262.679688 1129.867188 C 1228.402344 1150.847656 1197.902344 1181.488281 1177.472656 1216.132812 " fill-opacity="1" fill-rule="nonzero"/><path fill="#000000" d="M 1230.582031 1351.519531 C 1201.757812 1378.003906 1173.234375 1405.523438 1141.863281 1429 C 1162.433594 1420.277344 1181.355469 1407.808594 1199.542969 1394.9375 C 1218.230469 1381.722656 1236.21875 1367.527344 1253.761719 1352.84375 C 1271.574219 1337.925781 1288.9375 1322.449219 1305.871094 1306.53125 C 1313.390625 1299.453125 1320.820312 1292.277344 1328.199219 1285.042969 C 1330.53125 1282.761719 1330.359375 1282.742188 1329.714844 1279.539062 C 1328.859375 1275.230469 1327.914062 1270.941406 1326.875 1266.660156 C 1316.429688 1223.375 1300.429688 1180.742188 1280 1141.148438 C 1279.707031 1140.535156 1279.378906 1139.871094 1279.011719 1139.167969 C 1284.902344 1162.992188 1291.269531 1186.695312 1297.160156 1210.515625 C 1302.570312 1232.445312 1308.15625 1254.546875 1311.875 1276.851562 C 1297.640625 1289.925781 1283.414062 1302.996094 1269.179688 1316.058594 C 1256.320312 1327.878906 1243.441406 1339.699219 1230.582031 1351.519531 " fill-opacity="1" fill-rule="nonzero"/><path fill="#000000" d="M 1202.5 1126.554688 C 1168.710938 1121.683594 1134.851562 1117.375 1101.59375 1109.457031 C 1085.289062 1105.585938 1069.117188 1100.90625 1053.507812 1094.792969 C 1043.632812 1090.921875 1033.78125 1086.570312 1024.734375 1080.96875 C 1034.117188 1054.371094 1044.386719 1028.09375 1053.601562 1001.4375 C 1041.71875 1016.292969 1031.742188 1032.710938 1022.746094 1049.441406 C 1017.367188 1059.4375 1012.363281 1069.636719 1007.796875 1080.019531 C 1007.207031 1081.375 1004.640625 1085.246094 1004.957031 1086.519531 C 1005.242188 1087.683594 1008.550781 1089.597656 1009.511719 1090.414062 C 1012.894531 1093.296875 1016.550781 1095.90625 1020.351562 1098.332031 C 1020.566406 1105.207031 1021.21875 1112.097656 1022.511719 1118.820312 C 1023.59375 1124.375 1025.121094 1129.878906 1027.6875 1134.941406 C 1029.613281 1138.855469 1033.046875 1142.03125 1034.597656 1146.109375 C 1037.46875 1153.691406 1036.09375 1163.257812 1035.777344 1171.175781 C 1035.199219 1185.5 1034.789062 1199.867188 1033.058594 1214.113281 C 1030.4375 1235.785156 1024.46875 1256.847656 1014.980469 1276.523438 C 1005.382812 1296.425781 992.890625 1314.703125 980.125 1332.667969 C 984.351562 1329.714844 988.457031 1326.585938 992.421875 1323.273438 C 1025.285156 1295.875 1046.589844 1257.601562 1050.910156 1214.910156 C 1052.09375 1203.242188 1052.171875 1191.511719 1051.734375 1179.804688 C 1051.339844 1169.066406 1051.347656 1157.703125 1048.320312 1147.3125 C 1045.480469 1137.550781 1037 1132.058594 1032.253906 1123.367188 C 1028.289062 1115.835938 1025.394531 1107.796875 1022.574219 1099.765625 C 1035.890625 1107.878906 1051.125 1113.523438 1065.632812 1117.945312 C 1109.386719 1131.261719 1157.410156 1133.910156 1202.5 1126.554688 " fill-opacity="1" fill-rule="nonzero"/><path fill="#000000" d="M 1062.109375 1004.34375 C 1068.527344 1007.511719 1071.980469 1008.957031 1073.367188 1009.386719 C 1089.761719 1016.160156 1107.035156 1020.777344 1124.40625 1024.3125 C 1147.191406 1028.941406 1170.421875 1031.203125 1193.644531 1031.792969 C 1237.285156 1032.894531 1281.386719 1026.882812 1323.316406 1014.675781 C 1328.972656 1027.054688 1334.402344 1039.546875 1339.335938 1052.222656 C 1342.339844 1060.089844 1345.355469 1067.945312 1347.773438 1076.015625 C 1349.453125 1081.621094 1351.265625 1087.691406 1351.460938 1093.664062 C 1328.023438 1107.0625 1301.632812 1116.417969 1275.539062 1122.835938 C 1295.898438 1122.082031 1316.234375 1118.066406 1335.59375 1111.820312 C 1341.464844 1109.925781 1347.273438 1107.796875 1352.980469 1105.453125 C 1352.949219 1106.011719 1352.9375 1106.523438 1352.917969 1107.011719 C 1351.308594 1140.914062 1359.804688 1175.324219 1367.4375 1208.039062 C 1371.359375 1224.832031 1375.8125 1241.503906 1379.789062 1258.285156 C 1381.804688 1266.84375 1383.792969 1275.433594 1385.28125 1284.117188 C 1385.972656 1288.152344 1386.582031 1292.214844 1386.871094 1296.300781 C 1387.074219 1299.15625 1387.5625 1303.046875 1386.328125 1305.757812 C 1383.527344 1311.066406 1376.953125 1315.582031 1372.308594 1319.3125 C 1366.019531 1324.355469 1359.488281 1329.101562 1352.917969 1333.75 C 1338.925781 1343.621094 1324.589844 1353.019531 1310.242188 1362.363281 C 1271.492188 1387.582031 1231.621094 1411.34375 1193.839844 1438.007812 C 1188.90625 1441.492188 1183.589844 1444.753906 1180.101562 1449.765625 C 1174.792969 1457.441406 1168.050781 1464.113281 1160.9375 1470.117188 C 1144.53125 1483.953125 1125.824219 1494.792969 1106.75 1504.515625 C 1124.519531 1498.726562 1141.933594 1491.097656 1157.820312 1481.222656 C 1165.601562 1476.382812 1173.152344 1471.011719 1179.839844 1464.714844 C 1182.621094 1462.105469 1185.21875 1459.335938 1187.652344 1456.402344 C 1188.214844 1455.726562 1188.773438 1454.636719 1189.488281 1454.117188 C 1189.425781 1454.179688 1189.394531 1454.242188 1189.375 1454.3125 C 1198.136719 1447.761719 1208.257812 1442.898438 1217.734375 1437.46875 C 1231.480469 1429.582031 1245.285156 1421.808594 1258.992188 1413.859375 C 1296.191406 1392.296875 1333.40625 1370.167969 1368.101562 1344.722656 C 1376.761719 1338.375 1385.402344 1331.78125 1393.035156 1324.203125 C 1399.960938 1317.304688 1403.835938 1310.660156 1403.742188 1300.726562 C 1403.640625 1290.21875 1401.023438 1279.734375 1398.433594 1269.617188 C 1395.621094 1258.621094 1392.289062 1247.757812 1388.886719 1236.9375 C 1381.898438 1214.714844 1374.742188 1192.542969 1368 1170.246094 C 1361.589844 1149.074219 1355.738281 1127.359375 1353.285156 1105.320312 C 1355.792969 1104.28125 1358.296875 1103.222656 1360.761719 1102.078125 C 1362.976562 1101.0625 1362.78125 1100.460938 1363.15625 1098.015625 C 1363.890625 1093.683594 1363.65625 1089.351562 1363.167969 1085.011719 C 1360.988281 1065.765625 1354.222656 1046.769531 1347.425781 1028.734375 C 1343.859375 1019.25 1340.078125 1009.824219 1335.953125 1000.5625 C 1335.1875 998.828125 1334.414062 997.105469 1333.648438 995.375 C 1332.773438 993.398438 1332.730469 993.867188 1330.632812 994.457031 C 1288.507812 1006.226562 1245.671875 1013.847656 1201.960938 1016.109375 C 1155.535156 1018.503906 1107.226562 1016.292969 1062.109375 1004.34375 " fill-opacity="1" fill-rule="nonzero"/><g clip-path="url(#9768fcbd83)"><path fill="#000000" d="M 970.597656 714.183594 C 977.503906 672.183594 1014.472656 640.332031 1051.316406 623.203125 C 1070.453125 614.308594 1091.382812 609.089844 1112.546875 609.234375 C 1135.320312 609.375 1157.195312 615.894531 1177.546875 625.839844 C 1156.421875 606.644531 1128.492188 595.957031 1099.992188 595.640625 C 1056.066406 595.070312 1012.300781 617.933594 984.453125 651.375 C 971.015625 667.515625 961.546875 687.03125 959.746094 708.132812 C 957.910156 729.519531 964.023438 751.816406 976.882812 769.066406 C 970.433594 751.621094 967.550781 732.648438 970.597656 714.183594 " fill-opacity="1" fill-rule="nonzero"/></g><path fill="#000000" d="M 1056.648438 779.417969 C 1042.410156 776.636719 1029.574219 770.085938 1016.398438 764.285156 C 1006.554688 759.957031 988.355469 751.734375 981.722656 765.164062 C 988.40625 760.851562 994.492188 763.777344 1000.410156 767.902344 C 1006.484375 772.144531 1012.25 776.800781 1018.386719 780.988281 C 1031.191406 789.71875 1044.714844 796.027344 1060.183594 798.167969 C 1075.507812 800.277344 1091.546875 799.246094 1106.238281 794.234375 C 1118.761719 789.964844 1133.332031 781.566406 1136.917969 767.792969 C 1127.167969 777.269531 1112.972656 780.335938 1099.871094 781.566406 C 1085.511719 782.882812 1070.800781 782.179688 1056.648438 779.417969 " fill-opacity="1" fill-rule="nonzero"/><path fill="#000000" d="M 1177.332031 827.839844 C 1180.378906 834.289062 1184.605469 840.199219 1189.671875 845.210938 C 1193.308594 848.808594 1197.40625 851.90625 1201.816406 854.402344 C 1208.074219 868.3125 1214.992188 881.933594 1222.429688 895.253906 C 1226.617188 902.753906 1230.96875 910.191406 1235.667969 917.382812 C 1240.078125 924.140625 1244.644531 931.109375 1250.6875 936.53125 C 1256.574219 941.796875 1263.21875 946.109375 1270.503906 949.175781 C 1277.136719 951.96875 1284.707031 953.40625 1290.660156 957.613281 C 1296.835938 961.984375 1301.246094 969.238281 1305.414062 975.414062 C 1309.980469 982.097656 1314.1875 989.007812 1318.304688 995.976562 C 1317.855469 986.878906 1315.5625 977.714844 1312.496094 969.167969 C 1309.980469 962.136719 1306.972656 954.738281 1302.070312 949.003906 C 1296.855469 942.878906 1289.863281 939.382812 1282.679688 936.09375 C 1275.628906 932.863281 1269.039062 929 1263.261719 923.785156 C 1257.390625 918.503906 1252.949219 911.707031 1248.25 905.410156 C 1243.167969 898.605469 1238.089844 891.777344 1232.8125 885.113281 C 1225.222656 875.585938 1217.347656 866.242188 1208.683594 857.671875 C 1214.960938 860.148438 1221.6875 861.445312 1228.554688 861.25 C 1258.59375 860.40625 1281.304688 833.320312 1289.773438 806.574219 C 1272.460938 821.410156 1253.121094 842.003906 1228.828125 843.316406 C 1217.304688 844.058594 1206.25 839.484375 1196.9375 833.003906 C 1191.953125 829.539062 1187.378906 825.476562 1183.261719 821.023438 C 1179.410156 816.835938 1175.203125 811.882812 1173.734375 806.257812 C 1173.417969 807.183594 1173.316406 807.683594 1173.328125 807.949219 C 1171.910156 814.46875 1174.640625 822.144531 1177.332031 827.839844 " fill-opacity="1" fill-rule="nonzero"/><path fill="#000000" d="M 1312.273438 725.554688 C 1319.007812 744.367188 1311.140625 763.105469 1296.285156 775.445312 C 1288.976562 781.515625 1279.847656 785.910156 1270.210938 785.929688 C 1260.386719 785.949219 1251.777344 781.070312 1243.980469 775.578125 C 1247.382812 787.691406 1257.503906 797.148438 1269.761719 799.847656 C 1283.046875 802.832031 1297.097656 798.003906 1307.390625 789.503906 C 1316.632812 781.875 1323.378906 771.113281 1325.417969 759.242188 C 1327.566406 746.75 1323.53125 732.496094 1312.273438 725.554688 " fill-opacity="1" fill-rule="nonzero"/><path fill="#000000" d="M 1261.40625 630.476562 C 1274.773438 641.117188 1271.777344 660.332031 1270.472656 675.261719 C 1288.273438 659.058594 1291.085938 629.347656 1270.027344 614.59375 C 1252.214844 602.496094 1220.914062 605.117188 1209.816406 625.496094 C 1225.761719 620.214844 1247.527344 619.441406 1261.40625 630.476562 " fill-opacity="1" fill-rule="nonzero"/><path fill="#000000" d="M 1305.769531 694.140625 C 1303.773438 708.183594 1292.523438 721.335938 1278.148438 723.253906 C 1286.632812 730.550781 1299.851562 727.390625 1308.132812 721.519531 C 1315.917969 716.007812 1321.441406 707.449219 1323.246094 698.085938 C 1327.617188 675.453125 1309.226562 655.953125 1287.347656 654.167969 C 1286.816406 654.085938 1286.238281 654.035156 1285.59375 654.003906 C 1295.640625 665.171875 1308.09375 677.738281 1305.769531 694.140625 " fill-opacity="1" fill-rule="nonzero"/><path fill="#000000" d="M 1002.355469 831.996094 C 1007.0625 836.347656 1014.195312 839.402344 1017.425781 845.101562 C 1022.15625 853.433594 1021.328125 864.257812 1027.972656 871.695312 C 1028.707031 861.851562 1033.324219 852.160156 1031.46875 842.144531 C 1029.785156 833.078125 1024.082031 827.296875 1017.34375 821.492188 C 1002.203125 808.417969 997.894531 786.121094 981.253906 774.445312 C 984.65625 794.183594 986.714844 817.546875 1002.355469 831.996094 " fill-opacity="1" fill-rule="nonzero"/><path fill="#000000" d="M 1050.359375 889.609375 C 1050.378906 893.621094 1051.714844 898.035156 1055.921875 899.410156 C 1059.417969 900.570312 1064.460938 899.460938 1066.316406 896.007812 C 1067.140625 894.457031 1067.265625 892.582031 1067.265625 890.859375 C 1067.265625 888.160156 1067.425781 886.5 1065.03125 884.929688 C 1063.484375 883.921875 1058.074219 881.332031 1056.257812 882.351562 C 1057.636719 881.851562 1055.015625 885.15625 1054.730469 885.417969 C 1053.242188 886.785156 1051.765625 888.160156 1050.359375 889.609375 " fill-opacity="1" fill-rule="nonzero"/><path fill="#000000" d="M 1141.863281 858.90625 C 1132.058594 872.917969 1117.773438 882.78125 1105.058594 893.929688 C 1101.96875 896.628906 1099.074219 899.542969 1095.976562 902.222656 C 1093.085938 904.730469 1090.128906 905.777344 1086.460938 906.574219 C 1084.628906 906.972656 1081.398438 908.324219 1079.675781 907.011719 C 1079.707031 907.050781 1079.734375 907.082031 1079.765625 907.125 C 1076.636719 906.398438 1076.964844 901.367188 1073.214844 901.183594 C 1073.09375 901.140625 1072.960938 901.121094 1072.757812 901.132812 C 1074.519531 903.199219 1073.164062 905.269531 1073.183594 907.644531 C 1073.195312 909.101562 1073.632812 910.464844 1074.316406 911.738281 C 1075.589844 914.113281 1077.757812 915.875 1080.195312 916.976562 C 1090.078125 921.449219 1100.816406 919.320312 1109.355469 913.136719 C 1118.050781 906.828125 1126.34375 899.675781 1132.710938 890.953125 C 1133.261719 890.1875 1133.800781 889.394531 1134.34375 888.597656 C 1137.207031 899.175781 1142.433594 909.222656 1146.316406 919.359375 C 1148.863281 926.015625 1151.132812 933.035156 1150.941406 940.25 C 1150.929688 940.390625 1150.910156 940.546875 1150.910156 940.6875 C 1132.84375 937.945312 1113.636719 944.4375 1100.136719 956.53125 C 1086.347656 968.75 1077.921875 986.621094 1074.722656 1004.578125 C 1088.601562 995.476562 1098.820312 981.792969 1111.058594 970.777344 C 1123.316406 959.761719 1137.53125 951.773438 1150.796875 942.175781 C 1150.226562 948.117188 1147.863281 953.597656 1145.457031 959.050781 C 1164.960938 955.199219 1169.820312 933.238281 1164.421875 916.753906 C 1159.886719 902.925781 1149.585938 891.320312 1137.601562 883.136719 C 1141.566406 875.636719 1143.980469 867.046875 1141.863281 858.90625 " fill-opacity="1" fill-rule="nonzero"/><path fill="#000000" d="M 1166.265625 652.496094 C 1165.257812 660.800781 1167.007812 669.695312 1171.136719 677.15625 C 1165.214844 680.507812 1160.570312 685.683594 1158.9375 692.929688 C 1157.207031 700.601562 1159.03125 708.601562 1162.503906 715.714844 C 1156.871094 717.28125 1151.59375 719.992188 1148.007812 724.597656 C 1142.289062 731.957031 1143.492188 741.6875 1147.617188 749.480469 C 1147.75 743.613281 1148.191406 736.734375 1152.539062 732.292969 C 1156.648438 728.09375 1163.363281 727.664062 1168.882812 727.878906 C 1174.753906 728.105469 1180.644531 728.988281 1186.480469 729.632812 C 1184.496094 725.535156 1182.507812 721.441406 1180.519531 717.34375 C 1177.496094 711.097656 1171.746094 698.523438 1178.992188 693.144531 C 1183.242188 689.921875 1190.128906 689.363281 1195.285156 688.261719 C 1199.535156 687.34375 1203.792969 686.4375 1208.042969 685.53125 C 1202.070312 681.597656 1195.855469 677.910156 1190.089844 673.679688 C 1177.65625 664.5625 1170.71875 636.601562 1191.128906 633.035156 C 1177.421875 627.144531 1167.761719 640.320312 1166.265625 652.496094 " fill-opacity="1" fill-rule="nonzero"/></svg>