<svg xmlns="http://www.w3.org/2000/svg" xmlns:xlink="http://www.w3.org/1999/xlink" width="200" viewBox="0 0 375 374.999991" height="200" preserveAspectRatio="xMidYMid meet" version="1.0"><defs><g/><clipPath id="abd195de4f"><path d="M 127 153 L 186 153 L 186 200 L 127 200 Z M 127 153 " clip-rule="nonzero"/></clipPath><clipPath id="75baf18fd3"><path d="M 182.648438 153.429688 L 172.972656 153.429688 C 172.652344 153.429688 172.34375 153.492188 172.046875 153.613281 C 171.75 153.738281 171.488281 153.914062 171.261719 154.140625 C 171.035156 154.367188 170.859375 154.628906 170.738281 154.925781 C 170.613281 155.21875 170.554688 155.527344 170.554688 155.851562 C 170.554688 156.171875 170.613281 156.480469 170.738281 156.777344 C 170.859375 157.070312 171.035156 157.332031 171.261719 157.558594 C 171.488281 157.785156 171.75 157.960938 172.046875 158.085938 C 172.34375 158.207031 172.652344 158.269531 172.972656 158.269531 L 175.390625 158.269531 L 175.390625 175.199219 C 175.390625 175.835938 175.359375 176.464844 175.296875 177.097656 C 175.234375 177.726562 175.140625 178.355469 175.019531 178.976562 C 174.894531 179.597656 174.742188 180.210938 174.558594 180.816406 C 174.375 181.425781 174.160156 182.019531 173.917969 182.605469 C 173.675781 183.191406 173.40625 183.765625 173.105469 184.324219 C 172.808594 184.882812 172.480469 185.425781 172.128906 185.953125 C 171.777344 186.476562 171.398438 186.988281 171 187.476562 C 170.597656 187.964844 170.171875 188.4375 169.722656 188.882812 C 169.273438 189.332031 168.804688 189.757812 168.316406 190.160156 C 167.824219 190.5625 167.316406 190.9375 166.789062 191.289062 C 166.261719 191.640625 165.71875 191.96875 165.160156 192.265625 C 164.601562 192.566406 164.03125 192.835938 163.445312 193.078125 C 162.859375 193.320312 162.261719 193.535156 161.65625 193.71875 C 161.050781 193.902344 160.4375 194.054688 159.816406 194.179688 C 159.191406 194.304688 158.566406 194.394531 157.9375 194.457031 C 157.304688 194.519531 156.671875 194.550781 156.039062 194.550781 C 155.40625 194.550781 154.773438 194.519531 154.144531 194.457031 C 153.511719 194.394531 152.886719 194.304688 152.265625 194.179688 C 151.644531 194.054688 151.027344 193.902344 150.421875 193.71875 C 149.816406 193.535156 149.21875 193.320312 148.632812 193.078125 C 148.046875 192.835938 147.476562 192.566406 146.917969 192.265625 C 146.359375 191.96875 145.816406 191.640625 145.289062 191.289062 C 144.761719 190.9375 144.253906 190.5625 143.761719 190.160156 C 143.273438 189.757812 142.804688 189.332031 142.355469 188.882812 C 141.910156 188.4375 141.484375 187.964844 141.082031 187.476562 C 140.679688 186.988281 140.300781 186.476562 139.949219 185.953125 C 139.597656 185.425781 139.273438 184.882812 138.972656 184.324219 C 138.675781 183.765625 138.402344 183.191406 138.160156 182.605469 C 137.917969 182.019531 137.707031 181.425781 137.523438 180.816406 C 137.339844 180.210938 137.183594 179.597656 137.058594 178.976562 C 136.9375 178.355469 136.84375 177.726562 136.78125 177.097656 C 136.71875 176.464844 136.6875 175.835938 136.6875 175.199219 L 136.6875 158.269531 L 139.109375 158.269531 C 139.429688 158.269531 139.738281 158.207031 140.03125 158.085938 C 140.328125 157.960938 140.589844 157.785156 140.816406 157.558594 C 141.042969 157.332031 141.21875 157.070312 141.34375 156.777344 C 141.464844 156.480469 141.527344 156.171875 141.527344 155.851562 C 141.527344 155.527344 141.464844 155.21875 141.34375 154.925781 C 141.21875 154.628906 141.042969 154.367188 140.816406 154.140625 C 140.589844 153.914062 140.328125 153.738281 140.03125 153.613281 C 139.738281 153.492188 139.429688 153.429688 139.109375 153.429688 L 129.433594 153.429688 C 129.109375 153.429688 128.804688 153.492188 128.507812 153.613281 C 128.210938 153.738281 127.949219 153.914062 127.722656 154.140625 C 127.496094 154.367188 127.320312 154.628906 127.199219 154.925781 C 127.074219 155.21875 127.011719 155.527344 127.011719 155.851562 C 127.011719 156.171875 127.074219 156.480469 127.199219 156.777344 C 127.320312 157.070312 127.496094 157.332031 127.722656 157.558594 C 127.949219 157.785156 128.210938 157.960938 128.507812 158.085938 C 128.804688 158.207031 129.109375 158.269531 129.433594 158.269531 L 131.851562 158.269531 L 131.851562 175.199219 C 131.851562 175.992188 131.890625 176.785156 131.96875 177.570312 C 132.046875 178.359375 132.160156 179.144531 132.316406 179.917969 C 132.46875 180.695312 132.664062 181.464844 132.890625 182.222656 C 133.121094 182.980469 133.390625 183.726562 133.691406 184.457031 C 133.996094 185.1875 134.332031 185.90625 134.707031 186.601562 C 135.082031 187.300781 135.488281 187.980469 135.925781 188.640625 C 136.367188 189.296875 136.839844 189.933594 137.339844 190.546875 C 137.84375 191.160156 138.375 191.746094 138.9375 192.304688 C 139.496094 192.863281 140.082031 193.394531 140.695312 193.898438 C 141.308594 194.402344 141.941406 194.871094 142.601562 195.3125 C 143.261719 195.753906 143.9375 196.160156 144.636719 196.535156 C 145.335938 196.90625 146.050781 197.246094 146.78125 197.546875 C 147.515625 197.851562 148.261719 198.117188 149.019531 198.347656 C 149.777344 198.578125 150.542969 198.769531 151.320312 198.925781 C 152.097656 199.078125 152.878906 199.195312 153.667969 199.273438 C 154.457031 199.351562 155.246094 199.390625 156.039062 199.390625 C 156.832031 199.390625 157.621094 199.351562 158.410156 199.273438 C 159.199219 199.195312 159.980469 199.078125 160.757812 198.925781 C 161.535156 198.769531 162.304688 198.578125 163.0625 198.347656 C 163.820312 198.117188 164.5625 197.851562 165.296875 197.546875 C 166.027344 197.246094 166.742188 196.90625 167.441406 196.535156 C 168.140625 196.160156 168.820312 195.753906 169.476562 195.3125 C 170.136719 194.871094 170.773438 194.402344 171.382812 193.898438 C 171.996094 193.394531 172.582031 192.863281 173.144531 192.304688 C 173.703125 191.746094 174.234375 191.160156 174.738281 190.546875 C 175.242188 189.933594 175.710938 189.296875 176.152344 188.640625 C 176.59375 187.980469 177 187.300781 177.371094 186.601562 C 177.746094 185.90625 178.082031 185.1875 178.386719 184.457031 C 178.691406 183.726562 178.957031 182.980469 179.1875 182.222656 C 179.417969 181.464844 179.609375 180.695312 179.761719 179.917969 C 179.917969 179.144531 180.035156 178.359375 180.113281 177.570312 C 180.1875 176.785156 180.226562 175.992188 180.226562 175.199219 L 180.226562 158.269531 L 182.648438 158.269531 C 182.96875 158.269531 183.277344 158.207031 183.574219 158.085938 C 183.867188 157.960938 184.128906 157.785156 184.359375 157.558594 C 184.585938 157.332031 184.757812 157.070312 184.882812 156.777344 C 185.003906 156.480469 185.066406 156.171875 185.066406 155.851562 C 185.066406 155.527344 185.003906 155.21875 184.882812 154.925781 C 184.757812 154.628906 184.585938 154.367188 184.359375 154.140625 C 184.128906 153.914062 183.867188 153.738281 183.574219 153.613281 C 183.277344 153.492188 182.96875 153.429688 182.648438 153.429688 Z M 182.648438 153.429688 " clip-rule="nonzero"/></clipPath><clipPath id="0e07594a90"><path d="M 112.5 80.910156 L 262.5 80.910156 L 262.5 230.910156 L 112.5 230.910156 Z M 112.5 80.910156 " clip-rule="nonzero"/></clipPath><clipPath id="af321fb1b9"><path d="M 257.628906 121.875 C 257.617188 121.566406 257.542969 121.269531 257.414062 120.984375 C 257.285156 120.703125 257.109375 120.453125 256.886719 120.238281 C 256.660156 120.019531 256.402344 119.855469 256.113281 119.738281 C 255.824219 119.625 255.523438 119.566406 255.214844 119.566406 L 235.863281 119.566406 L 235.863281 107.472656 C 235.863281 106.601562 235.820312 105.730469 235.734375 104.863281 C 235.648438 103.996094 235.519531 103.136719 235.351562 102.28125 C 235.179688 101.425781 234.96875 100.582031 234.714844 99.75 C 234.464844 98.914062 234.171875 98.09375 233.835938 97.289062 C 233.503906 96.484375 233.132812 95.699219 232.71875 94.929688 C 232.308594 94.160156 231.863281 93.414062 231.378906 92.691406 C 230.894531 91.964844 230.375 91.265625 229.824219 90.59375 C 229.269531 89.917969 228.683594 89.273438 228.070312 88.65625 C 227.453125 88.042969 226.808594 87.457031 226.132812 86.90625 C 225.460938 86.351562 224.761719 85.832031 224.035156 85.347656 C 223.3125 84.863281 222.566406 84.417969 221.796875 84.007812 C 221.027344 83.597656 220.242188 83.222656 219.4375 82.890625 C 218.632812 82.558594 217.8125 82.261719 216.976562 82.011719 C 216.144531 81.757812 215.300781 81.546875 214.445312 81.375 C 213.589844 81.207031 212.730469 81.078125 211.863281 80.992188 C 210.996094 80.90625 210.125 80.863281 209.253906 80.863281 C 208.382812 80.863281 207.515625 80.90625 206.648438 80.992188 C 205.78125 81.078125 204.917969 81.207031 204.0625 81.375 C 203.210938 81.546875 202.363281 81.757812 201.53125 82.011719 C 200.695312 82.261719 199.878906 82.558594 199.074219 82.890625 C 198.265625 83.222656 197.480469 83.597656 196.710938 84.007812 C 195.945312 84.417969 195.195312 84.863281 194.472656 85.347656 C 193.746094 85.832031 193.046875 86.351562 192.375 86.90625 C 191.703125 87.457031 191.054688 88.042969 190.441406 88.65625 C 189.824219 89.273438 189.238281 89.917969 188.6875 90.59375 C 188.132812 91.265625 187.617188 91.964844 187.132812 92.691406 C 186.648438 93.414062 186.199219 94.160156 185.789062 94.929688 C 185.378906 95.699219 185.007812 96.484375 184.671875 97.289062 C 184.339844 98.09375 184.046875 98.914062 183.792969 99.75 C 183.539062 100.582031 183.328125 101.425781 183.160156 102.28125 C 182.988281 103.136719 182.859375 103.996094 182.773438 104.863281 C 182.691406 105.730469 182.648438 106.601562 182.648438 107.472656 L 182.648438 119.566406 L 163.296875 119.566406 C 162.984375 119.566406 162.683594 119.625 162.394531 119.742188 C 162.105469 119.859375 161.847656 120.023438 161.621094 120.242188 C 161.394531 120.457031 161.21875 120.707031 161.089844 120.992188 C 160.964844 121.277344 160.894531 121.578125 160.878906 121.890625 L 160.09375 141.335938 L 114.917969 141.335938 C 114.597656 141.335938 114.289062 141.398438 113.992188 141.519531 C 113.695312 141.644531 113.433594 141.816406 113.207031 142.046875 C 112.980469 142.273438 112.808594 142.535156 112.683594 142.828125 C 112.5625 143.125 112.5 143.433594 112.5 143.753906 L 112.5 222.367188 C 112.5 222.925781 112.554688 223.476562 112.664062 224.019531 C 112.773438 224.566406 112.933594 225.09375 113.148438 225.605469 C 113.359375 226.121094 113.621094 226.609375 113.929688 227.070312 C 114.238281 227.53125 114.589844 227.960938 114.980469 228.351562 C 115.375 228.746094 115.804688 229.097656 116.265625 229.40625 C 116.726562 229.714844 117.214844 229.976562 117.726562 230.1875 C 118.242188 230.402344 118.769531 230.5625 119.316406 230.671875 C 119.859375 230.78125 120.410156 230.835938 120.964844 230.835938 L 260.050781 230.835938 C 260.382812 230.835938 260.699219 230.769531 261 230.640625 C 261.304688 230.511719 261.570312 230.324219 261.800781 230.085938 C 262.027344 229.847656 262.199219 229.574219 262.316406 229.265625 C 262.429688 228.957031 262.480469 228.636719 262.464844 228.308594 Z M 187.484375 107.472656 C 187.484375 106.757812 187.519531 106.046875 187.589844 105.339844 C 187.660156 104.628906 187.765625 103.925781 187.902344 103.226562 C 188.042969 102.527344 188.214844 101.835938 188.421875 101.152344 C 188.628906 100.472656 188.867188 99.800781 189.140625 99.140625 C 189.414062 98.484375 189.71875 97.839844 190.054688 97.210938 C 190.390625 96.582031 190.757812 95.96875 191.152344 95.378906 C 191.550781 94.785156 191.972656 94.214844 192.425781 93.660156 C 192.878906 93.109375 193.355469 92.582031 193.859375 92.078125 C 194.367188 91.574219 194.894531 91.097656 195.445312 90.644531 C 195.996094 90.191406 196.566406 89.769531 197.160156 89.371094 C 197.753906 88.976562 198.363281 88.609375 198.992188 88.273438 C 199.621094 87.9375 200.265625 87.632812 200.921875 87.359375 C 201.582031 87.085938 202.253906 86.847656 202.933594 86.640625 C 203.617188 86.433594 204.308594 86.261719 205.007812 86.121094 C 205.707031 85.980469 206.410156 85.878906 207.121094 85.808594 C 207.832031 85.738281 208.542969 85.703125 209.253906 85.703125 C 209.96875 85.703125 210.679688 85.738281 211.386719 85.808594 C 212.097656 85.878906 212.800781 85.980469 213.5 86.121094 C 214.199219 86.261719 214.890625 86.433594 215.574219 86.640625 C 216.257812 86.847656 216.925781 87.085938 217.585938 87.359375 C 218.246094 87.632812 218.886719 87.9375 219.515625 88.273438 C 220.144531 88.609375 220.757812 88.976562 221.347656 89.371094 C 221.941406 89.769531 222.515625 90.191406 223.066406 90.644531 C 223.617188 91.097656 224.144531 91.574219 224.648438 92.078125 C 225.152344 92.582031 225.628906 93.109375 226.082031 93.660156 C 226.535156 94.214844 226.960938 94.785156 227.355469 95.378906 C 227.75 95.96875 228.117188 96.582031 228.453125 97.210938 C 228.789062 97.839844 229.09375 98.484375 229.367188 99.140625 C 229.640625 99.800781 229.878906 100.472656 230.085938 101.152344 C 230.292969 101.835938 230.46875 102.527344 230.605469 103.226562 C 230.746094 103.925781 230.851562 104.628906 230.917969 105.339844 C 230.988281 106.046875 231.023438 106.757812 231.023438 107.472656 L 231.023438 119.566406 L 187.484375 119.566406 Z M 194.742188 222.367188 C 194.742188 222.851562 194.648438 223.3125 194.464844 223.757812 C 194.28125 224.199219 194.019531 224.59375 193.679688 224.933594 C 193.335938 225.273438 192.945312 225.535156 192.5 225.71875 C 192.058594 225.902344 191.59375 225.996094 191.113281 225.996094 L 120.964844 225.996094 C 120.484375 225.996094 120.023438 225.902344 119.578125 225.71875 C 119.132812 225.535156 118.742188 225.273438 118.402344 224.933594 C 118.0625 224.59375 117.800781 224.199219 117.613281 223.757812 C 117.429688 223.3125 117.339844 222.851562 117.335938 222.367188 L 117.335938 146.175781 L 194.742188 146.175781 Z M 198.761719 225.996094 C 199.308594 224.851562 199.582031 223.640625 199.578125 222.367188 L 199.578125 143.753906 C 199.578125 143.433594 199.519531 143.125 199.394531 142.828125 C 199.273438 142.535156 199.097656 142.273438 198.871094 142.046875 C 198.644531 141.816406 198.382812 141.644531 198.085938 141.519531 C 197.789062 141.398438 197.480469 141.335938 197.160156 141.335938 L 164.933594 141.335938 L 165.617188 124.40625 L 182.648438 124.40625 L 182.648438 129.242188 L 180.226562 129.242188 C 179.90625 129.242188 179.597656 129.304688 179.300781 129.425781 C 179.007812 129.550781 178.746094 129.722656 178.519531 129.949219 C 178.292969 130.175781 178.117188 130.4375 177.992188 130.734375 C 177.871094 131.03125 177.808594 131.339844 177.808594 131.660156 C 177.808594 131.980469 177.871094 132.289062 177.992188 132.585938 C 178.117188 132.882812 178.292969 133.144531 178.519531 133.371094 C 178.746094 133.597656 179.007812 133.773438 179.300781 133.894531 C 179.597656 134.019531 179.90625 134.078125 180.226562 134.078125 L 189.902344 134.078125 C 190.222656 134.078125 190.53125 134.019531 190.828125 133.894531 C 191.125 133.773438 191.386719 133.597656 191.613281 133.371094 C 191.839844 133.144531 192.015625 132.882812 192.136719 132.585938 C 192.261719 132.289062 192.324219 131.980469 192.324219 131.660156 C 192.324219 131.339844 192.261719 131.03125 192.136719 130.734375 C 192.015625 130.4375 191.839844 130.175781 191.613281 129.949219 C 191.386719 129.722656 191.125 129.550781 190.828125 129.425781 C 190.53125 129.304688 190.222656 129.242188 189.902344 129.242188 L 187.484375 129.242188 L 187.484375 124.40625 L 231.023438 124.40625 L 231.023438 129.242188 L 228.605469 129.242188 C 228.285156 129.242188 227.976562 129.304688 227.679688 129.425781 C 227.382812 129.550781 227.121094 129.722656 226.894531 129.949219 C 226.667969 130.175781 226.492188 130.4375 226.371094 130.734375 C 226.25 131.03125 226.1875 131.339844 226.1875 131.660156 C 226.1875 131.980469 226.25 132.289062 226.371094 132.585938 C 226.492188 132.882812 226.667969 133.144531 226.894531 133.371094 C 227.121094 133.597656 227.382812 133.773438 227.679688 133.894531 C 227.976562 134.019531 228.285156 134.078125 228.605469 134.078125 L 238.28125 134.078125 C 238.601562 134.078125 238.910156 134.019531 239.207031 133.894531 C 239.503906 133.773438 239.765625 133.597656 239.992188 133.371094 C 240.21875 133.144531 240.394531 132.882812 240.515625 132.585938 C 240.636719 132.289062 240.699219 131.980469 240.699219 131.660156 C 240.699219 131.339844 240.636719 131.03125 240.515625 130.734375 C 240.394531 130.4375 240.21875 130.175781 239.992188 129.949219 C 239.765625 129.722656 239.503906 129.550781 239.207031 129.425781 C 238.910156 129.304688 238.601562 129.242188 238.28125 129.242188 L 235.863281 129.242188 L 235.863281 124.40625 L 252.902344 124.40625 L 257.519531 225.996094 Z M 198.761719 225.996094 " clip-rule="nonzero"/></clipPath></defs><g clip-path="url(#abd195de4f)"><g clip-path="url(#75baf18fd3)"><path fill="#ebebeb" d="M 127.011719 153.429688 L 127.011719 199.390625 L 185.066406 199.390625 L 185.066406 153.429688 Z M 127.011719 153.429688 " fill-opacity="1" fill-rule="nonzero"/></g></g><g clip-path="url(#0e07594a90)"><g clip-path="url(#af321fb1b9)"><path fill="#ebebeb" d="M 112.5 80.910156 L 112.5 230.835938 L 262.480469 230.835938 L 262.480469 80.910156 Z M 112.5 80.910156 " fill-opacity="1" fill-rule="nonzero"/></g></g><g fill="#ebebeb" fill-opacity="1"><g transform="translate(147.981351, 266.696834)"><g><path d="M 2.59375 0 L 2.59375 -21.90625 L 7.484375 -21.90625 L 7.328125 -4.203125 L 15.390625 -4.265625 L 15.390625 0 Z M 2.59375 0 "/></g></g></g><g fill="#ebebeb" fill-opacity="1"><g transform="translate(163.026074, 266.696834)"><g><path d="M 14.53125 -0.09375 C 13.488281 0.238281 12.28125 0.40625 10.90625 0.40625 C 9.53125 0.40625 8.316406 0.238281 7.265625 -0.09375 C 6.222656 -0.425781 5.253906 -1 4.359375 -1.8125 C 2.492188 -3.46875 1.5625 -6.53125 1.5625 -11 C 1.5625 -16.019531 2.847656 -19.34375 5.421875 -20.96875 C 6.816406 -21.863281 8.644531 -22.3125 10.90625 -22.3125 C 14.457031 -22.3125 16.96875 -21.1875 18.4375 -18.9375 C 19.644531 -17.113281 20.25 -14.46875 20.25 -11 C 20.25 -6.53125 19.316406 -3.46875 17.453125 -1.8125 C 16.554688 -1 15.582031 -0.425781 14.53125 -0.09375 Z M 8.421875 -17.515625 C 7.859375 -17.179688 7.421875 -16.5 7.109375 -15.46875 C 6.796875 -14.4375 6.640625 -12.925781 6.640625 -10.9375 C 6.640625 -8.957031 6.800781 -7.445312 7.125 -6.40625 C 7.445312 -5.375 7.890625 -4.695312 8.453125 -4.375 C 9.023438 -4.050781 9.84375 -3.890625 10.90625 -3.890625 C 11.96875 -3.890625 12.773438 -4.054688 13.328125 -4.390625 C 14.554688 -5.097656 15.171875 -7.28125 15.171875 -10.9375 C 15.171875 -14.632812 14.578125 -16.828125 13.390625 -17.515625 C 12.816406 -17.847656 11.988281 -18.015625 10.90625 -18.015625 C 9.820312 -18.015625 8.992188 -17.847656 8.421875 -17.515625 Z M 8.421875 -17.515625 "/></g></g></g><g fill="#ebebeb" fill-opacity="1"><g transform="translate(184.83002, 266.696834)"><g><path d="M 7.96875 -17.421875 C 7.101562 -16.628906 6.671875 -14.492188 6.671875 -11.015625 C 6.671875 -7.535156 7.125 -5.335938 8.03125 -4.421875 C 8.570312 -3.921875 9.457031 -3.671875 10.6875 -3.671875 C 11.914062 -3.671875 12.816406 -3.734375 13.390625 -3.859375 L 13.390625 -8.5625 L 10.21875 -8.78125 L 10.21875 -12.3125 L 18.171875 -12.3125 L 18.171875 -1.03125 C 17.273438 -0.65625 16.132812 -0.320312 14.75 -0.03125 C 13.375 0.257812 12.113281 0.40625 10.96875 0.40625 C 9.820312 0.40625 8.816406 0.316406 7.953125 0.140625 C 7.097656 -0.0351562 6.257812 -0.378906 5.4375 -0.890625 C 4.613281 -1.398438 3.921875 -2.054688 3.359375 -2.859375 C 2.160156 -4.691406 1.5625 -7.414062 1.5625 -11.03125 C 1.5625 -15.5625 2.472656 -18.613281 4.296875 -20.1875 C 5.234375 -21 6.253906 -21.554688 7.359375 -21.859375 C 8.472656 -22.160156 9.992188 -22.3125 11.921875 -22.3125 C 13.859375 -22.3125 15.929688 -22.039062 18.140625 -21.5 L 17.578125 -17.546875 C 14.765625 -17.859375 12.570312 -18.015625 11 -18.015625 C 9.4375 -18.015625 8.425781 -17.816406 7.96875 -17.421875 Z M 7.96875 -17.421875 "/></g></g></g><g fill="#ebebeb" fill-opacity="1"><g transform="translate(205.201131, 266.696834)"><g><path d="M 14.53125 -0.09375 C 13.488281 0.238281 12.28125 0.40625 10.90625 0.40625 C 9.53125 0.40625 8.316406 0.238281 7.265625 -0.09375 C 6.222656 -0.425781 5.253906 -1 4.359375 -1.8125 C 2.492188 -3.46875 1.5625 -6.53125 1.5625 -11 C 1.5625 -16.019531 2.847656 -19.34375 5.421875 -20.96875 C 6.816406 -21.863281 8.644531 -22.3125 10.90625 -22.3125 C 14.457031 -22.3125 16.96875 -21.1875 18.4375 -18.9375 C 19.644531 -17.113281 20.25 -14.46875 20.25 -11 C 20.25 -6.53125 19.316406 -3.46875 17.453125 -1.8125 C 16.554688 -1 15.582031 -0.425781 14.53125 -0.09375 Z M 8.421875 -17.515625 C 7.859375 -17.179688 7.421875 -16.5 7.109375 -15.46875 C 6.796875 -14.4375 6.640625 -12.925781 6.640625 -10.9375 C 6.640625 -8.957031 6.800781 -7.445312 7.125 -6.40625 C 7.445312 -5.375 7.890625 -4.695312 8.453125 -4.375 C 9.023438 -4.050781 9.84375 -3.890625 10.90625 -3.890625 C 11.96875 -3.890625 12.773438 -4.054688 13.328125 -4.390625 C 14.554688 -5.097656 15.171875 -7.28125 15.171875 -10.9375 C 15.171875 -14.632812 14.578125 -16.828125 13.390625 -17.515625 C 12.816406 -17.847656 11.988281 -18.015625 10.90625 -18.015625 C 9.820312 -18.015625 8.992188 -17.847656 8.421875 -17.515625 Z M 8.421875 -17.515625 "/></g></g></g><g fill="#ebebeb" fill-opacity="1"><g transform="translate(54.802838, 291.584923)"><g><path d="M 7.5625 0.296875 C 6.851562 0.296875 6.207031 0.222656 5.625 0.078125 C 5.050781 -0.0664062 4.492188 -0.316406 3.953125 -0.671875 C 3.421875 -1.035156 2.976562 -1.515625 2.625 -2.109375 C 1.820312 -3.398438 1.421875 -5.300781 1.421875 -7.8125 C 1.421875 -10.96875 2.03125 -13.125 3.25 -14.28125 C 3.84375 -14.84375 4.484375 -15.242188 5.171875 -15.484375 C 5.859375 -15.722656 6.65625 -15.84375 7.5625 -15.84375 C 8.46875 -15.84375 9.265625 -15.722656 9.953125 -15.484375 C 10.640625 -15.242188 11.28125 -14.84375 11.875 -14.28125 C 13.09375 -13.125 13.703125 -10.96875 13.703125 -7.8125 C 13.703125 -4.207031 12.859375 -1.828125 11.171875 -0.671875 C 10.222656 -0.0234375 9.019531 0.296875 7.5625 0.296875 Z M 5.359375 -2.59375 C 5.660156 -2.375 5.976562 -2.222656 6.3125 -2.140625 C 6.644531 -2.066406 7.148438 -2.03125 7.828125 -2.03125 C 8.515625 -2.03125 9.078125 -2.15625 9.515625 -2.40625 C 10.492188 -2.945312 10.984375 -4.726562 10.984375 -7.75 C 10.984375 -8.988281 10.925781 -9.984375 10.8125 -10.734375 C 10.695312 -11.492188 10.484375 -12.082031 10.171875 -12.5 C 9.867188 -12.914062 9.519531 -13.191406 9.125 -13.328125 C 8.738281 -13.460938 8.21875 -13.53125 7.5625 -13.53125 C 6.914062 -13.53125 6.394531 -13.460938 6 -13.328125 C 5.613281 -13.191406 5.269531 -12.914062 4.96875 -12.5 C 4.664062 -12.082031 4.453125 -11.492188 4.328125 -10.734375 C 4.210938 -9.984375 4.15625 -9.046875 4.15625 -7.921875 C 4.15625 -6.804688 4.195312 -5.90625 4.28125 -5.21875 C 4.375 -4.539062 4.503906 -3.988281 4.671875 -3.5625 C 4.835938 -3.144531 5.066406 -2.820312 5.359375 -2.59375 Z M 5.359375 -2.59375 "/></g></g></g><g fill="#ebebeb" fill-opacity="1"><g transform="translate(80.808737, 291.584923)"><g><path d="M 2.15625 0 L 2.15625 -15.546875 L 5.5625 -15.546875 L 11.140625 -3 L 11.265625 -3 L 10.953125 -15.546875 L 13.421875 -15.546875 L 13.421875 0 L 10.015625 0 L 4.453125 -12.53125 L 4.34375 -12.53125 L 4.625 0 Z M 2.15625 0 "/></g></g></g><g fill="#ebebeb" fill-opacity="1"><g transform="translate(107.237232, 291.584923)"><g><path d="M 2.15625 0 L 2.15625 -15.546875 L 4.765625 -15.546875 L 4.65625 -2.265625 L 10.328125 -2.3125 L 10.328125 0 Z M 2.15625 0 "/></g></g></g><g fill="#ebebeb" fill-opacity="1"><g transform="translate(128.505554, 291.584923)"><g><path d="M 2.15625 0.015625 L 2.25 -7.140625 L 2.15625 -15.546875 L 4.78125 -15.546875 L 4.6875 -8.65625 L 4.78125 0.015625 Z M 2.15625 0.015625 "/></g></g></g><g fill="#ebebeb" fill-opacity="1"><g transform="translate(146.348585, 291.584923)"><g><path d="M 2.15625 0 L 2.15625 -15.546875 L 5.5625 -15.546875 L 11.140625 -3 L 11.265625 -3 L 10.953125 -15.546875 L 13.421875 -15.546875 L 13.421875 0 L 10.015625 0 L 4.453125 -12.53125 L 4.34375 -12.53125 L 4.625 0 Z M 2.15625 0 "/></g></g></g><g fill="#ebebeb" fill-opacity="1"><g transform="translate(172.777077, 291.584923)"><g><path d="M 2.15625 0 L 2.15625 -15.546875 L 10.5625 -15.546875 L 10.5625 -13.28125 L 4.765625 -13.34375 L 4.65625 -8.984375 L 10.015625 -8.984375 L 10.015625 -6.78125 L 4.65625 -6.78125 L 4.765625 -2.21875 L 10.5625 -2.265625 L 10.5625 0 Z M 2.15625 0 "/></g></g></g><g fill="#ebebeb" fill-opacity="1"><g transform="translate(195.557868, 291.584923)"><g/></g></g><g fill="#ebebeb" fill-opacity="1"><g transform="translate(211.666021, 291.584923)"><g><path d="M 6.296875 -2.046875 C 7.597656 -2.046875 8.25 -2.757812 8.25 -4.1875 C 8.25 -4.789062 8.003906 -5.300781 7.515625 -5.71875 C 7.023438 -6.132812 6.347656 -6.535156 5.484375 -6.921875 C 4.617188 -7.316406 4.125 -7.546875 4 -7.609375 C 3.875 -7.679688 3.644531 -7.804688 3.3125 -7.984375 C 2.988281 -8.160156 2.765625 -8.304688 2.640625 -8.421875 C 2.515625 -8.546875 2.332031 -8.722656 2.09375 -8.953125 C 1.863281 -9.179688 1.707031 -9.414062 1.625 -9.65625 C 1.375 -10.289062 1.25 -10.914062 1.25 -11.53125 C 1.25 -12.789062 1.679688 -13.820312 2.546875 -14.625 C 3.410156 -15.4375 4.644531 -15.84375 6.25 -15.84375 C 7.425781 -15.84375 8.582031 -15.679688 9.71875 -15.359375 L 10.328125 -15.203125 L 9.90625 -13.015625 C 8.28125 -13.328125 7.039062 -13.484375 6.1875 -13.484375 C 5.34375 -13.484375 4.753906 -13.34375 4.421875 -13.0625 C 4.097656 -12.789062 3.9375 -12.351562 3.9375 -11.75 C 3.9375 -11.15625 4.140625 -10.691406 4.546875 -10.359375 C 4.953125 -10.023438 5.425781 -9.726562 5.96875 -9.46875 C 6.507812 -9.207031 6.945312 -9.003906 7.28125 -8.859375 C 7.613281 -8.710938 7.863281 -8.597656 8.03125 -8.515625 C 8.207031 -8.429688 8.441406 -8.300781 8.734375 -8.125 C 9.035156 -7.957031 9.265625 -7.800781 9.421875 -7.65625 C 9.585938 -7.519531 9.78125 -7.335938 10 -7.109375 C 10.226562 -6.878906 10.394531 -6.644531 10.5 -6.40625 C 10.78125 -5.832031 10.921875 -5.207031 10.921875 -4.53125 C 10.921875 -3.09375 10.453125 -1.925781 9.515625 -1.03125 C 8.585938 -0.144531 7.367188 0.296875 5.859375 0.296875 C 5.078125 0.296875 4.269531 0.1875 3.4375 -0.03125 C 2.601562 -0.257812 1.960938 -0.488281 1.515625 -0.71875 L 0.828125 -1.0625 C 0.960938 -1.46875 1.070312 -1.789062 1.15625 -2.03125 C 1.25 -2.28125 1.320312 -2.488281 1.375 -2.65625 C 1.4375 -2.832031 1.503906 -3.015625 1.578125 -3.203125 C 3.285156 -2.429688 4.859375 -2.046875 6.296875 -2.046875 Z M 6.296875 -2.046875 "/></g></g></g><g fill="#ebebeb" fill-opacity="1"><g transform="translate(234.602497, 291.584923)"><g><path d="M -0.09375 -15.546875 L 11.0625 -15.546875 L 11.0625 -13.265625 L 6.71875 -13.328125 L 6.765625 0 L 4.1875 0 L 4.25 -13.328125 L -0.09375 -13.265625 Z M -0.09375 -15.546875 "/></g></g></g><g fill="#ebebeb" fill-opacity="1"><g transform="translate(256.560332, 291.584923)"><g><path d="M 7.5625 0.296875 C 6.851562 0.296875 6.207031 0.222656 5.625 0.078125 C 5.050781 -0.0664062 4.492188 -0.316406 3.953125 -0.671875 C 3.421875 -1.035156 2.976562 -1.515625 2.625 -2.109375 C 1.820312 -3.398438 1.421875 -5.300781 1.421875 -7.8125 C 1.421875 -10.96875 2.03125 -13.125 3.25 -14.28125 C 3.84375 -14.84375 4.484375 -15.242188 5.171875 -15.484375 C 5.859375 -15.722656 6.65625 -15.84375 7.5625 -15.84375 C 8.46875 -15.84375 9.265625 -15.722656 9.953125 -15.484375 C 10.640625 -15.242188 11.28125 -14.84375 11.875 -14.28125 C 13.09375 -13.125 13.703125 -10.96875 13.703125 -7.8125 C 13.703125 -4.207031 12.859375 -1.828125 11.171875 -0.671875 C 10.222656 -0.0234375 9.019531 0.296875 7.5625 0.296875 Z M 5.359375 -2.59375 C 5.660156 -2.375 5.976562 -2.222656 6.3125 -2.140625 C 6.644531 -2.066406 7.148438 -2.03125 7.828125 -2.03125 C 8.515625 -2.03125 9.078125 -2.15625 9.515625 -2.40625 C 10.492188 -2.945312 10.984375 -4.726562 10.984375 -7.75 C 10.984375 -8.988281 10.925781 -9.984375 10.8125 -10.734375 C 10.695312 -11.492188 10.484375 -12.082031 10.171875 -12.5 C 9.867188 -12.914062 9.519531 -13.191406 9.125 -13.328125 C 8.738281 -13.460938 8.21875 -13.53125 7.5625 -13.53125 C 6.914062 -13.53125 6.394531 -13.460938 6 -13.328125 C 5.613281 -13.191406 5.269531 -12.914062 4.96875 -12.5 C 4.664062 -12.082031 4.453125 -11.492188 4.328125 -10.734375 C 4.210938 -9.984375 4.15625 -9.046875 4.15625 -7.921875 C 4.15625 -6.804688 4.195312 -5.90625 4.28125 -5.21875 C 4.375 -4.539062 4.503906 -3.988281 4.671875 -3.5625 C 4.835938 -3.144531 5.066406 -2.820312 5.359375 -2.59375 Z M 5.359375 -2.59375 "/></g></g></g><g fill="#ebebeb" fill-opacity="1"><g transform="translate(282.566228, 291.584923)"><g><path d="M 7.5625 -15.84375 C 11.132812 -15.84375 12.921875 -14.171875 12.921875 -10.828125 C 12.921875 -8.367188 11.835938 -6.835938 9.671875 -6.234375 L 9.671875 -6.125 L 13.3125 0 L 10.25 0 L 7.234375 -5.875 L 4.78125 -5.96875 L 4.78125 0 L 2.15625 0 L 2.265625 -7.296875 L 2.203125 -15.53125 C 3.859375 -15.738281 5.644531 -15.84375 7.5625 -15.84375 Z M 4.765625 -8.1875 C 5.929688 -8.050781 6.957031 -7.984375 7.84375 -7.984375 C 8.726562 -7.984375 9.34375 -8.203125 9.6875 -8.640625 C 10.039062 -9.078125 10.21875 -9.863281 10.21875 -11 C 10.21875 -12.132812 10.035156 -12.90625 9.671875 -13.3125 C 9.367188 -13.632812 8.726562 -13.796875 7.75 -13.796875 C 6.78125 -13.796875 5.789062 -13.726562 4.78125 -13.59375 Z M 4.765625 -8.1875 "/></g></g></g><g fill="#ebebeb" fill-opacity="1"><g transform="translate(308.282977, 291.584923)"><g><path d="M 2.15625 0 L 2.15625 -15.546875 L 10.5625 -15.546875 L 10.5625 -13.28125 L 4.765625 -13.34375 L 4.65625 -8.984375 L 10.015625 -8.984375 L 10.015625 -6.78125 L 4.65625 -6.78125 L 4.765625 -2.21875 L 10.5625 -2.265625 L 10.5625 0 Z M 2.15625 0 "/></g></g></g></svg>