<?xml version="1.0" encoding="UTF-8"?>
<!DOCTYPE svg PUBLIC "-//W3C//DTD SVG 1.1//EN" "http://www.w3.org/Graphics/SVG/1.1/DTD/svg11.dtd">
<svg xmlns="http://www.w3.org/2000/svg" version="1.1" width="500px" height="500px" style="shape-rendering:geometricPrecision; text-rendering:geometricPrecision; image-rendering:optimizeQuality; fill-rule:evenodd; clip-rule:evenodd" xmlns:xlink="http://www.w3.org/1999/xlink">
<g><path style="opacity:1" fill="#fefefe" d="M -0.5,-0.5 C 166.167,-0.5 332.833,-0.5 499.5,-0.5C 499.5,166.167 499.5,332.833 499.5,499.5C 332.833,499.5 166.167,499.5 -0.5,499.5C -0.5,332.833 -0.5,166.167 -0.5,-0.5 Z"/></g>
<g><path style="opacity:1" fill="#e96557" d="M 347.5,133.5 C 357.204,132.591 365.871,135.091 373.5,141C 382.428,149.035 389.261,158.535 394,169.5C 394.494,171.134 394.66,172.801 394.5,174.5C 402.098,174.334 404.931,178.001 403,185.5C 399.965,188.87 396.632,191.87 393,194.5C 391.496,197.684 389.996,200.851 388.5,204C 379.427,206.739 373.26,212.573 370,221.5C 366.386,223.482 362.886,225.649 359.5,228C 369.776,241.433 373.276,256.599 370,273.5C 367.991,285.885 365.658,298.218 363,310.5C 361.61,314.947 359.444,318.947 356.5,322.5C 361.669,330.874 360.003,337.374 351.5,342C 346.934,341.075 342.267,340.741 337.5,341C 333.167,344 328.833,347 324.5,350C 317.845,349.78 311.178,349.78 304.5,350C 299.157,352.006 293.823,354.006 288.5,356C 285.5,356.667 282.5,356.667 279.5,356C 274.375,353.754 269.042,353.087 263.5,354C 260.446,356.194 257.112,357.861 253.5,359C 245.44,359.311 237.44,358.978 229.5,358C 224.393,361.136 218.893,363.303 213,364.5C 208.127,363.314 203.294,361.98 198.5,360.5C 194.626,361.435 190.96,362.935 187.5,365C 182.375,366.569 178.541,365.069 176,360.5C 175.333,356.833 175.333,353.167 176,349.5C 176.5,349 177,348.5 177.5,348C 162.16,333.152 150.994,315.652 144,295.5C 142.78,288.867 142.447,282.2 143,275.5C 144.345,269.119 145.845,262.785 147.5,256.5C 143.869,256.84 140.536,256.006 137.5,254C 134.833,250 131.5,246.667 127.5,244C 123.427,243.212 119.427,242.212 115.5,241C 113.286,238.075 110.953,235.241 108.5,232.5C 103.285,230.823 99.1184,227.823 96,223.5C 94.563,218.424 96.3963,215.091 101.5,213.5C 103.537,200.09 108.37,187.757 116,176.5C 125.094,165.135 136.761,161.135 151,164.5C 153.311,162.864 155.645,161.197 158,159.5C 159.225,159.862 160.391,160.362 161.5,161C 167.461,181.55 176.128,200.884 187.5,219C 230.592,219.862 272.592,213.696 313.5,200.5C 316.317,189.521 319.15,178.521 322,167.5C 323.884,157.593 324.884,147.593 325,137.5C 328.46,133.554 331.96,133.554 335.5,137.5C 339.565,136.033 343.565,134.7 347.5,133.5 Z"/></g>
<g><path style="opacity:1" fill="#d1554a" d="M 333.5,140.5 C 334.158,141.398 334.824,142.398 335.5,143.5C 344.689,140.552 353.689,141.052 362.5,145C 357.422,144.258 352.255,143.758 347,143.5C 343.005,143.353 339.172,144.02 335.5,145.5C 334.808,146.025 334.308,146.692 334,147.5C 333.606,154.896 332.773,162.23 331.5,169.5C 339.341,169.685 347.008,170.852 354.5,173C 346.52,172.354 338.52,171.521 330.5,170.5C 328.801,177.762 326.801,184.929 324.5,192C 329.548,193.512 334.548,195.179 339.5,197C 334.161,196.503 328.828,195.67 323.5,194.5C 323.769,196.429 323.269,198.095 322,199.5C 323.216,189.633 325.55,179.966 329,170.5C 330.992,160.565 332.492,150.565 333.5,140.5 Z"/></g>
<g><path style="opacity:1" fill="#d1554a" d="M 153.5,168.5 C 160.653,185.141 168.653,201.474 177.5,217.5C 177.154,218.696 176.654,218.696 176,217.5C 174.333,214.833 172.667,212.167 171,209.5C 167.89,210.673 167.723,210.173 170.5,208C 168.039,203.579 165.706,199.079 163.5,194.5C 157.564,193.638 152.064,194.971 147,198.5C 146.833,198.167 146.667,197.833 146.5,197.5C 151.024,194.325 156.024,192.325 161.5,191.5C 159.528,184.403 156.695,177.736 153,171.5C 147.474,172.926 141.974,174.093 136.5,175C 142.38,172.762 148.047,170.596 153.5,168.5 Z"/></g>
<g><path style="opacity:1" fill="#d0544a" d="M 375.5,156.5 C 375.897,155.475 376.563,155.308 377.5,156C 383.98,162.325 388.646,169.825 391.5,178.5C 389.523,185.974 386.023,192.641 381,198.5C 372.45,206.851 363.617,214.851 354.5,222.5C 356.264,219.178 358.93,216.011 362.5,213C 360.167,209.333 357.167,206.333 353.5,204C 358.075,205.217 361.575,208.05 364,212.5C 370.348,206.319 376.515,199.986 382.5,193.5C 378.588,188.536 373.588,185.036 367.5,183C 373.837,183.956 379.337,186.789 384,191.5C 385.92,188.661 387.587,185.661 389,182.5C 387.959,172.086 383.459,163.419 375.5,156.5 Z"/></g>
<g><path style="opacity:1" fill="#d0544a" d="M 319.5,204.5 C 321.842,204.775 321.842,205.608 319.5,207C 315.326,209.588 310.993,211.921 306.5,214C 311.134,217.632 315.467,221.632 319.5,226C 319.167,226.167 318.833,226.333 318.5,226.5C 314.093,221.92 309.259,217.92 304,214.5C 296.041,217.365 287.874,219.365 279.5,220.5C 280.135,223.493 280.301,226.493 280,229.5C 278.921,226.937 278.421,224.271 278.5,221.5C 269.19,222.997 259.857,224.33 250.5,225.5C 250.397,231.861 249.897,238.194 249,244.5C 248.406,238.144 248.573,231.811 249.5,225.5C 239.556,226.913 229.556,227.58 219.5,227.5C 219.158,233.566 218.325,239.566 217,245.5C 217.03,239.852 217.197,234.185 217.5,228.5C 207.478,228.168 197.478,228.501 187.5,229.5C 184.529,234.303 181.362,238.97 178,243.5C 180.047,238.229 182.88,233.229 186.5,228.5C 185.624,227.749 184.624,227.249 183.5,227C 222.026,227.801 260.026,223.801 297.5,215C 305.563,212.8 312.897,209.3 319.5,204.5 Z"/></g>
<g><path style="opacity:1" fill="#d1554a" d="M 123.5,186.5 C 124.525,186.897 124.692,187.563 124,188.5C 115.195,197.431 110.862,208.098 111,220.5C 114.035,223.87 117.368,226.87 121,229.5C 123.029,222.439 126.363,216.106 131,210.5C 127.973,216.909 125.14,223.576 122.5,230.5C 126.558,233.89 130.891,236.89 135.5,239.5C 137.455,237.488 138.955,235.154 140,232.5C 139.264,235.407 138.93,238.407 139,241.5C 142.95,244.672 147.284,246.005 152,245.5C 154.079,241.007 156.412,236.674 159,232.5C 155.334,240.523 152.168,248.857 149.5,257.5C 148.143,254.473 148.476,251.64 150.5,249C 132.843,241.843 117.843,231.01 105.5,216.5C 106.631,215.396 107.465,215.729 108,217.5C 110.333,205.69 115.499,195.357 123.5,186.5 Z"/></g>
<g><path style="opacity:1" fill="#d0544a" d="M 332.5,295.5 C 333.788,306.112 332.121,316.445 327.5,326.5C 327.833,326.833 328.167,327.167 328.5,327.5C 334.776,325.457 341.109,323.957 347.5,323C 325.307,330.508 302.64,336.175 279.5,340C 259.673,344.365 239.673,347.699 219.5,350C 207.833,350.667 196.167,350.667 184.5,350C 183.833,349.667 183.167,349.333 182.5,349C 185.167,348.667 187.833,348.333 190.5,348C 184.082,341.656 179.915,334.156 178,325.5C 181.833,333.842 186.667,341.508 192.5,348.5C 202.858,349.541 213.191,349.207 223.5,347.5C 220.609,340.05 217.442,332.717 214,325.5C 213.333,324.5 213.333,323.5 214,322.5C 218.07,330.635 221.57,338.969 224.5,347.5C 236.482,345.645 248.482,343.979 260.5,342.5C 259.765,331.249 257.932,320.249 255,309.5C 259.096,319.888 261.929,330.554 263.5,341.5C 273.569,339.42 283.569,337.087 293.5,334.5C 294.311,323.88 294.811,313.213 295,302.5C 296.803,313.142 296.97,323.808 295.5,334.5C 305.5,332.5 315.5,330.5 325.5,328.5C 329.235,317.825 331.569,306.825 332.5,295.5 Z"/></g>
</svg>
