<?xml version="1.0" encoding="UTF-8"?>
<!DOCTYPE svg PUBLIC "-//W3C//DTD SVG 1.1//EN" "http://www.w3.org/Graphics/SVG/1.1/DTD/svg11.dtd">
<svg xmlns="http://www.w3.org/2000/svg" version="1.1" width="500px" height="500px" style="shape-rendering:geometricPrecision; text-rendering:geometricPrecision; image-rendering:optimizeQuality; fill-rule:evenodd; clip-rule:evenodd" xmlns:xlink="http://www.w3.org/1999/xlink">
<g><path style="opacity:1" fill="#fefefe" d="M -0.5,-0.5 C 166.167,-0.5 332.833,-0.5 499.5,-0.5C 499.5,166.167 499.5,332.833 499.5,499.5C 332.833,499.5 166.167,499.5 -0.5,499.5C -0.5,332.833 -0.5,166.167 -0.5,-0.5 Z"/></g>
<g><path style="opacity:1" fill="#45433f" d="M 310.5,82.5 C 308.485,83.9238 306.152,84.5905 303.5,84.5C 298.544,83.1718 293.211,82.5051 287.5,82.5C 281.989,82.5006 276.656,82.8339 271.5,83.5C 248.108,82.9344 224.774,83.7677 201.5,86C 209.095,87.3561 216.762,87.8561 224.5,87.5C 224.5,87.8333 224.5,88.1667 224.5,88.5C 223.662,88.8417 223.328,89.5084 223.5,90.5C 222.833,90.1667 222.167,89.8333 221.5,89.5C 212.642,88.7674 203.642,87.934 194.5,87C 193.244,86.5831 192.577,85.7498 192.5,84.5C 196.319,83.019 200.319,82.1856 204.5,82C 238.155,80.5528 271.822,80.2195 305.5,81C 307.247,81.3519 308.914,81.8519 310.5,82.5 Z"/></g>
<g><path style="opacity:1" fill="#a18f57" d="M 271.5,83.5 C 281.506,83.3335 291.506,83.5002 301.5,84C 294.178,84.9987 286.844,85.832 279.5,86.5C 278.041,86.4326 276.708,86.7659 275.5,87.5C 265.833,86.1667 256.167,86.1667 246.5,87.5C 238.971,87.2256 231.638,87.2256 224.5,87.5C 216.762,87.8561 209.095,87.3561 201.5,86C 224.774,83.7677 248.108,82.9344 271.5,83.5 Z"/></g>
<g><path style="opacity:1" fill="#c0b49b" d="M 310.5,82.5 C 311.477,85.2869 311.81,88.2869 311.5,91.5C 302.306,95.4273 292.64,97.7607 282.5,98.5C 282.211,94.8936 282.544,91.3936 283.5,88C 290.349,87.1006 297.015,85.9339 303.5,84.5C 306.152,84.5905 308.485,83.9238 310.5,82.5 Z"/></g>
<g><path style="opacity:1" fill="#bfb29a" d="M 192.5,84.5 C 192.577,85.7498 193.244,86.5831 194.5,87C 203.642,87.934 212.642,88.7674 221.5,89.5C 221.5,93.1667 221.5,96.8333 221.5,100.5C 210.961,100.353 200.628,99.0194 190.5,96.5C 190.198,92.2095 190.864,88.2095 192.5,84.5 Z"/></g>
<g><path style="opacity:1" fill="#beb299" d="M 279.5,86.5 C 280.452,92.0748 280.786,97.7414 280.5,103.5C 278.833,103.5 277.167,103.5 275.5,103.5C 275.5,98.1667 275.5,92.8333 275.5,87.5C 276.708,86.7659 278.041,86.4326 279.5,86.5 Z"/></g>
<g><path style="opacity:1" fill="#bfb29a" d="M 224.5,88.5 C 225.833,88.5 227.167,88.5 228.5,88.5C 227.866,94.1448 227.532,99.8114 227.5,105.5C 226.167,105.5 224.833,105.5 223.5,105.5C 222.491,100.527 222.491,95.5269 223.5,90.5C 223.328,89.5084 223.662,88.8417 224.5,88.5 Z"/></g>
<g><path style="opacity:1" fill="#bfb29a" d="M 247.5,88.5 C 256.167,88.5 264.833,88.5 273.5,88.5C 274.244,92.1185 274.577,95.7852 274.5,99.5C 265.651,99.8264 256.984,99.493 248.5,98.5C 247.793,95.2139 247.46,91.8806 247.5,88.5 Z"/></g>
<g><path style="opacity:1" fill="#c1b49c" d="M 247.5,98.5 C 247.5,99.1667 247.167,99.5 246.5,99.5C 240.833,99.5 235.167,99.5 229.5,99.5C 229.46,96.1194 229.793,92.7861 230.5,89.5C 235.833,89.5 241.167,89.5 246.5,89.5C 246.19,92.7131 246.523,95.7131 247.5,98.5 Z"/></g>
<g><path style="opacity:1" fill="#48453f" d="M 252.5,91.5 C 254.167,91.5 255.833,91.5 257.5,91.5C 257.829,97.9363 255.829,98.9363 251.5,94.5C 252.127,93.5832 252.461,92.5832 252.5,91.5 Z"/></g>
<g><path style="opacity:1" fill="#5b5649" d="M 246.5,87.5 C 246.5,88.1667 246.833,88.5 247.5,88.5C 247.46,91.8806 247.793,95.2139 248.5,98.5C 248.167,98.5 247.833,98.5 247.5,98.5C 246.523,95.7131 246.19,92.7131 246.5,89.5C 241.167,89.5 235.833,89.5 230.5,89.5C 229.793,92.7861 229.46,96.1194 229.5,99.5C 235.167,99.5 240.833,99.5 246.5,99.5C 240.258,100.126 234.592,100.793 229.5,101.5C 230.175,107.245 227.841,108.911 222.5,106.5C 221.571,105.311 221.238,103.978 221.5,102.5C 215.119,102.006 208.785,102.006 202.5,102.5C 201.956,106.406 200.956,110.073 199.5,113.5C 200.283,109.854 200.45,106.188 200,102.5C 199.461,105.529 198.794,108.529 198,111.5C 197.617,112.056 197.117,112.389 196.5,112.5C 197.112,108.55 198.112,104.717 199.5,101C 196.092,100.343 193.092,99.1767 190.5,97.5C 190.5,97.1667 190.5,96.8333 190.5,96.5C 200.628,99.0194 210.961,100.353 221.5,100.5C 221.5,96.8333 221.5,93.1667 221.5,89.5C 222.167,89.8333 222.833,90.1667 223.5,90.5C 222.491,95.5269 222.491,100.527 223.5,105.5C 224.833,105.5 226.167,105.5 227.5,105.5C 227.532,99.8114 227.866,94.1448 228.5,88.5C 227.167,88.5 225.833,88.5 224.5,88.5C 224.5,88.1667 224.5,87.8333 224.5,87.5C 231.638,87.2256 238.971,87.2256 246.5,87.5 Z"/></g>
<g><path style="opacity:1" fill="#c2b59d" d="M 311.5,93.5 C 313.721,106.04 314.721,118.707 314.5,131.5C 309.014,120.724 304.681,109.391 301.5,97.5C 304.853,96.1644 308.187,94.831 311.5,93.5 Z"/></g>
<g><path style="opacity:1" fill="#c2b59d" d="M 314.5,136.5 C 316.094,150.307 317.094,164.307 317.5,178.5C 312.533,168.571 307.033,158.904 301,149.5C 300.833,149.833 300.667,150.167 300.5,150.5C 305.955,161.087 311.622,171.421 317.5,181.5C 317.5,192.167 317.5,202.833 317.5,213.5C 315.108,209.722 312.941,205.722 311,201.5C 307.729,191.689 304.063,182.022 300,172.5C 303.356,187.251 307.356,201.918 312,216.5C 313.139,219.823 314.973,222.49 317.5,224.5C 318.034,260.164 318.368,295.831 318.5,331.5C 316.318,335.353 313.984,339.186 311.5,343C 312.332,343.688 312.998,343.521 313.5,342.5C 315.192,339.769 316.858,337.102 318.5,334.5C 319.657,337.307 319.657,339.974 318.5,342.5C 318.66,340.801 318.494,339.134 318,337.5C 315.545,346.578 311.378,354.744 305.5,362C 302.167,362.333 298.833,362.667 295.5,363C 299.186,365.958 303.186,366.291 307.5,364C 311.321,357.519 314.987,351.019 318.5,344.5C 318.5,364.167 318.5,383.833 318.5,403.5C 301.624,411.678 284.124,413.678 266,409.5C 263.675,356.794 260.842,304.127 257.5,251.5C 257.5,245.833 257.5,240.167 257.5,234.5C 258.481,212.701 255.814,191.368 249.5,170.5C 248.675,169.614 247.675,169.281 246.5,169.5C 244.527,196.813 242.861,224.146 241.5,251.5C 239.3,276.632 237.967,301.965 237.5,327.5C 236.654,354.157 236.321,380.824 236.5,407.5C 219.952,411.945 203.619,411.278 187.5,405.5C 192.608,408.701 198.275,410.535 204.5,411C 214.935,411.968 225.268,411.468 235.5,409.5C 235.5,410.833 235.5,412.167 235.5,413.5C 216.702,421.02 198.536,419.353 181,408.5C 180.5,380.502 180.333,352.502 180.5,324.5C 183.558,330.288 186.392,336.288 189,342.5C 191.458,347.253 194.292,351.753 197.5,356C 202.985,358.466 207.985,357.799 212.5,354C 208.5,353.667 204.5,353.333 200.5,353C 194.882,346.938 190.382,340.104 187,332.5C 184.821,327.056 182.654,321.722 180.5,316.5C 181.483,256.476 183.15,196.476 185.5,136.5C 186.239,136.369 186.906,136.536 187.5,137C 186.549,137.718 186.383,138.551 187,139.5C 188.765,136.968 190.265,134.301 191.5,131.5C 195.233,126.03 197.899,120.03 199.5,113.5C 200.956,110.073 201.956,106.406 202.5,102.5C 208.785,102.006 215.119,102.006 221.5,102.5C 221.238,103.978 221.571,105.311 222.5,106.5C 227.841,108.911 230.175,107.245 229.5,101.5C 235.5,101.5 241.5,101.5 247.5,101.5C 247.5,105.833 247.5,110.167 247.5,114.5C 246.662,114.842 246.328,115.508 246.5,116.5C 245.167,129.84 245.333,143.173 247,156.5C 248.044,155.377 248.71,154.044 249,152.5C 257.261,147.908 260.428,140.908 258.5,131.5C 259.493,122.682 259.827,113.682 259.5,104.5C 259.5,103.5 259.5,102.5 259.5,101.5C 264.5,101.5 269.5,101.5 274.5,101.5C 274.5,102.5 274.5,103.5 274.5,104.5C 276.607,105.468 278.941,105.802 281.5,105.5C 281.178,103.278 281.845,101.444 283.5,100C 287.178,99.5819 290.845,99.0819 294.5,98.5C 295.5,98.8333 296.5,99.1667 297.5,99.5C 300.579,113.244 306.079,125.911 314,137.5C 314.399,137.272 314.565,136.938 314.5,136.5 Z"/></g>
<g><path style="opacity:1" fill="#c1b59d" d="M 190.5,97.5 C 193.092,99.1767 196.092,100.343 199.5,101C 198.112,104.717 197.112,108.55 196.5,112.5C 193.594,120.219 189.928,127.552 185.5,134.5C 186.084,124.484 186.918,114.484 188,104.5C 188.698,101.996 189.531,99.663 190.5,97.5 Z"/></g>
<g><path style="opacity:1" fill="#4e4a41" d="M 275.5,87.5 C 275.5,92.8333 275.5,98.1667 275.5,103.5C 275.5,104.167 275.167,104.5 274.5,104.5C 274.5,103.5 274.5,102.5 274.5,101.5C 269.5,101.5 264.5,101.5 259.5,101.5C 259.5,102.5 259.5,103.5 259.5,104.5C 258.833,104.5 258.5,104.167 258.5,103.5C 257.306,102.223 255.64,101.556 253.5,101.5C 251.833,101.833 250.167,102.167 248.5,102.5C 249.59,106.807 249.59,111.14 248.5,115.5C 247.833,115.5 247.5,115.167 247.5,114.5C 247.5,110.167 247.5,105.833 247.5,101.5C 241.5,101.5 235.5,101.5 229.5,101.5C 234.592,100.793 240.258,100.126 246.5,99.5C 247.167,99.5 247.5,99.1667 247.5,98.5C 247.833,98.5 248.167,98.5 248.5,98.5C 256.984,99.493 265.651,99.8264 274.5,99.5C 274.577,95.7852 274.244,92.1185 273.5,88.5C 264.833,88.5 256.167,88.5 247.5,88.5C 246.833,88.5 246.5,88.1667 246.5,87.5C 256.167,86.1667 265.833,86.1667 275.5,87.5 Z"/></g>
<g><path style="opacity:1" fill="#c1b49c" d="M 258.5,103.5 C 257.539,105.265 257.205,107.265 257.5,109.5C 257.887,121.221 257.387,132.887 256,144.5C 254.074,146.539 251.907,148.206 249.5,149.5C 248.505,138.346 248.172,127.012 248.5,115.5C 249.59,111.14 249.59,106.807 248.5,102.5C 250.167,102.167 251.833,101.833 253.5,101.5C 255.64,101.556 257.306,102.223 258.5,103.5 Z"/></g>
<g><path style="opacity:1" fill="#585347" d="M 271.5,83.5 C 276.656,82.8339 281.989,82.5006 287.5,82.5C 293.211,82.5051 298.544,83.1718 303.5,84.5C 297.015,85.9339 290.349,87.1006 283.5,88C 282.544,91.3936 282.211,94.8936 282.5,98.5C 292.64,97.7607 302.306,95.4273 311.5,91.5C 311.5,92.1667 311.5,92.8333 311.5,93.5C 308.187,94.831 304.853,96.1644 301.5,97.5C 304.681,109.391 309.014,120.724 314.5,131.5C 314.5,133.167 314.5,134.833 314.5,136.5C 314.565,136.938 314.399,137.272 314,137.5C 306.079,125.911 300.579,113.244 297.5,99.5C 296.5,99.1667 295.5,98.8333 294.5,98.5C 290.845,99.0819 287.178,99.5819 283.5,100C 281.845,101.444 281.178,103.278 281.5,105.5C 278.941,105.802 276.607,105.468 274.5,104.5C 275.167,104.5 275.5,104.167 275.5,103.5C 277.167,103.5 278.833,103.5 280.5,103.5C 280.786,97.7414 280.452,92.0748 279.5,86.5C 286.844,85.832 294.178,84.9987 301.5,84C 291.506,83.5002 281.506,83.3335 271.5,83.5 Z"/></g>
<g><path style="opacity:1" fill="#b2a68e" d="M 298.5,97.5 C 299.586,97.62 300.253,98.2867 300.5,99.5C 303.336,107.831 305.836,116.165 308,124.5C 303.935,115.805 300.769,106.805 298.5,97.5 Z"/></g>
<g><path style="opacity:1" fill="#90866d" d="M 258.5,103.5 C 258.5,104.167 258.833,104.5 259.5,104.5C 259.827,113.682 259.493,122.682 258.5,131.5C 258.825,123.981 258.492,116.648 257.5,109.5C 257.205,107.265 257.539,105.265 258.5,103.5 Z"/></g>
<g><path style="opacity:1" fill="#413f3b" d="M 257.5,109.5 C 258.492,116.648 258.825,123.981 258.5,131.5C 260.428,140.908 257.261,147.908 249,152.5C 248.71,154.044 248.044,155.377 247,156.5C 245.333,143.173 245.167,129.84 246.5,116.5C 247.167,127.674 247.833,139.007 248.5,150.5C 249.107,150.376 249.44,150.043 249.5,149.5C 251.907,148.206 254.074,146.539 256,144.5C 257.387,132.887 257.887,121.221 257.5,109.5 Z"/></g>
<g><path style="opacity:1" fill="#45423d" d="M 227.5,194.5 C 226.549,193.081 226.216,191.415 226.5,189.5C 228.241,167.474 230.408,145.474 233,123.5C 233.14,120.957 233.806,118.623 235,116.5C 235.667,124.5 235.667,132.5 235,140.5C 232.172,158.46 229.672,176.46 227.5,194.5 Z"/></g>
<g><path style="opacity:1" fill="#958c77" d="M 199.5,113.5 C 197.899,120.03 195.233,126.03 191.5,131.5C 191.196,130.85 190.863,130.183 190.5,129.5C 193.367,124.107 195.367,118.44 196.5,112.5C 197.117,112.389 197.617,112.056 198,111.5C 198.794,108.529 199.461,105.529 200,102.5C 200.45,106.188 200.283,109.854 199.5,113.5 Z"/></g>
<g><path style="opacity:1" fill="#5c574b" d="M 196.5,112.5 C 195.367,118.44 193.367,124.107 190.5,129.5C 190.863,130.183 191.196,130.85 191.5,131.5C 190.265,134.301 188.765,136.968 187,139.5C 186.383,138.551 186.549,137.718 187.5,137C 186.906,136.536 186.239,136.369 185.5,136.5C 185.5,135.833 185.5,135.167 185.5,134.5C 189.928,127.552 193.594,120.219 196.5,112.5 Z"/></g>
<g><path style="opacity:1" fill="#7d7560" d="M 247.5,114.5 C 247.5,115.167 247.833,115.5 248.5,115.5C 248.172,127.012 248.505,138.346 249.5,149.5C 249.44,150.043 249.107,150.376 248.5,150.5C 247.833,139.007 247.167,127.674 246.5,116.5C 246.328,115.508 246.662,114.842 247.5,114.5 Z"/></g>
<g><path style="opacity:1" fill="#504c43" d="M 317.5,178.5 C 317.5,179.5 317.5,180.5 317.5,181.5C 311.622,171.421 305.955,161.087 300.5,150.5C 300.667,150.167 300.833,149.833 301,149.5C 307.033,158.904 312.533,168.571 317.5,178.5 Z"/></g>
<g><path style="opacity:1" fill="#46433e" d="M 257.5,234.5 C 256.833,239.167 256.167,243.833 255.5,248.5C 255.667,234.829 255.5,221.163 255,207.5C 254.581,203.608 253.748,199.942 252.5,196.5C 252.205,192.772 251.539,189.105 250.5,185.5C 249.719,186.729 249.219,188.062 249,189.5C 246.874,209.109 245.707,228.776 245.5,248.5C 244.674,244.018 244.174,239.351 244,234.5C 243.292,244.159 242.792,253.826 242.5,263.5C 241.517,259.702 241.183,255.702 241.5,251.5C 242.861,224.146 244.527,196.813 246.5,169.5C 247.675,169.281 248.675,169.614 249.5,170.5C 255.814,191.368 258.481,212.701 257.5,234.5 Z"/></g>
<g><path style="opacity:1" fill="#45433f" d="M 317.5,213.5 C 317.5,217.167 317.5,220.833 317.5,224.5C 314.973,222.49 313.139,219.823 312,216.5C 307.356,201.918 303.356,187.251 300,172.5C 304.063,182.022 307.729,191.689 311,201.5C 312.941,205.722 315.108,209.722 317.5,213.5 Z"/></g>
<g><path style="opacity:1" fill="#6c6554" d="M 226.5,189.5 C 226.216,191.415 226.549,193.081 227.5,194.5C 225.404,209.454 223.571,224.454 222,239.5C 222.258,222.598 223.758,205.931 226.5,189.5 Z"/></g>
<g><path style="opacity:1" fill="#79715c" d="M 257.5,234.5 C 257.5,240.167 257.5,245.833 257.5,251.5C 256.51,257.645 256.177,263.978 256.5,270.5C 255.508,263.352 255.175,256.019 255.5,248.5C 256.167,243.833 256.833,239.167 257.5,234.5 Z"/></g>
<g><path style="opacity:1" fill="#c3b69e" d="M 245.5,248.5 C 243.605,300.997 241.271,353.331 238.5,405.5C 238.5,381.5 238.5,357.5 238.5,333.5C 239.657,310.311 240.99,286.978 242.5,263.5C 242.792,253.826 243.292,244.159 244,234.5C 244.174,239.351 244.674,244.018 245.5,248.5 Z"/></g>
<g><path style="opacity:1" fill="#c3b79f" d="M 252.5,196.5 C 253.748,199.942 254.581,203.608 255,207.5C 255.5,221.163 255.667,234.829 255.5,248.5C 255.175,256.019 255.508,263.352 256.5,270.5C 260.365,316.453 262.365,362.453 262.5,408.5C 261.583,407.873 260.583,407.539 259.5,407.5C 257.502,337.201 255.168,266.867 252.5,196.5 Z"/></g>
<g><path style="opacity:1" fill="#5c5748" d="M 241.5,251.5 C 241.183,255.702 241.517,259.702 242.5,263.5C 240.99,286.978 239.657,310.311 238.5,333.5C 238.795,331.265 238.461,329.265 237.5,327.5C 237.967,301.965 239.3,276.632 241.5,251.5 Z"/></g>
<g><path style="opacity:1" fill="#46433e" d="M 180.5,316.5 C 182.654,321.722 184.821,327.056 187,332.5C 190.382,340.104 194.882,346.938 200.5,353C 204.5,353.333 208.5,353.667 212.5,354C 207.985,357.799 202.985,358.466 197.5,356C 194.292,351.753 191.458,347.253 189,342.5C 186.392,336.288 183.558,330.288 180.5,324.5C 180.5,321.833 180.5,319.167 180.5,316.5 Z"/></g>
<g><path style="opacity:1" fill="#524d43" d="M 182.5,312.5 C 186.735,321.254 192.735,328.754 200.5,335C 191.468,330.113 185.468,322.613 182.5,312.5 Z"/></g>
<g><path style="opacity:1" fill="#43413c" d="M 237.5,327.5 C 238.461,329.265 238.795,331.265 238.5,333.5C 238.5,357.5 238.5,381.5 238.5,405.5C 239.172,408.942 238.172,411.609 235.5,413.5C 235.5,412.167 235.5,410.833 235.5,409.5C 225.268,411.468 214.935,411.968 204.5,411C 198.275,410.535 192.608,408.701 187.5,405.5C 203.619,411.278 219.952,411.945 236.5,407.5C 236.321,380.824 236.654,354.157 237.5,327.5 Z"/></g>
<g><path style="opacity:1" fill="#6f6858" d="M 318.5,331.5 C 318.5,332.5 318.5,333.5 318.5,334.5C 316.858,337.102 315.192,339.769 313.5,342.5C 312.998,343.521 312.332,343.688 311.5,343C 313.984,339.186 316.318,335.353 318.5,331.5 Z"/></g>
<g><path style="opacity:1" fill="#47443e" d="M 318.5,342.5 C 318.5,343.167 318.5,343.833 318.5,344.5C 314.987,351.019 311.321,357.519 307.5,364C 303.186,366.291 299.186,365.958 295.5,363C 298.833,362.667 302.167,362.333 305.5,362C 311.378,354.744 315.545,346.578 318,337.5C 318.494,339.134 318.66,340.801 318.5,342.5 Z"/></g>
<g><path style="opacity:1" fill="#4e4b42" d="M 257.5,251.5 C 260.842,304.127 263.675,356.794 266,409.5C 284.124,413.678 301.624,411.678 318.5,403.5C 318.5,403.833 318.5,404.167 318.5,404.5C 310.68,409.606 302.013,412.44 292.5,413C 283.413,413.829 274.413,413.329 265.5,411.5C 265.5,413.167 265.5,414.833 265.5,416.5C 264.833,416.167 264.167,415.833 263.5,415.5C 264.031,412.112 262.697,410.112 259.5,409.5C 259.5,408.833 259.5,408.167 259.5,407.5C 260.583,407.539 261.583,407.873 262.5,408.5C 262.365,362.453 260.365,316.453 256.5,270.5C 256.177,263.978 256.51,257.645 257.5,251.5 Z"/></g>
<g><path style="opacity:1" fill="#635d4d" d="M 187.5,405.5 C 185.158,405.496 183.158,404.663 181.5,403C 183.821,402.992 185.821,403.825 187.5,405.5 Z"/></g>
<g><path style="opacity:1" fill="#c0b39b" d="M 318.5,404.5 C 318.919,407.325 317.919,409.491 315.5,411C 299.665,420.193 282.998,422.026 265.5,416.5C 265.5,414.833 265.5,413.167 265.5,411.5C 274.413,413.329 283.413,413.829 292.5,413C 302.013,412.44 310.68,409.606 318.5,404.5 Z"/></g>
<g><path style="opacity:1" fill="#c3b69d" d="M 259.5,409.5 C 262.697,410.112 264.031,412.112 263.5,415.5C 260.956,414.292 259.622,412.292 259.5,409.5 Z"/></g>
</svg>
