<?xml version="1.0" encoding="UTF-8"?>
<!DOCTYPE svg PUBLIC "-//W3C//DTD SVG 1.1//EN" "http://www.w3.org/Graphics/SVG/1.1/DTD/svg11.dtd">
<svg xmlns="http://www.w3.org/2000/svg" version="1.1" width="500px" height="500px" style="shape-rendering:geometricPrecision; text-rendering:geometricPrecision; image-rendering:optimizeQuality; fill-rule:evenodd; clip-rule:evenodd" xmlns:xlink="http://www.w3.org/1999/xlink">
<g><path style="opacity:1" fill="#fefefe" d="M -0.5,-0.5 C 166.167,-0.5 332.833,-0.5 499.5,-0.5C 499.5,166.167 499.5,332.833 499.5,499.5C 332.833,499.5 166.167,499.5 -0.5,499.5C -0.5,332.833 -0.5,166.167 -0.5,-0.5 Z"/></g>
<g><path style="opacity:1" fill="#a7a9ac" d="M 295.5,108.5 C 284.31,136.099 263.977,146.932 234.5,141C 219.315,134.798 208.982,123.965 203.5,108.5C 205.22,104.45 208.22,101.783 212.5,100.5C 237.141,108.355 261.808,108.355 286.5,100.5C 290.78,101.783 293.78,104.45 295.5,108.5 Z"/></g>
<g><path style="opacity:1" fill="#cfd1d2" d="M 203.5,108.5 C 208.982,123.965 219.315,134.798 234.5,141C 263.977,146.932 284.31,136.099 295.5,108.5C 314.199,118.936 333.032,129.269 352,139.5C 362.516,163.878 372.349,188.545 381.5,213.5C 366.492,224.085 349.826,229.085 331.5,228.5C 330.722,225.461 329.388,222.794 327.5,220.5C 326.23,222.757 326.564,224.757 328.5,226.5C 327.171,231.624 326.505,237.124 326.5,243C 328.193,288.87 330.526,334.703 333.5,380.5C 332.844,381.278 332.011,381.944 331,382.5C 293.313,391.097 255.146,393.931 216.5,391C 199.291,389.605 182.457,386.438 166,381.5C 165.506,383.134 165.34,384.801 165.5,386.5C 167.749,338.205 170.082,289.705 172.5,241C 172.333,236.5 172.167,232 172,227.5C 171.617,226.944 171.117,226.611 170.5,226.5C 172.565,224.102 172.898,221.435 171.5,218.5C 169.871,222.085 168.538,225.752 167.5,229.5C 148.844,229.177 131.844,223.844 116.5,213.5C 126.393,188.715 136.56,164.048 147,139.5C 165.904,129.298 184.738,118.965 203.5,108.5 Z"/></g>
<g><path style="opacity:1" fill="#ced0d1" d="M 213.5,113.5 C 213.735,112.903 214.235,112.57 215,112.5C 226.122,115.479 237.456,116.813 249,116.5C 261.334,116.425 273.501,115.258 285.5,113C 271.862,132.546 253.862,138.213 231.5,130C 228.167,127.667 224.833,125.333 221.5,123C 218.969,119.642 216.302,116.476 213.5,113.5 Z"/></g>
<g><path style="opacity:1" fill="#a9abad" d="M 152.5,137.5 C 170.839,158.843 177.672,183.51 173,211.5C 172.958,184.884 166.125,160.217 152.5,137.5 Z"/></g>
<g><path style="opacity:1" fill="#a8aaad" d="M 345.5,137.5 C 346.043,137.56 346.376,137.893 346.5,138.5C 332.514,161.101 325.681,185.768 326,212.5C 321.327,184.537 327.827,159.537 345.5,137.5 Z"/></g>
<g><path style="opacity:1" fill="#a9abae" d="M 116.5,213.5 C 131.844,223.844 148.844,229.177 167.5,229.5C 168.538,225.752 169.871,222.085 171.5,218.5C 172.898,221.435 172.565,224.102 170.5,226.5C 169.851,229.945 168.518,233.111 166.5,236C 148.234,235.689 131.734,230.189 117,219.5C 116.505,217.527 116.338,215.527 116.5,213.5 Z"/></g>
<g><path style="opacity:1" fill="#a9aaad" d="M 381.5,213.5 C 382.754,215.357 382.754,217.357 381.5,219.5C 366.793,229.902 350.46,235.402 332.5,236C 330.491,233.146 329.158,229.979 328.5,226.5C 326.564,224.757 326.23,222.757 327.5,220.5C 329.388,222.794 330.722,225.461 331.5,228.5C 349.826,229.085 366.492,224.085 381.5,213.5 Z"/></g>
<g><path style="opacity:1" fill="#a9abad" d="M 333.5,380.5 C 333.663,382.857 333.497,385.19 333,387.5C 321.832,391.336 310.332,393.836 298.5,395C 254.78,400.981 211.446,398.981 168.5,389C 167.058,388.623 166.058,387.79 165.5,386.5C 165.34,384.801 165.506,383.134 166,381.5C 182.457,386.438 199.291,389.605 216.5,391C 255.146,393.931 293.313,391.097 331,382.5C 332.011,381.944 332.844,381.278 333.5,380.5 Z"/></g>
</svg>
