<?xml version="1.0" standalone="no"?>
<!DOCTYPE svg PUBLIC "-//W3C//DTD SVG 20010904//EN"
 "http://www.w3.org/TR/2001/REC-SVG-20010904/DTD/svg10.dtd">
<svg version="1.0" xmlns="http://www.w3.org/2000/svg"
 width="1083.000000pt" height="227.000000pt" viewBox="0 0 1083.000000 227.000000"
 preserveAspectRatio="xMidYMid meet">

<g transform="translate(0.000000,227.000000) scale(0.100000,-0.100000)"
fill="#000000" stroke="none">
<path d="M0 1135 l0 -1135 2060 0 c2023 0 2060 0 2060 19 0 19 -11 19 -401 14
l-400 -6 3 184 c3 182 3 184 26 187 26 4 42 -25 21 -39 -10 -6 -10 -9 -1 -9 6
0 12 -7 12 -15 0 -8 7 -15 15 -15 11 0 15 12 15 45 0 32 4 45 14 45 28 0 37
-69 9 -71 -10 -1 -2 -5 17 -9 19 -3 125 -8 235 -9 l200 -2 -45 46 c-25 26 -61
56 -80 67 -19 12 -45 30 -57 41 -12 10 -26 16 -32 12 -6 -3 -11 -3 -11 2 0 4
-59 8 -131 8 -110 0 -132 -3 -140 -16 -6 -12 -4 -21 6 -29 8 -7 15 -15 15 -19
0 -11 -68 -12 -75 -1 -3 5 -2 10 4 10 12 0 41 28 41 41 0 5 -13 9 -30 9 -30 0
-42 21 -20 35 7 4 6 13 -1 26 -12 23 -2 132 12 123 15 -9 10 13 -6 26 -16 14
-21 95 -6 104 5 4 17 3 26 0 13 -5 16 -17 13 -55 l-3 -49 49 0 c45 0 52 3 85
42 71 82 72 78 -16 78 -73 0 -76 -1 -55 -16 26 -18 30 -39 6 -30 -14 5 -15 4
-4 -9 7 -8 15 -13 19 -11 4 3 7 -4 7 -15 0 -14 -7 -19 -29 -19 -23 0 -28 4
-27 23 6 67 2 76 -37 79 l-38 3 -3 188 c-3 121 0 187 6 187 31 0 42 -14 42
-51 0 -28 4 -39 15 -39 10 0 15 10 15 34 0 40 8 66 22 66 5 0 6 -4 3 -10 -3
-5 -1 -10 5 -10 7 0 8 -6 2 -16 -5 -9 -7 -25 -5 -35 4 -15 15 -19 53 -19 43 0
49 3 52 23 3 21 6 22 128 22 160 0 157 0 175 35 l16 30 -43 2 c-24 1 -52 1
-63 1 -158 -7 -335 -10 -339 -6 -3 3 7 29 22 59 20 42 30 53 44 48 52 -16 96
-13 117 10 l21 22 -20 22 c-20 21 -42 27 -87 23 -20 -1 -22 1 -14 23 6 13 22
47 36 75 l27 51 294 0 295 0 57 30 c31 16 64 34 72 40 11 8 -83 9 -331 4 -234
-5 -348 -4 -352 3 -7 10 28 108 44 127 12 13 -9 59 -36 81 l-25 21 16 54 c9
30 19 58 22 62 4 3 178 9 387 13 209 3 467 8 572 10 l193 4 -25 -37 c-31 -46
-65 -109 -65 -119 0 -4 9 6 19 23 10 17 35 41 55 53 20 13 36 26 36 29 0 4 18
20 40 36 22 16 42 37 45 47 3 9 14 19 24 22 16 4 20 -3 26 -39 9 -61 29 -70
23 -10 -4 40 -2 46 14 46 10 0 18 -4 18 -9 0 -5 15 -12 33 -15 38 -7 69 -37
117 -114 32 -52 85 -102 108 -102 17 0 32 -34 26 -57 -3 -12 -1 -24 5 -27 12
-8 14 16 5 63 -4 20 -17 38 -35 48 -20 12 -29 25 -29 43 0 20 -2 22 -10 10 -8
-13 -10 -12 -10 3 0 9 -6 18 -12 18 -7 1 1 4 17 8 17 4 149 8 295 9 198 1 266
-2 273 -11 7 -9 10 -9 14 1 2 6 18 12 34 12 17 0 28 -4 24 -10 -3 -5 -12 -6
-21 -3 -8 3 -23 -3 -34 -15 -19 -20 -19 -20 3 -26 14 -3 26 -18 33 -40 7 -24
7 -33 0 -30 -7 3 -11 -15 -10 -50 0 -54 0 -55 -40 -75 -61 -29 -89 -32 -140
-15 -26 9 -49 14 -51 12 -5 -5 109 -68 123 -68 4 0 63 29 130 65 68 36 129 65
136 65 7 0 18 11 25 24 8 14 27 27 45 31 17 4 36 9 42 10 22 5 129 77 162 109
19 17 45 52 58 78 32 62 77 113 115 128 28 12 29 14 13 29 -12 12 -18 13 -21
4 -3 -7 -11 -13 -18 -13 -8 0 -20 -7 -29 -15 -8 -9 -19 -16 -23 -15 -17 0 -49
-13 -65 -27 -10 -9 -24 -13 -32 -10 -9 4 -22 -3 -31 -16 -15 -21 -24 -22 -174
-26 l-159 -3 -7 32 c-4 18 -4 70 0 116 l7 84 -139 0 c-102 -1 -143 -4 -156
-15 -11 -7 -25 -11 -33 -8 -8 3 -14 0 -14 -6 0 -10 22 -16 45 -12 6 1 -1 -9
-15 -23 -21 -22 -30 -25 -55 -17 -17 4 -39 5 -50 0 l-20 -8 20 -2 c11 -1 25
-3 30 -4 6 -2 19 -4 30 -5 39 -4 -47 -18 -96 -16 -34 2 -49 -1 -49 -10 0 -7
-9 -16 -20 -19 -11 -4 -18 -10 -16 -14 3 -4 -4 -12 -14 -19 -12 -7 -21 -8 -25
-2 -3 6 -16 10 -28 9 l-22 0 23 -9 c12 -5 22 -14 22 -20 0 -5 8 -10 18 -10 18
0 80 20 99 33 6 4 18 4 27 1 11 -4 16 -1 16 11 0 13 6 16 23 11 12 -3 40 -6
62 -7 22 -1 32 -3 22 -6 -19 -5 -18 -27 1 -29 7 -1 15 -3 20 -4 4 -1 13 -3 21
-4 8 0 16 -7 18 -13 4 -10 -36 -14 -174 -15 -299 -5 -345 -3 -383 17 -19 10
-55 24 -80 30 -32 8 -45 17 -44 28 1 10 -2 17 -7 17 -5 0 -9 -12 -9 -26 0 -14
-4 -23 -10 -19 -11 7 -78 -20 -101 -41 -14 -12 -102 -15 -599 -21 l-583 -6 6
22 c4 11 10 30 13 40 4 14 -3 28 -21 47 -23 23 -32 25 -66 20 -28 -4 -39 -3
-39 6 0 9 -3 10 -8 2 -4 -6 -25 -14 -46 -17 -22 -4 -43 -12 -48 -19 -5 -9 -8
-7 -8 7 0 14 -3 16 -9 7 -5 -9 -17 -11 -34 -6 -29 7 -33 25 -28 107 l2 37
-1665 0 -1666 0 0 -1135z m5665 1035 c-3 -5 -11 -10 -16 -10 -6 0 -7 5 -4 10
3 6 11 10 16 10 6 0 7 -4 4 -10z m-2081 -59 c6 -10 -54 -194 -84 -258 -34 -73
-70 -53 -70 39 0 41 -8 49 -52 54 -16 2 -38 14 -49 26 -19 23 -18 23 13 50 31
27 186 95 220 97 9 1 19 -3 22 -8z m2360 -114 c-1 -10 2 -17 7 -17 5 0 4 -11
-1 -25 -9 -25 -9 -25 53 -26 57 0 162 -15 127 -18 -8 0 -21 -10 -28 -21 -7
-11 -17 -20 -22 -20 -6 0 -31 -15 -57 -34 -50 -35 -108 -56 -132 -48 -8 3 -11
0 -7 -6 3 -5 0 -12 -8 -15 -19 -8 -27 128 -9 152 7 9 13 35 13 59 0 43 0 43
33 39 22 -3 32 -9 31 -20z m-4665 -94 c-1 -62 -6 -56 -11 15 -2 23 0 42 4 42
5 0 7 -26 7 -57z m72 50 c-18 -4 -22 -10 -18 -29 2 -13 0 -24 -4 -24 -5 0 -9
14 -9 30 0 26 3 30 28 29 25 -2 25 -2 3 -6z m199 -3 c11 -7 6 -8 -17 -4 -39 8
-63 -8 -63 -42 0 -12 7 -30 16 -38 8 -9 12 -16 7 -16 -17 0 -33 24 -33 49 0
48 51 77 90 51z m127 -16 c15 -23 15 -29 2 -52 -8 -14 -20 -27 -28 -30 -7 -2
-4 5 8 17 16 16 20 28 15 44 -12 39 -50 49 -78 21 -21 -21 -20 -40 4 -64 11
-11 17 -20 13 -20 -37 1 -53 60 -24 89 29 29 67 27 88 -5z m121 -3 c2 -13 -1
-28 -7 -34 -7 -7 -7 -17 1 -31 10 -20 10 -20 -14 2 -30 27 -48 28 -48 2 0 -11
-4 -20 -10 -20 -5 0 -10 25 -10 56 l0 55 43 -3 c35 -3 43 -7 45 -27z m80 22
c-30 -3 -38 -9 -38 -24 0 -14 8 -19 33 -21 l32 -1 -34 -4 c-29 -4 -32 -7 -28
-29 2 -13 0 -24 -4 -24 -5 0 -9 25 -9 55 l0 55 43 -2 42 -1 -37 -4z m126 -1
c2 -4 -7 -8 -21 -7 -40 0 -39 -22 2 -39 38 -16 46 -45 15 -54 -12 -4 -13 -2
-2 9 19 20 15 26 -23 39 -52 17 -47 57 7 59 9 1 19 -3 22 -7z m-784 -45 c12
-4 11 -6 -2 -6 -10 -1 -19 -9 -19 -18 -1 -17 -2 -17 -6 0 -2 9 -12 18 -21 18
-15 1 -15 2 1 6 9 2 17 10 17 16 0 9 2 9 8 1 4 -6 14 -14 22 -17z m164 -12 c7
-19 -3 -45 -16 -45 -6 0 -5 6 2 15 10 12 10 18 0 30 -7 9 -8 15 -2 15 5 0 12
-7 16 -15z m1773 -118 c-2 -23 -3 -1 -3 48 0 50 1 68 3 42 2 -26 2 -67 0 -90z
m-1822 75 c-3 -3 -11 0 -18 7 -9 10 -8 11 6 5 10 -3 15 -9 12 -12z m220 8 c-3
-5 -12 -10 -18 -10 -7 0 -6 4 3 10 19 12 23 12 15 0z m410 -8 c-3 -3 -11 0
-18 7 -9 10 -8 11 6 5 10 -3 15 -9 12 -12z m1585 -75 c0 -3 -7 -21 -15 -39
-12 -28 -14 -30 -15 -10 0 13 -4 21 -9 18 -5 -4 -8 1 -7 10 1 8 9 20 17 25 15
9 31 8 29 -4z m-3076 -93 c17 -27 41 -63 54 -80 22 -29 23 -29 38 -9 9 11 33
48 55 83 l38 62 56 0 55 0 0 -215 0 -215 -50 0 -50 0 0 119 c0 66 -4 122 -8
125 -5 3 -30 -28 -56 -69 -26 -41 -52 -75 -57 -75 -5 0 -29 32 -54 70 -25 39
-49 70 -55 70 -5 0 -11 -49 -12 -117 l-3 -116 -47 -3 -48 -2 0 213 0 213 57
-2 57 -1 30 -51z m496 -158 l0 -204 -32 -3 c-18 -2 -43 -3 -55 -1 -23 3 -23 3
-23 208 l0 204 55 0 55 0 0 -204z m289 94 c46 -61 87 -110 92 -110 5 0 9 50 9
110 l0 110 50 0 50 0 0 -205 -1 -205 -45 0 c-43 0 -45 2 -105 78 -34 42 -65
79 -68 82 -4 3 -17 20 -30 38 -12 18 -27 30 -32 27 -5 -4 -9 -57 -9 -118 l0
-112 -50 3 -50 4 0 204 0 204 53 0 52 0 84 -110z m316 80 c3 -5 1 -10 -4 -10
-6 0 -11 5 -11 10 0 6 2 10 4 10 3 0 8 -4 11 -10z m1650 -20 c-3 -5 -16 -10
-28 -10 -18 0 -19 2 -7 10 20 13 43 13 35 0z m-1635 -20 c0 -5 -4 -10 -10 -10
-5 0 -10 5 -10 10 0 6 5 10 10 10 6 0 10 -4 10 -10z m50 -30 c0 -5 -2 -10 -4
-10 -3 0 -8 5 -11 10 -3 6 -1 10 4 10 6 0 11 -4 11 -10z m-50 -40 c0 -5 -5
-10 -11 -10 -5 0 -7 5 -4 10 3 6 8 10 11 10 2 0 4 -4 4 -10z m0 -40 c0 -5 -2
-10 -4 -10 -3 0 -8 5 -11 10 -3 6 -1 10 4 10 6 0 11 -4 11 -10z m1842 -58
c-31 -89 -71 -176 -78 -169 -4 4 -1 21 6 39 67 172 118 264 72 130z m-1782 28
c0 -5 -5 -10 -11 -10 -5 0 -7 5 -4 10 3 6 8 10 11 10 2 0 4 -4 4 -10z m-60 -4
c0 -3 -4 -8 -10 -11 -5 -3 -10 -1 -10 4 0 6 5 11 10 11 6 0 10 -2 10 -4z m0
-40 c0 -3 -4 -8 -10 -11 -5 -3 -10 -1 -10 4 0 6 5 11 10 11 6 0 10 -2 10 -4z
m-23 -78 c-3 -8 -6 -5 -6 6 -1 11 2 17 5 13 3 -3 4 -12 1 -19z m43 -18 c0 -5
-2 -10 -4 -10 -3 0 -8 5 -11 10 -3 6 -1 10 4 10 6 0 11 -4 11 -10z m-30 -10
c0 -5 -4 -10 -10 -10 -5 0 -10 5 -10 10 0 6 5 10 10 10 6 0 10 -4 10 -10z m80
-14 c0 -3 -4 -8 -10 -11 -5 -3 -10 -1 -10 4 0 6 5 11 10 11 6 0 10 -2 10 -4z
m-80 -16 c0 -5 -5 -10 -11 -10 -5 0 -7 5 -4 10 3 6 8 10 11 10 2 0 4 -4 4 -10z
m-949 -161 c21 -7 53 -24 71 -40 28 -23 30 -28 16 -34 -10 -4 -28 2 -45 14
-45 33 -110 46 -161 32 -160 -44 -200 -265 -66 -368 50 -38 142 -44 202 -14
22 11 43 25 47 31 8 14 35 13 35 -1 0 -14 -23 -33 -74 -60 -32 -17 -53 -20
-112 -17 -94 4 -146 37 -186 117 -51 99 -34 205 43 283 64 64 141 83 230 57z
m494 -11 c81 -43 125 -119 125 -218 0 -82 -35 -150 -98 -194 -37 -26 -55 -31
-116 -34 -84 -5 -135 15 -181 70 -41 48 -55 90 -55 160 1 101 49 181 134 219
49 22 146 20 191 -3z m889 11 c199 -50 222 -353 33 -442 -46 -22 -148 -22
-194 -1 -145 69 -176 272 -59 388 60 61 129 78 220 55z m-612 -211 l3 -213
133 -3 c100 -2 132 -6 129 -15 -2 -8 -46 -13 -150 -15 l-147 -3 0 231 c0 196
2 230 15 230 12 0 15 -33 17 -212z m1161 198 c56 -23 81 -60 81 -116 0 -58
-25 -92 -87 -119 l-38 -16 71 -94 c38 -52 70 -96 70 -98 0 -2 -8 -3 -19 -3
-12 0 -44 34 -90 95 l-72 95 -74 0 -74 0 -3 -92 c-2 -75 -6 -93 -18 -93 -13 0
-15 33 -18 228 l-2 227 120 0 c80 0 132 -5 153 -14z m406 4 c53 -15 84 -39 72
-54 -9 -11 -20 -9 -58 10 -76 39 -161 27 -188 -27 -21 -40 -19 -57 13 -89 20
-19 46 -31 88 -40 120 -24 169 -63 167 -134 -2 -77 -54 -116 -153 -116 -70 0
-143 28 -164 62 -18 30 1 30 44 1 34 -22 57 -28 111 -31 65 -4 70 -3 99 26 53
54 33 118 -44 141 -17 5 -59 17 -94 27 -77 22 -112 57 -112 113 0 91 105 144
219 111z m-904 -694 c19 -8 44 -30 55 -48 37 -60 22 -124 -39 -165 l-34 -23
-436 0 c-415 0 -438 1 -468 20 -49 30 -66 63 -60 116 5 50 27 80 72 100 46 20
862 20 910 0z m1528 -31 c15 -1 27 2 27 5 0 3 16 5 35 5 19 0 35 -4 35 -9 0
-4 7 -6 15 -3 8 4 17 2 19 -2 9 -15 -5 -19 -34 -11 -15 4 -32 4 -37 -1 -4 -4
-53 -5 -108 0 -55 5 -82 9 -60 10 22 1 47 5 55 11 8 5 17 6 20 2 3 -4 17 -7
33 -7z m-160 -10 c-3 -9 -8 -14 -10 -11 -3 3 -2 9 2 15 9 16 15 13 8 -4z"/>
<path d="M1730 1924 c0 -22 4 -25 28 -22 19 2 28 9 30 26 3 19 -1 22 -27 22
-27 0 -31 -4 -31 -26z"/>
<path d="M965 1148 c-52 -19 -82 -47 -109 -100 -41 -82 -31 -169 27 -235 97
-110 272 -75 322 66 29 83 13 156 -49 217 -57 57 -124 75 -191 52z"/>
<path d="M1886 1145 c-86 -30 -133 -112 -123 -215 10 -110 82 -180 186 -180
107 0 181 71 189 181 8 106 -46 194 -135 218 -49 14 -69 13 -117 -4z"/>
<path d="M2330 1045 l0 -105 78 0 c137 0 202 34 202 105 0 81 -42 105 -185
105 l-95 0 0 -105z"/>
<path d="M1310 390 c0 -5 7 -7 15 -4 8 4 15 8 15 10 0 2 -7 4 -15 4 -8 0 -15
-4 -15 -10z"/>
<path d="M1370 390 c0 -5 7 -7 15 -4 8 4 15 8 15 10 0 2 -7 4 -15 4 -8 0 -15
-4 -15 -10z"/>
<path d="M1598 393 c7 -3 16 -2 19 1 4 3 -2 6 -13 5 -11 0 -14 -3 -6 -6z"/>
<path d="M1666 392 c7 -4 14 -18 16 -32 3 -23 4 -22 9 8 5 27 3 32 -15 32 -13
0 -17 -3 -10 -8z"/>
<path d="M1790 390 c0 -5 7 -7 15 -4 8 4 15 8 15 10 0 2 -7 4 -15 4 -8 0 -15
-4 -15 -10z"/>
<path d="M1930 365 c0 -15 6 -25 14 -25 22 0 30 19 16 35 -18 22 -30 18 -30
-10z"/>
<path d="M1310 359 c0 -5 5 -7 10 -4 6 3 10 8 10 11 0 2 -4 4 -10 4 -5 0 -10
-5 -10 -11z"/>
<path d="M1370 362 c0 -4 10 -9 22 -9 18 -2 20 0 8 7 -18 12 -30 13 -30 2z"/>
<path d="M1486 353 c-6 -14 -5 -15 5 -6 7 7 10 15 7 18 -3 3 -9 -2 -12 -12z"/>
<path d="M1790 362 c0 -4 9 -8 20 -9 11 -1 18 2 15 8 -7 11 -35 12 -35 1z"/>
<path d="M1248 353 c6 -2 18 -2 25 0 6 3 1 5 -13 5 -14 0 -19 -2 -12 -5z"/>
<path d="M1733 353 c9 -2 23 -2 30 0 6 3 -1 5 -18 5 -16 0 -22 -2 -12 -5z"/>
<path d="M6482 2245 c0 -16 2 -22 5 -12 2 9 2 23 0 30 -3 6 -5 -1 -5 -18z"/>
<path d="M8082 2250 c0 -14 2 -19 5 -12 2 6 2 18 0 25 -3 6 -5 1 -5 -13z"/>
<path d="M8576 2262 c-3 -6 -1 -14 5 -17 15 -10 25 3 12 16 -7 7 -13 7 -17 1z"/>
<path d="M8730 2165 l0 -105 -235 0 c-129 0 -235 -2 -235 -5 0 -25 65 -125 81
-125 4 0 10 8 12 18 4 16 5 16 6 0 0 -10 6 -18 11 -18 15 0 12 21 -6 41 -9 10
-14 25 -11 32 7 18 58 29 74 16 6 -6 14 -6 17 -1 3 5 47 7 98 4 51 -2 110 0
131 6 l37 10 0 -54 c0 -44 -3 -54 -17 -55 -12 0 -8 -4 10 -11 27 -10 27 -10
27 -109 0 -54 -3 -99 -7 -99 -4 0 -26 10 -50 21 -28 14 -42 26 -39 35 7 19
-12 28 -29 14 -9 -8 -15 -8 -20 0 -10 16 -145 81 -145 69 0 -5 4 -9 9 -9 9 0
26 -78 19 -85 -2 -3 -28 11 -58 29 -30 18 -115 70 -188 115 -74 44 -136 81
-140 81 -3 0 -26 -10 -51 -22 l-46 -22 40 -12 c56 -17 176 -79 168 -87 -10
-11 -179 -8 -272 3 l-84 11 -68 -36 c-72 -38 -85 -35 -74 15 5 22 21 40 58 64
68 44 88 64 136 135 48 70 90 107 131 116 18 4 29 10 25 13 -10 10 -84 1 -113
-14 -15 -8 -32 -14 -38 -14 -6 0 -29 -17 -50 -37 l-39 -38 -560 -2 c-308 -1
-552 1 -542 4 10 2 16 10 14 16 -2 7 3 17 12 24 13 10 9 12 -24 13 -29 0 -36
-3 -25 -10 13 -8 12 -10 -2 -10 -10 0 -18 7 -18 17 0 9 -3 14 -6 10 -3 -3 -14
3 -25 14 -11 11 -24 17 -30 14 -15 -10 0 -25 19 -18 9 3 14 2 9 -2 -4 -5 1
-18 11 -29 10 -12 37 -54 61 -93 l42 -73 491 0 c475 0 491 -1 475 -18 -10 -10
-38 -28 -65 -40 -156 -69 -230 -107 -244 -127 -4 -5 -8 -6 -8 -2 0 5 -13 -1
-29 -12 -16 -12 -34 -21 -40 -21 -6 0 -20 -4 -31 -10 -11 -5 -28 -14 -37 -19
-10 -4 -29 -6 -43 -4 l-25 3 28 -18 27 -18 -47 -23 c-27 -13 -62 -39 -80 -57
-18 -19 -37 -34 -42 -34 -14 0 -26 26 -41 87 -6 29 -20 62 -31 74 -10 12 -16
26 -12 32 3 6 1 7 -6 3 -9 -6 -8 -14 3 -32 9 -13 24 -58 34 -101 16 -69 17
-82 4 -113 -8 -20 -20 -117 -28 -230 -13 -182 -20 -246 -61 -519 -23 -155 -22
-168 12 -195 26 -21 29 -29 33 -102 3 -68 9 -90 43 -154 21 -41 40 -90 42
-108 2 -17 7 -35 10 -39 4 -3 7 -25 7 -47 0 -23 3 -51 6 -63 l6 -23 1869 0
1869 0 0 43 0 42 -215 -3 c-118 -2 -215 0 -215 5 0 15 29 157 40 196 11 36 12
37 49 31 28 -5 46 -1 67 12 15 10 37 17 48 16 20 -2 31 6 106 87 l31 34 25
-24 c13 -12 23 -30 22 -38 -2 -10 6 -17 20 -19 20 -3 22 0 22 47 0 49 -1 50
-32 53 l-33 3 33 20 32 19 0 278 0 278 -25 40 c-14 22 -25 44 -25 48 0 5 11 7
25 4 24 -4 25 -2 25 47 l0 51 -54 0 -54 0 -73 110 c-40 62 -94 130 -121 153
l-49 42 176 -3 175 -4 0 44 0 43 -236 -3 -235 -3 -117 66 c-64 37 -132 79
-150 94 -19 14 -53 38 -76 52 l-43 27 5 -50 5 -50 -54 34 c-206 131 -250 158
-261 158 -7 0 -2 -9 12 -20 l25 -20 -45 0 -45 0 44 -21 c78 -35 114 -61 99
-70 -18 -12 -255 -11 -297 1 -28 8 -42 5 -92 -20 -32 -17 -61 -30 -64 -30 -3
0 -5 16 -5 35 0 31 6 38 56 70 66 43 99 76 126 130 12 22 37 55 57 74 l36 35
-55 -30 c-30 -16 -60 -36 -67 -44 -10 -13 -62 -15 -335 -18 -178 -2 -333 0
-345 3 -22 5 -23 10 -23 110 0 63 -4 105 -10 105 -6 0 -10 -42 -10 -105z m368
-140 c7 -2 12 -22 12 -45 l0 -40 121 0 c142 0 144 -6 21 -66 -42 -20 -88 -44
-102 -54 -44 -28 -224 -105 -240 -102 -8 2 -11 0 -7 -4 10 -11 -60 -44 -93
-44 -54 0 -57 11 -63 192 -3 91 -4 168 -2 170 5 5 337 -1 353 -7z m1696 -790
c13 -50 -11 -60 -37 -16 -22 38 -22 41 7 41 17 0 26 -7 30 -25z m-269 -835
c18 -20 17 -20 -18 -20 -24 0 -37 5 -37 13 0 32 29 36 55 7z m-62 -387 c-13
-2 -33 -2 -45 0 -13 2 -3 4 22 4 25 0 35 -2 23 -4z m60 0 c-7 -2 -19 -2 -25 0
-7 3 -2 5 12 5 14 0 19 -2 13 -5z"/>
<path d="M8876 1815 c4 -8 8 -15 10 -15 2 0 4 7 4 15 0 8 -4 15 -10 15 -5 0
-7 -7 -4 -15z"/>
<path d="M8910 1763 c0 -4 5 -15 10 -23 8 -13 10 -13 10 2 0 9 -4 20 -10 23
-5 3 -10 3 -10 -2z"/>
<path d="M8916 2250 c-19 -6 -19 -7 -1 -13 20 -8 29 -4 24 11 -2 5 -13 6 -23
2z"/>
<path d="M8957 2240 c-14 -11 -34 -20 -45 -20 -29 0 -36 -17 -13 -29 25 -14
77 -14 100 -1 25 13 34 39 20 56 -16 19 -32 17 -62 -6z"/>
<path d="M9681 2244 c0 -11 3 -14 6 -6 3 7 2 16 -1 19 -3 4 -6 -2 -5 -13z"/>
<path d="M4902 2210 c-2 -37 5 -53 26 -57 17 -4 15 14 -2 24 -8 4 -16 22 -19
38 -4 29 -4 29 -5 -5z"/>
<path d="M4440 2207 c-18 -15 -26 -57 -10 -57 7 0 10 -6 7 -14 -3 -8 1 -17 9
-20 10 -4 14 0 12 11 -2 12 6 19 27 23 17 3 30 11 30 20 0 7 -13 22 -30 31
-24 14 -33 15 -45 6z"/>
<path d="M6066 2213 c-12 -12 -6 -33 9 -33 8 0 15 6 15 14 0 17 -14 28 -24 19z"/>
<path d="M4362 2180 c0 -14 2 -19 5 -12 2 6 2 18 0 25 -3 6 -5 1 -5 -13z"/>
<path d="M3480 2180 c0 -5 7 -10 15 -10 8 0 15 5 15 10 0 6 -7 10 -15 10 -8 0
-15 -4 -15 -10z"/>
<path d="M5348 2183 c7 -3 16 -2 19 1 4 3 -2 6 -13 5 -11 0 -14 -3 -6 -6z"/>
<path d="M5390 2180 c0 -5 5 -10 10 -10 6 0 10 5 10 10 0 6 -4 10 -10 10 -5 0
-10 -4 -10 -10z"/>
<path d="M6458 2153 c7 -3 16 -2 19 1 4 3 -2 6 -13 5 -11 0 -14 -3 -6 -6z"/>
<path d="M5942 2128 c6 -18 28 -21 28 -4 0 9 -7 16 -16 16 -9 0 -14 -5 -12
-12z"/>
<path d="M8440 2126 c0 -21 16 -28 29 -12 9 11 8 15 -5 20 -22 8 -24 8 -24 -8z"/>
<path d="M5285 2110 c3 -5 8 -10 11 -10 2 0 4 5 4 10 0 6 -5 10 -11 10 -5 0
-7 -4 -4 -10z"/>
<path d="M10292 2098 c-7 -7 -12 -18 -12 -25 0 -10 -29 -13 -117 -15 -65 -1
-131 -3 -148 -4 -16 -1 -61 -2 -98 -3 -38 0 -66 -5 -63 -9 2 -4 31 -7 63 -6
32 2 131 3 219 3 153 1 162 2 167 21 3 11 12 20 20 20 8 0 17 -9 20 -20 5 -19
14 -20 192 -20 102 0 184 -4 181 -9 -3 -4 2 -17 10 -27 9 -10 12 -12 8 -4 -3
8 7 0 24 -17 17 -18 40 -33 51 -33 19 0 21 6 21 55 l0 55 -235 0 -235 0 -10
25 c-10 27 -38 33 -58 13z"/>
<path d="M3820 2061 c0 -11 63 -31 98 -31 26 0 30 16 5 24 -37 12 -103 16
-103 7z"/>
<path d="M3950 2065 c0 -2 9 -9 20 -15 16 -9 20 -8 20 5 0 8 -9 15 -20 15 -11
0 -20 -2 -20 -5z"/>
<path d="M6399 1925 c-87 -53 -181 -107 -231 -133 -16 -7 -28 -17 -28 -21 0
-10 114 -30 123 -21 5 4 -7 11 -25 15 -26 6 -29 9 -13 12 11 3 24 11 28 19 4
8 15 14 22 14 8 0 15 5 15 10 0 6 6 10 14 10 7 0 26 12 41 28 16 15 25 21 20
13 -5 -9 0 -8 18 3 31 21 100 19 147 -4 19 -10 61 -30 93 -45 31 -15 57 -31
57 -36 0 -5 12 -9 28 -9 23 0 50 -8 129 -35 9 -3 4 -20 -17 -55 -17 -28 -30
-53 -30 -55 0 -3 -16 -29 -35 -59 -48 -76 -100 -116 -148 -116 -31 0 -38 -3
-33 -15 6 -16 -14 -19 -106 -16 -27 1 -48 -3 -48 -8 0 -6 33 -9 83 -8 146 4
243 66 352 227 45 65 59 96 63 131 2 26 0 49 -5 52 -4 3 -7 -12 -5 -34 3 -25
0 -39 -7 -39 -11 0 -132 66 -211 115 -19 12 -73 42 -120 67 l-85 45 -86 -52z"/>
<path d="M4910 1940 c0 -5 5 -10 10 -10 6 0 10 5 10 10 0 6 -4 10 -10 10 -5 0
-10 -4 -10 -10z"/>
<path d="M4869 1891 c-99 -57 -189 -116 -189 -123 0 -19 34 -4 117 48 84 53
90 55 142 50 l54 -4 -31 20 c-18 11 -32 24 -32 29 0 13 -10 10 -61 -20z"/>
<path d="M5000 1872 c0 -9 62 -34 69 -27 2 3 0 9 -5 14 -13 12 -64 23 -64 13z"/>
<path d="M5577 1874 c-13 -13 -7 -24 14 -24 11 0 19 5 17 12 -5 14 -22 21 -31
12z"/>
<path d="M4642 1840 c-18 -29 -15 -38 4 -12 9 13 14 25 12 27 -2 2 -9 -5 -16
-15z"/>
<path d="M4593 1809 c-6 -6 -22 -17 -35 -23 -25 -12 -33 -43 -24 -82 8 -29 20
-30 48 -4 24 22 18 26 -12 8 -10 -7 -22 -10 -25 -6 -14 14 10 61 41 81 32 21
43 37 26 37 -4 0 -13 -5 -19 -11z"/>
<path d="M5640 1776 c0 -9 7 -16 16 -16 9 0 14 5 12 12 -6 18 -28 21 -28 4z"/>
<path d="M6073 1734 c-3 -9 -1 -25 5 -35 15 -23 15 -29 2 -29 -5 0 -10 7 -10
15 0 8 -5 15 -11 15 -5 0 -7 5 -4 10 3 6 2 10 -4 10 -6 0 -9 -13 -8 -29 1 -16
6 -29 12 -28 5 1 10 -2 10 -8 1 -5 4 -20 9 -32 6 -18 10 -20 21 -10 12 10 11
14 -1 24 -9 6 -11 14 -6 17 14 8 35 -21 29 -38 -3 -8 1 -20 9 -26 8 -7 14 -10
14 -6 0 3 24 -17 53 -45 42 -41 149 -109 172 -109 3 0 -5 11 -17 25 -12 14
-28 25 -35 25 -7 0 -26 20 -42 45 -15 24 -31 42 -35 38 -3 -3 -6 -1 -6 6 0 7
-4 10 -9 6 -5 -3 -13 0 -17 6 -4 8 -3 9 4 5 7 -4 12 -3 12 3 0 5 -5 13 -10 16
-6 4 -8 11 -5 16 4 5 0 9 -7 9 -10 0 -10 2 1 9 11 7 8 13 -13 26 -19 13 -24
21 -16 30 8 10 1 18 -25 34 -43 25 -63 27 -72 5z m67 -134 c0 -5 -2 -10 -4
-10 -3 0 -8 5 -11 10 -3 6 -1 10 4 10 6 0 11 -4 11 -10z"/>
<path d="M6350 1740 c-9 -6 -10 -10 -3 -10 6 0 15 5 18 10 8 12 4 12 -15 0z"/>
<path d="M6995 1740 c3 -5 8 -10 11 -10 2 0 4 5 4 10 0 6 -5 10 -11 10 -5 0
-7 -4 -4 -10z"/>
<path d="M6904 1678 c-37 -67 -39 -72 -25 -64 13 9 64 106 58 112 -2 2 -17
-20 -33 -48z"/>
<path d="M6190 1700 c0 -6 7 -10 15 -10 8 0 15 2 15 4 0 2 -7 6 -15 10 -8 3
-15 1 -15 -4z"/>
<path d="M6493 1596 c-25 -12 -30 -32 -12 -38 9 -3 9 -10 0 -26 -10 -18 -9
-22 4 -22 8 0 15 5 15 10 0 6 7 10 15 10 17 0 35 30 35 59 0 23 -20 26 -57 7z"/>
<path d="M4938 1559 c-10 -10 -13 -19 -7 -19 7 0 9 -10 5 -25 -4 -14 -2 -25 4
-25 5 0 10 5 10 10 0 6 6 10 14 10 15 0 26 21 26 51 0 25 -29 24 -52 -2z m29
-21 c-3 -8 -6 -5 -6 6 -1 11 2 17 5 13 3 -3 4 -12 1 -19z"/>
<path d="M5646 1494 c-3 -9 -6 -47 -6 -85 0 -38 -3 -69 -7 -69 -5 0 -17 19
-27 43 l-19 42 -13 -65 c-7 -36 -20 -123 -29 -194 -8 -71 -17 -131 -19 -135
-2 -3 -7 -44 -10 -91 -19 -247 -27 -366 -32 -470 l-6 -115 31 -23 c32 -23 51
-22 51 3 0 8 11 22 25 31 39 25 48 80 41 239 -4 77 -10 165 -13 195 -3 30 -7
138 -8 240 -1 102 -3 192 -5 200 -2 8 -2 40 -1 70 2 51 3 53 15 31 7 -12 11
-33 9 -45 -2 -12 7 -33 22 -51 15 -16 23 -24 19 -16 -4 8 -6 74 -5 148 1 73 0
133 -3 133 -2 0 -7 -7 -10 -16z"/>
<path d="M6500 1485 c0 -8 7 -15 15 -15 8 0 15 7 15 15 0 8 -7 15 -15 15 -8 0
-15 -7 -15 -15z"/>
<path d="M4960 1460 c0 -5 5 -10 10 -10 6 0 10 5 10 10 0 6 -4 10 -10 10 -5 0
-10 -4 -10 -10z"/>
<path d="M6390 1450 c0 -5 37 -9 85 -9 47 0 85 5 85 10 0 5 -38 9 -85 9 -48 0
-85 -4 -85 -10z"/>
<path d="M4980 1430 c-13 -8 -13 -10 2 -10 9 0 20 5 23 10 8 13 -5 13 -25 0z"/>
<path d="M4878 1423 c12 -2 32 -2 45 0 12 2 2 4 -23 4 -25 0 -35 -2 -22 -4z"/>
<path d="M5419 1313 c0 -26 -4 -69 -8 -95 -4 -26 -4 -45 1 -42 4 3 8 -1 8 -8
0 -9 3 -9 10 2 12 18 10 179 -2 186 -4 3 -8 -16 -9 -43z"/>
<path d="M5789 1148 c8 -22 7 -88 -3 -155 -3 -20 0 -33 6 -33 7 0 7 -4 1 -12
-12 -15 -16 -67 -17 -198 -1 -88 2 -101 31 -159 34 -71 34 -88 -6 -98 -67 -16
-177 -86 -149 -95 7 -3 8 -14 3 -34 -4 -16 -10 -23 -12 -16 -3 6 -11 12 -19
12 -9 0 -12 -5 -8 -12 12 -19 10 -67 -3 -73 -10 -3 -13 -41 -13 -140 l0 -135
41 0 41 0 -5 93 c-3 50 -8 106 -13 122 -6 27 -5 29 9 17 17 -14 17 -14 31 92
6 46 31 86 53 86 9 0 27 10 40 22 31 29 30 18 -17 -134 -30 -98 -60 -245 -60
-295 0 -2 22 -3 49 -3 54 0 58 6 67 94 2 21 6 42 9 46 3 5 9 52 14 104 5 52
13 101 17 108 5 7 7 23 5 36 -1 12 3 22 9 22 11 0 27 34 34 74 2 13 -4 47 -14
77 -11 34 -14 58 -8 66 5 7 5 14 -1 18 -6 3 -9 26 -7 50 2 24 1 47 -2 50 -6 6
-7 7 -16 65 -18 102 -24 146 -20 152 2 3 -1 8 -8 10 -6 2 -11 18 -10 36 0 18
-3 32 -8 32 -4 0 -7 7 -6 16 4 26 -20 108 -33 112 -8 3 -9 -3 -2 -20z"/>
<path d="M6825 1121 c-3 -5 -1 -12 4 -15 5 -3 11 1 15 9 6 16 -9 21 -19 6z"/>
<path d="M6818 1065 c-1 -17 -2 -38 -1 -47 0 -10 -3 -18 -7 -18 -4 0 -7 -18
-8 -41 -1 -22 -4 -44 -6 -48 -2 -3 -7 -47 -11 -96 -4 -50 -9 -99 -11 -110 -3
-11 -6 -64 -9 -117 -2 -54 -7 -146 -11 -205 -4 -60 -8 -150 -8 -200 -1 -51 -3
-93 -6 -93 -3 0 -5 -20 -5 -45 l0 -45 68 0 68 0 -6 138 c-3 75 -8 157 -10 182
-2 25 -7 205 -11 400 -3 195 -10 359 -15 365 -5 5 -10 -3 -11 -20z"/>
<path d="M6290 930 c0 -11 4 -20 9 -20 5 0 7 9 4 20 -3 11 -7 20 -9 20 -2 0
-4 -9 -4 -20z"/>
<path d="M6286 892 c-3 -5 -7 -51 -10 -103 -3 -52 -9 -143 -12 -204 -4 -60 -7
-117 -7 -125 0 -8 -3 -19 -7 -25 -4 -5 -6 -19 -4 -29 1 -11 0 -25 -4 -30 -3
-6 -7 -17 -8 -26 -5 -28 -10 -45 -17 -58 -5 -7 -4 -12 2 -12 16 0 13 -26 -4
-43 -11 -12 -12 -16 -2 -20 9 -3 9 -9 -1 -27 -12 -19 -12 -24 0 -31 11 -7 10
-9 -1 -9 -8 0 -11 -3 -8 -7 4 -3 0 -17 -8 -30 -12 -17 -12 -23 -3 -23 8 0 9
-3 3 -8 -16 -11 -17 -34 -3 -43 10 -7 10 -9 1 -9 -7 0 -13 -7 -13 -15 0 -12
16 -15 86 -15 l85 0 -6 152 c-4 84 -9 178 -10 208 -2 30 -6 154 -10 275 -4
121 -11 224 -15 229 -5 5 -6 15 -3 22 5 15 -12 20 -21 6z"/>
<path d="M3377 683 c-3 -3 -1 -16 5 -29 10 -21 18 -24 64 -24 29 0 56 5 59 10
3 6 -3 10 -14 10 -14 0 -21 6 -21 19 0 16 -7 19 -44 19 -24 0 -47 -2 -49 -5z"/>
<path d="M3486 569 c2 -3 -16 -5 -39 -3 -47 4 -77 -3 -77 -16 0 -5 7 -6 17 -3
11 4 14 3 9 -5 -4 -7 -2 -12 3 -12 6 0 11 4 11 10 0 5 9 6 20 2 23 -9 170 8
170 20 0 9 2 9 -67 11 -28 1 -49 -1 -47 -4z"/>
<path d="M4089 498 c0 -1 -3 -18 -6 -37 -5 -36 -35 -105 -73 -165 -18 -30 -19
-36 -6 -36 8 0 31 14 49 30 28 24 44 30 80 30 49 0 50 0 62 75 3 22 8 47 10
55 3 8 -3 20 -13 26 -17 11 -101 29 -103 22z"/>
<path d="M5395 453 c10 -40 13 -56 14 -73 1 -8 9 -20 19 -26 15 -10 17 -6 16
44 -1 41 -6 59 -20 69 -28 20 -37 16 -29 -14z"/>
<path d="M5456 431 c-4 -7 -5 -15 -2 -18 9 -9 19 4 14 18 -4 11 -6 11 -12 0z"/>
</g>
</svg>
