<?xml version="1.0" encoding="UTF-8"?>
<!DOCTYPE svg PUBLIC "-//W3C//DTD SVG 1.1//EN" "http://www.w3.org/Graphics/SVG/1.1/DTD/svg11.dtd">
<svg xmlns="http://www.w3.org/2000/svg" version="1.1" width="500px" height="500px" style="shape-rendering:geometricPrecision; text-rendering:geometricPrecision; image-rendering:optimizeQuality; fill-rule:evenodd; clip-rule:evenodd" xmlns:xlink="http://www.w3.org/1999/xlink">
<g><path style="opacity:1" fill="#fefefe" d="M -0.5,-0.5 C 166.167,-0.5 332.833,-0.5 499.5,-0.5C 499.5,166.167 499.5,332.833 499.5,499.5C 332.833,499.5 166.167,499.5 -0.5,499.5C -0.5,332.833 -0.5,166.167 -0.5,-0.5 Z"/></g>
<g><path style="opacity:1" fill="#191919" d="M 212.5,84.5 C 212.735,91.3541 213.402,98.0207 214.5,104.5C 218.78,108.044 223.78,110.044 229.5,110.5C 233.264,111.832 237.264,112.665 241.5,113C 250.01,113.823 258.344,113.657 266.5,112.5C 278.02,111.716 288.52,108.049 298,101.5C 298.333,95.8333 298.667,90.1667 299,84.5C 302.057,83.5495 305.223,83.2161 308.5,83.5C 310.515,84.9238 312.848,85.5905 315.5,85.5C 319.124,85.5666 321.457,87.2333 322.5,90.5C 319.403,115.764 318.736,141.097 320.5,166.5C 320.336,169.187 320.503,171.854 321,174.5C 321.383,175.056 321.883,175.389 322.5,175.5C 325.1,195.716 334.6,211.716 351,223.5C 351.667,230.167 351.667,236.833 351,243.5C 349.061,248.484 347.228,253.484 345.5,258.5C 346.02,261.912 346.853,265.245 348,268.5C 349.833,309.165 351.167,349.832 352,390.5C 336.5,401.313 319.667,409.479 301.5,415C 290.474,416.84 279.474,418.84 268.5,421C 250.483,422.727 232.816,421.061 215.5,416C 203.576,412.137 191.576,408.47 179.5,405C 168.141,400.284 156.807,395.617 145.5,391C 142.799,385.183 142.966,379.35 146,373.5C 148.333,341.506 150.5,309.506 152.5,277.5C 154.074,268.688 153.407,260.022 150.5,251.5C 150.746,240.824 151.246,230.158 152,219.5C 182.508,201.989 196.008,175.489 192.5,140C 191.971,121.826 191.305,103.659 190.5,85.5C 196.313,84.2236 202.146,82.8903 208,81.5C 210.183,81.5221 211.683,82.5221 212.5,84.5 Z"/></g>
<g><path style="opacity:1" fill="#959595" d="M 308.5,83.5 C 311.152,83.4095 313.485,84.0762 315.5,85.5C 312.848,85.5905 310.515,84.9238 308.5,83.5 Z"/></g>
<g><path style="opacity:1" fill="#e4e4e4" d="M 207.5,85.5 C 209.073,92.9868 210.407,100.653 211.5,108.5C 212.527,128.055 220.193,144.555 234.5,158C 241.404,163.951 249.404,167.451 258.5,168.5C 264.703,167.823 270.036,165.323 274.5,161C 285.648,151.511 293.148,139.677 297,125.5C 299.566,118.036 301.066,110.369 301.5,102.5C 301.856,96.923 302.856,91.5896 304.5,86.5C 305.805,88.3972 306.471,90.7305 306.5,93.5C 306.02,99.8603 305.353,106.194 304.5,112.5C 303.076,114.515 302.41,116.848 302.5,119.5C 297.502,140.682 286.168,157.515 268.5,170C 264.106,172.469 259.439,173.469 254.5,173C 226.051,161.874 210.551,141.041 208,110.5C 207.003,103.854 206.169,97.187 205.5,90.5C 205.556,88.3603 206.223,86.6936 207.5,85.5 Z"/></g>
<g><path style="opacity:1" fill="#fdfdfd" d="M 199.5,87.5 C 201.083,89.5078 202.083,91.8411 202.5,94.5C 202.376,100.069 203.043,105.402 204.5,110.5C 206.621,140.45 221.287,161.45 248.5,173.5C 253.261,176.361 258.261,177.028 263.5,175.5C 280.925,166.566 293.425,152.899 301,134.5C 304.307,123.605 307.14,112.605 309.5,101.5C 310.408,97.1489 311.408,92.8156 312.5,88.5C 315.305,88.818 317.639,89.9847 319.5,92C 314.926,119.385 314.259,146.885 317.5,174.5C 317.806,177.385 317.473,180.052 316.5,182.5C 315.196,178.64 314.529,174.64 314.5,170.5C 314.828,165.125 314.495,159.792 313.5,154.5C 312.893,154.624 312.56,154.957 312.5,155.5C 311.833,160.167 311.167,164.833 310.5,169.5C 309.833,156.167 309.167,156.167 308.5,169.5C 308.802,172.059 308.468,174.393 307.5,176.5C 307.752,173.68 307.252,171.014 306,168.5C 305.349,173.293 305.849,177.959 307.5,182.5C 308.528,185.098 309.528,185.098 310.5,182.5C 311.023,184.957 311.856,187.291 313,189.5C 313.602,186.779 313.435,184.113 312.5,181.5C 312.263,180.209 312.596,179.209 313.5,178.5C 314.447,183.844 316.281,188.844 319,193.5C 319.384,191.803 319.218,190.137 318.5,188.5C 318.351,187.448 318.517,186.448 319,185.5C 319.522,188.281 320.689,190.615 322.5,192.5C 327.246,205.973 335.413,216.973 347,225.5C 347.667,230.833 347.667,236.167 347,241.5C 344.942,247.337 343.109,253.17 341.5,259C 342.178,262.195 343.012,265.362 344,268.5C 346.317,306.503 347.65,344.503 348,382.5C 313.611,402.818 276.445,411.651 236.5,409C 210.347,404.67 185.347,396.837 161.5,385.5C 161.507,382.962 161.841,380.462 162.5,378C 162.041,376.058 161.041,374.558 159.5,373.5C 159.672,372.508 159.338,371.842 158.5,371.5C 157.833,371.5 157.167,371.5 156.5,371.5C 156.509,369.692 156.009,368.025 155,366.5C 154.51,367.793 154.343,369.127 154.5,370.5C 154.167,370.5 153.833,370.5 153.5,370.5C 153.5,369.833 153.5,369.167 153.5,368.5C 153.813,365.753 153.48,363.086 152.5,360.5C 151.893,360.624 151.56,360.957 151.5,361.5C 151.5,362.167 151.5,362.833 151.5,363.5C 150.662,363.158 150.328,362.492 150.5,361.5C 151.1,350.496 151.767,339.496 152.5,328.5C 153.889,323.731 154.556,318.731 154.5,313.5C 154.5,312.5 154.5,311.5 154.5,310.5C 155.329,302.343 155.829,294.01 156,285.5C 157.085,284.264 157.918,282.931 158.5,281.5C 158.833,280.167 159.167,278.833 159.5,277.5C 160.167,276.833 160.833,276.167 161.5,275.5C 164.111,269.268 163.944,262.935 161,256.5C 160.667,257.5 160.333,258.5 160,259.5C 158.982,256.412 157.815,253.412 156.5,250.5C 155.545,244.591 155.211,238.591 155.5,232.5C 155.5,231.833 155.5,231.167 155.5,230.5C 156.319,227.695 156.819,224.695 157,221.5C 157.698,222.691 158.531,223.691 159.5,224.5C 159.735,225.097 160.235,225.43 161,225.5C 167.188,222.803 172.688,219.136 177.5,214.5C 179.538,213.144 179.872,211.477 178.5,209.5C 180.969,206.856 183.302,204.023 185.5,201C 184.906,200.536 184.239,200.369 183.5,200.5C 182.884,199.798 182.884,198.798 183.5,197.5C 185.388,193.394 187.554,189.394 190,185.5C 191.332,181.171 192.498,176.838 193.5,172.5C 195.217,169.155 195.884,165.489 195.5,161.5C 195.944,153.175 196.278,144.842 196.5,136.5C 195.5,120.501 194.5,104.501 193.5,88.5C 195.5,88.1667 197.5,87.8333 199.5,87.5 Z"/></g>
<g><path style="opacity:1" fill="#757575" d="M 304.5,86.5 C 302.856,91.5896 301.856,96.923 301.5,102.5C 301.5,96.8333 301.5,91.1667 301.5,85.5C 302.791,85.2627 303.791,85.596 304.5,86.5 Z"/></g>
<g><path style="opacity:1" fill="#919191" d="M 199.5,87.5 C 200.209,86.596 201.209,86.2627 202.5,86.5C 202.5,89.1667 202.5,91.8333 202.5,94.5C 202.083,91.8411 201.083,89.5078 199.5,87.5 Z"/></g>
<g><path style="opacity:1" fill="#bcbcbc" d="M 312.5,88.5 C 311.408,92.8156 310.408,97.1489 309.5,101.5C 309.348,96.7126 310.015,92.0459 311.5,87.5C 312.107,87.6236 312.44,87.9569 312.5,88.5 Z"/></g>
<g><path style="opacity:1" fill="#b1b1b1" d="M 212.5,84.5 C 214.201,90.9188 214.867,97.5854 214.5,104.5C 213.402,98.0207 212.735,91.3541 212.5,84.5 Z"/></g>
<g><path style="opacity:1" fill="#9b9b9b" d="M 207.5,85.5 C 208.209,84.596 209.209,84.2627 210.5,84.5C 210.501,92.5173 210.834,100.517 211.5,108.5C 210.407,100.653 209.073,92.9868 207.5,85.5 Z"/></g>
<g><path style="opacity:1" fill="#5b5b5b" d="M 202.5,94.5 C 203.806,99.6161 204.473,104.949 204.5,110.5C 203.043,105.402 202.376,100.069 202.5,94.5 Z"/></g>
<g><path style="opacity:1" fill="#dedede" d="M 261.5,164.5 C 257.462,164.042 253.462,163.376 249.5,162.5C 247.216,162.025 245.216,161.025 243.5,159.5C 244.121,149.037 244.788,138.704 245.5,128.5C 252.81,129.473 260.143,129.306 267.5,128C 268.252,127.329 268.586,126.496 268.5,125.5C 269.477,122.713 269.81,119.713 269.5,116.5C 271.898,116.741 273.898,116.074 275.5,114.5C 283.085,113.415 290.085,110.749 296.5,106.5C 295.331,122.475 290.164,137.142 281,150.5C 275.439,156.574 268.939,161.24 261.5,164.5 Z"/></g>
<g><path style="opacity:1" fill="#a2a2a2" d="M 229.5,110.5 C 241.764,112.136 254.097,112.803 266.5,112.5C 258.344,113.657 250.01,113.823 241.5,113C 237.264,112.665 233.264,111.832 229.5,110.5 Z"/></g>
<g><path style="opacity:1" fill="#838383" d="M 290.5,112.5 C 291.748,113.334 292.415,114.667 292.5,116.5C 292.564,118.389 292.064,120.056 291,121.5C 290.502,118.518 290.335,115.518 290.5,112.5 Z"/></g>
<g><path style="opacity:1" fill="#d4d4d4" d="M 243.5,118.5 C 242.171,123.96 241.504,129.793 241.5,136C 241.501,142.01 241.834,147.843 242.5,153.5C 242.5,153.833 242.5,154.167 242.5,154.5C 242.737,155.791 242.404,156.791 241.5,157.5C 239.596,157.262 238.262,156.262 237.5,154.5C 237,142.086 236.167,129.753 235,117.5C 234.453,128.677 233.62,139.677 232.5,150.5C 231.833,150.5 231.5,150.167 231.5,149.5C 232.737,138.844 232.737,128.177 231.5,117.5C 230.501,127.478 230.168,137.478 230.5,147.5C 228.025,145.23 226.025,142.563 224.5,139.5C 224.666,131.493 224.5,123.493 224,115.5C 223.529,117.246 222.862,118.913 222,120.5C 221.814,118.1 221.314,115.766 220.5,113.5C 219.833,118.985 219.167,124.319 218.5,129.5C 216.051,123.036 215.217,116.369 216,109.5C 223.864,113.454 232.197,115.787 241,116.5C 242.376,116.684 243.209,117.351 243.5,118.5 Z"/></g>
<g><path style="opacity:1" fill="#e1e1e1" d="M 246.5,116.5 C 253.167,116.5 259.833,116.5 266.5,116.5C 268.515,125.124 265.182,128.457 256.5,126.5C 247.818,128.457 244.485,125.124 246.5,116.5 Z"/></g>
<g><path style="opacity:1" fill="#595959" d="M 226.5,116.5 C 227.823,119.938 228.49,123.771 228.5,128C 228.607,132.612 228.107,137.112 227,141.5C 226.5,133.173 226.334,124.84 226.5,116.5 Z"/></g>
<g><path style="opacity:1" fill="#7d7d7d" d="M 282.5,115.5 C 283.824,119.107 284.491,123.107 284.5,127.5C 284.639,132.009 284.139,136.342 283,140.5C 282.5,132.173 282.334,123.84 282.5,115.5 Z"/></g>
<g><path style="opacity:1" fill="#616161" d="M 304.5,112.5 C 304.59,115.152 303.924,117.485 302.5,119.5C 302.41,116.848 303.076,114.515 304.5,112.5 Z"/></g>
<g><path style="opacity:1" fill="#727272" d="M 262.5,118.5 C 263.693,118.97 264.36,119.97 264.5,121.5C 264.167,122.5 263.833,123.5 263.5,124.5C 261.929,123.691 260.262,123.357 258.5,123.5C 258.281,122.325 258.614,121.325 259.5,120.5C 260.739,120.058 261.739,119.391 262.5,118.5 Z"/></g>
<g><path style="opacity:1" fill="#909090" d="M 275.5,114.5 C 273.898,116.074 271.898,116.741 269.5,116.5C 269.81,119.713 269.477,122.713 268.5,125.5C 268.5,122.167 268.5,118.833 268.5,115.5C 270.806,115.007 273.139,114.674 275.5,114.5 Z"/></g>
<g><path style="opacity:1" fill="#676767" d="M 286.5,114.5 C 287.812,116.743 288.478,119.41 288.5,122.5C 288.622,125.691 288.122,128.691 287,131.5C 286.501,125.843 286.334,120.176 286.5,114.5 Z"/></g>
<g><path style="opacity:1" fill="#8d8d8d" d="M 224.5,139.5 C 222.515,136.202 220.515,132.869 218.5,129.5C 219.167,124.319 219.833,118.985 220.5,113.5C 221.314,115.766 221.814,118.1 222,120.5C 222.862,118.913 223.529,117.246 224,115.5C 224.5,123.493 224.666,131.493 224.5,139.5 Z"/></g>
<g><path style="opacity:1" fill="#959595" d="M 199.5,135.5 C 198.833,137.833 198.167,140.167 197.5,142.5C 197.108,139.278 197.608,136.278 199,133.5C 199.464,134.094 199.631,134.761 199.5,135.5 Z"/></g>
<g><path style="opacity:1" fill="#787878" d="M 231.5,149.5 C 230.662,149.158 230.328,148.492 230.5,147.5C 230.168,137.478 230.501,127.478 231.5,117.5C 232.737,128.177 232.737,138.844 231.5,149.5 Z"/></g>
<g><path style="opacity:1" fill="#414141" d="M 243.5,119.5 C 243.279,122.279 243.612,124.946 244.5,127.5C 243.833,136.5 243.167,145.5 242.5,154.5C 242.5,154.167 242.5,153.833 242.5,153.5C 242.172,141.988 242.505,130.654 243.5,119.5 Z"/></g>
<g><path style="opacity:1" fill="#818181" d="M 251.5,131.5 C 252.827,135.783 253.493,140.449 253.5,145.5C 253.167,150.167 252.833,154.833 252.5,159.5C 251.502,150.19 251.168,140.857 251.5,131.5 Z"/></g>
<g><path style="opacity:1" fill="#6b6b6b" d="M 269.5,127.5 C 270.117,127.611 270.617,127.944 271,128.5C 271.667,137.833 271.667,147.167 271,156.5C 269.552,146.939 269.052,137.273 269.5,127.5 Z"/></g>
<g><path style="opacity:1" fill="#5e5e5e" d="M 273.5,117.5 C 274.314,119.631 274.814,121.964 275,124.5C 275.667,133.167 275.667,141.833 275,150.5C 273.546,139.603 273.046,128.603 273.5,117.5 Z"/></g>
<g><path style="opacity:1" fill="#3e3e3e" d="M 199.5,135.5 C 199.5,136.167 199.5,136.833 199.5,137.5C 199.5,141.833 199.5,146.167 199.5,150.5C 198.91,151.766 198.41,153.099 198,154.5C 197.501,150.514 197.334,146.514 197.5,142.5C 198.167,140.167 198.833,137.833 199.5,135.5 Z"/></g>
<g><path style="opacity:1" fill="#a0a0a0" d="M 199.5,137.5 C 200.5,137.5 201.5,137.5 202.5,137.5C 202.665,141.182 202.499,144.848 202,148.5C 201.583,149.756 200.75,150.423 199.5,150.5C 199.5,146.167 199.5,141.833 199.5,137.5 Z"/></g>
<g><path style="opacity:1" fill="#afafaf" d="M 243.5,118.5 C 243.5,118.833 243.5,119.167 243.5,119.5C 242.505,130.654 242.172,141.988 242.5,153.5C 241.834,147.843 241.501,142.01 241.5,136C 241.504,129.793 242.171,123.96 243.5,118.5 Z"/></g>
<g><path style="opacity:1" fill="#747474" d="M 260.5,130.5 C 261.828,135.456 262.495,140.789 262.5,146.5C 262.167,151.833 261.833,157.167 261.5,162.5C 260.501,151.854 260.168,141.187 260.5,130.5 Z"/></g>
<g><path style="opacity:1" fill="#808080" d="M 203.5,139.5 C 204.765,140.514 205.431,142.014 205.5,144C 205.167,145.5 204.833,147 204.5,148.5C 203.516,145.572 203.183,142.572 203.5,139.5 Z"/></g>
<g><path style="opacity:1" fill="#bbbbbb" d="M 244.5,127.5 C 245.167,127.5 245.5,127.833 245.5,128.5C 244.788,138.704 244.121,149.037 243.5,159.5C 242.5,159.167 241.833,158.5 241.5,157.5C 242.404,156.791 242.737,155.791 242.5,154.5C 243.167,145.5 243.833,136.5 244.5,127.5 Z"/></g>
<g><path style="opacity:1" fill="#5d5d5d" d="M 246.5,130.5 C 247.826,134.614 248.493,139.114 248.5,144C 248.643,149.005 248.143,153.839 247,158.5C 246.5,149.173 246.334,139.839 246.5,130.5 Z"/></g>
<g><path style="opacity:1" fill="#949494" d="M 237.5,154.5 C 235.251,153.92 233.585,152.587 232.5,150.5C 233.62,139.677 234.453,128.677 235,117.5C 236.167,129.753 237,142.086 237.5,154.5 Z"/></g>
<g><path style="opacity:1" fill="#bcbcbc" d="M 312.5,155.5 C 312.56,154.957 312.893,154.624 313.5,154.5C 314.495,159.792 314.828,165.125 314.5,170.5C 313.833,165.5 313.167,160.5 312.5,155.5 Z"/></g>
<g><path style="opacity:1" fill="#9c9c9c" d="M 249.5,162.5 C 253.462,163.376 257.462,164.042 261.5,164.5C 257.268,165.769 253.268,165.103 249.5,162.5 Z"/></g>
<g><path style="opacity:1" fill="#a3a3a3" d="M 195.5,161.5 C 195.884,165.489 195.217,169.155 193.5,172.5C 193.808,168.64 194.475,164.974 195.5,161.5 Z"/></g>
<g><path style="opacity:1" fill="#c4c4c4" d="M 312.5,155.5 C 312.269,163.209 312.602,170.876 313.5,178.5C 312.596,179.209 312.263,180.209 312.5,181.5C 311.383,177.705 310.717,173.705 310.5,169.5C 311.167,164.833 311.833,160.167 312.5,155.5 Z"/></g>
<g><path style="opacity:1" fill="#4a4a4a" d="M 312.5,155.5 C 313.167,160.5 313.833,165.5 314.5,170.5C 314.529,174.64 315.196,178.64 316.5,182.5C 316.595,184.786 317.262,186.786 318.5,188.5C 319.218,190.137 319.384,191.803 319,193.5C 316.281,188.844 314.447,183.844 313.5,178.5C 312.602,170.876 312.269,163.209 312.5,155.5 Z"/></g>
<g><path style="opacity:1" fill="#5c5c5c" d="M 320.5,166.5 C 321.657,169.273 322.324,172.273 322.5,175.5C 321.883,175.389 321.383,175.056 321,174.5C 320.503,171.854 320.336,169.187 320.5,166.5 Z"/></g>
<g><path style="opacity:1" fill="#7e7e7e" d="M 248.5,173.5 C 253.384,174.902 258.384,175.569 263.5,175.5C 258.261,177.028 253.261,176.361 248.5,173.5 Z"/></g>
<g><path style="opacity:1" fill="#676767" d="M 302.5,172.5 C 304.281,175.183 304.781,178.183 304,181.5C 302.711,178.649 302.211,175.649 302.5,172.5 Z"/></g>
<g><path style="opacity:1" fill="#595959" d="M 310.5,169.5 C 310.717,173.705 311.383,177.705 312.5,181.5C 313.435,184.113 313.602,186.779 313,189.5C 311.856,187.291 311.023,184.957 310.5,182.5C 310.116,177.99 309.449,173.657 308.5,169.5C 309.167,156.167 309.833,156.167 310.5,169.5 Z"/></g>
<g><path style="opacity:1" fill="#313131" d="M 307.5,176.5 C 308.573,178.653 308.573,180.653 307.5,182.5C 305.849,177.959 305.349,173.293 306,168.5C 307.252,171.014 307.752,173.68 307.5,176.5 Z"/></g>
<g><path style="opacity:1" fill="#b9b9b9" d="M 308.5,169.5 C 309.449,173.657 310.116,177.99 310.5,182.5C 309.528,185.098 308.528,185.098 307.5,182.5C 308.573,180.653 308.573,178.653 307.5,176.5C 308.468,174.393 308.802,172.059 308.5,169.5 Z"/></g>
<g><path style="opacity:1" fill="#c9c9c9" d="M 317.5,174.5 C 318.831,180.477 320.497,186.477 322.5,192.5C 320.689,190.615 319.522,188.281 319,185.5C 318.517,186.448 318.351,187.448 318.5,188.5C 317.262,186.786 316.595,184.786 316.5,182.5C 317.473,180.052 317.806,177.385 317.5,174.5 Z"/></g>
<g><path style="opacity:1" fill="#454545" d="M 183.5,200.5 C 184.239,200.369 184.906,200.536 185.5,201C 183.302,204.023 180.969,206.856 178.5,209.5C 173.89,213.809 168.89,217.642 163.5,221C 161.956,222.187 160.289,222.52 158.5,222C 168.844,217.154 177.178,209.988 183.5,200.5 Z"/></g>
<g><path style="opacity:1" fill="#d9d9d9" d="M 183.5,197.5 C 182.884,198.798 182.884,199.798 183.5,200.5C 177.178,209.988 168.844,217.154 158.5,222C 160.289,222.52 161.956,222.187 163.5,221C 168.89,217.642 173.89,213.809 178.5,209.5C 179.872,211.477 179.538,213.144 177.5,214.5C 177.103,213.475 176.437,213.308 175.5,214C 170.994,218.754 165.66,222.254 159.5,224.5C 158.531,223.691 157.698,222.691 157,221.5C 156.819,224.695 156.319,227.695 155.5,230.5C 155.335,227.15 155.502,223.817 156,220.5C 161.415,216.875 166.915,213.375 172.5,210C 176.537,206.042 180.204,201.876 183.5,197.5 Z"/></g>
<g><path style="opacity:1" fill="#434343" d="M 177.5,214.5 C 172.688,219.136 167.188,222.803 161,225.5C 160.235,225.43 159.735,225.097 159.5,224.5C 165.66,222.254 170.994,218.754 175.5,214C 176.437,213.308 177.103,213.475 177.5,214.5 Z"/></g>
<g><path style="opacity:1" fill="#4a4a4a" d="M 171.5,221.5 C 172.239,221.369 172.906,221.536 173.5,222C 169.75,225.704 165.416,228.038 160.5,229C 164.345,226.637 168.011,224.137 171.5,221.5 Z"/></g>
<g><path style="opacity:1" fill="#484848" d="M 166.5,228.5 C 168.379,228.393 168.712,228.893 167.5,230C 161.359,233.264 161.026,232.764 166.5,228.5 Z"/></g>
<g><path style="opacity:1" fill="#6d6d6d" d="M 334.5,234.5 C 335.262,237.152 334.762,239.818 333,242.5C 332.554,239.667 333.054,237.001 334.5,234.5 Z"/></g>
<g><path style="opacity:1" fill="#3b3b3b" d="M 337.5,233.5 C 338.6,237.398 337.766,241.065 335,244.5C 335.696,240.886 336.53,237.219 337.5,233.5 Z"/></g>
<g><path style="opacity:1" fill="#c3c3c3" d="M 341.5,229.5 C 342.167,231.167 342.833,232.833 343.5,234.5C 343.155,240.179 341.822,245.512 339.5,250.5C 339.158,249.662 338.492,249.328 337.5,249.5C 341.021,243.368 342.355,236.702 341.5,229.5 Z"/></g>
<g><path style="opacity:1" fill="#1c1c1c" d="M 273.5,259.5 C 265.009,272.669 255.342,285.003 244.5,296.5C 238.004,302.163 232.004,308.329 226.5,315C 223.167,317.667 219.833,320.333 216.5,323C 215.552,323.483 214.552,323.649 213.5,323.5C 229.741,306.749 245.575,289.416 261,271.5C 270.605,258.292 278.105,243.958 283.5,228.5C 284.5,227.167 285.5,227.167 286.5,228.5C 283.13,239.287 278.797,249.62 273.5,259.5 Z"/></g>
<g><path style="opacity:1" fill="#505050" d="M 339.5,250.5 C 341.822,245.512 343.155,240.179 343.5,234.5C 343.336,231.813 343.503,229.146 344,226.5C 345.077,228.116 345.577,229.949 345.5,232C 344.954,240.027 342.787,247.527 339,254.5C 338.421,253.072 338.588,251.738 339.5,250.5 Z"/></g>
<g><path style="opacity:1" fill="#4d4d4d" d="M 341.5,229.5 C 342.355,236.702 341.021,243.368 337.5,249.5C 337.031,250.745 336.697,250.579 336.5,249C 338.917,241.987 340.583,235.487 341.5,229.5 Z"/></g>
<g><path style="opacity:1" fill="#b8b8b8" d="M 155.5,232.5 C 155.211,238.591 155.545,244.591 156.5,250.5C 155.646,251.632 155.646,252.965 156.5,254.5C 155.662,254.842 155.328,255.508 155.5,256.5C 154.313,254.26 153.646,251.76 153.5,249C 153.994,243.331 154.66,237.831 155.5,232.5 Z"/></g>
<g><path style="opacity:1" fill="#575757" d="M 156.5,250.5 C 157.815,253.412 158.982,256.412 160,259.5C 160.333,258.5 160.667,257.5 161,256.5C 163.944,262.935 164.111,269.268 161.5,275.5C 162.376,272.201 162.543,268.868 162,265.5C 161.461,268.529 160.794,271.529 160,274.5C 159.536,273.906 159.369,273.239 159.5,272.5C 159.941,266.226 158.941,260.226 156.5,254.5C 155.646,252.965 155.646,251.632 156.5,250.5 Z"/></g>
<g><path style="opacity:1" fill="#e6e6e6" d="M 156.5,254.5 C 158.941,260.226 159.941,266.226 159.5,272.5C 158.596,273.209 158.263,274.209 158.5,275.5C 157.962,277.117 157.629,278.784 157.5,280.5C 156.833,280.5 156.5,280.167 156.5,279.5C 157.697,271.791 157.364,264.124 155.5,256.5C 155.328,255.508 155.662,254.842 156.5,254.5 Z"/></g>
<g><path style="opacity:1" fill="#414141" d="M 164.5,260.5 C 167.507,264.204 168.007,268.204 166,272.5C 165.499,268.49 164.999,264.49 164.5,260.5 Z"/></g>
<g><path style="opacity:1" fill="#909090" d="M 150.5,251.5 C 153.407,260.022 154.074,268.688 152.5,277.5C 152.486,268.772 151.82,260.105 150.5,251.5 Z"/></g>
<g><path style="opacity:1" fill="#616161" d="M 168.5,263.5 C 170.95,266.6 171.117,269.934 169,273.5C 168.502,270.183 168.335,266.85 168.5,263.5 Z"/></g>
<g><path style="opacity:1" fill="#989898" d="M 161.5,275.5 C 160.833,276.167 160.167,276.833 159.5,277.5C 159.672,276.508 159.338,275.842 158.5,275.5C 158.263,274.209 158.596,273.209 159.5,272.5C 159.369,273.239 159.536,273.906 160,274.5C 160.794,271.529 161.461,268.529 162,265.5C 162.543,268.868 162.376,272.201 161.5,275.5 Z"/></g>
<g><path style="opacity:1" fill="#d7d7d7" d="M 273.5,259.5 C 273.328,260.492 273.662,261.158 274.5,261.5C 267.333,275.31 257.666,287.143 245.5,297C 245.728,297.399 246.062,297.565 246.5,297.5C 245.377,298.757 244.711,298.424 244.5,296.5C 255.342,285.003 265.009,272.669 273.5,259.5 Z"/></g>
<g><path style="opacity:1" fill="#444444" d="M 246.5,297.5 C 246.062,297.565 245.728,297.399 245.5,297C 257.666,287.143 267.333,275.31 274.5,261.5C 274.976,259.934 275.643,259.6 276.5,260.5C 269.417,275.245 259.417,287.578 246.5,297.5 Z"/></g>
<g><path style="opacity:1" fill="#303030" d="M 158.5,275.5 C 159.338,275.842 159.672,276.508 159.5,277.5C 159.167,278.833 158.833,280.167 158.5,281.5C 157.833,281.5 157.5,281.167 157.5,280.5C 157.629,278.784 157.962,277.117 158.5,275.5 Z"/></g>
<g><path style="opacity:1" fill="#474747" d="M 272.5,271.5 C 273.376,271.369 274.043,271.702 274.5,272.5C 269.812,281.685 263.479,289.519 255.5,296C 254.5,296.667 253.5,296.667 252.5,296C 261.614,289.73 268.28,281.564 272.5,271.5 Z"/></g>
<g><path style="opacity:1" fill="#4e4e4e" d="M 272.5,279.5 C 273.573,280.251 273.74,281.251 273,282.5C 269.749,287.755 265.749,292.422 261,296.5C 262.065,293.394 264.065,290.727 267,288.5C 269.347,285.806 271.18,282.806 272.5,279.5 Z"/></g>
<g><path style="opacity:1" fill="#b1b1b1" d="M 156.5,279.5 C 156.5,280.167 156.833,280.5 157.5,280.5C 157.5,281.167 157.833,281.5 158.5,281.5C 157.918,282.931 157.085,284.264 156,285.5C 155.829,294.01 155.329,302.343 154.5,310.5C 154.334,301.494 154.5,292.494 155,283.5C 155.21,281.942 155.71,280.609 156.5,279.5 Z"/></g>
<g><path style="opacity:1" fill="#9a9a9a" d="M 272.5,286.5 C 273.791,287.542 273.791,288.708 272.5,290C 274.552,292.516 273.886,294.682 270.5,296.5C 269.808,295.975 269.308,295.308 269,294.5C 268.282,295.451 267.449,295.617 266.5,295C 268.72,292.287 270.72,289.454 272.5,286.5 Z"/></g>
<g><path style="opacity:1" fill="#8f8f8f" d="M 154.5,313.5 C 154.556,318.731 153.889,323.731 152.5,328.5C 152.444,323.269 153.111,318.269 154.5,313.5 Z"/></g>
<g><path style="opacity:1" fill="#a3a3a3" d="M 151.5,361.5 C 151.56,360.957 151.893,360.624 152.5,360.5C 153.48,363.086 153.813,365.753 153.5,368.5C 152.833,366.167 152.167,363.833 151.5,361.5 Z"/></g>
<g><path style="opacity:1" fill="#484848" d="M 151.5,361.5 C 152.167,363.833 152.833,366.167 153.5,368.5C 153.5,369.167 153.5,369.833 153.5,370.5C 153.892,373.722 153.392,376.722 152,379.5C 152.194,374.236 152.028,368.903 151.5,363.5C 151.5,362.833 151.5,362.167 151.5,361.5 Z"/></g>
<g><path style="opacity:1" fill="#333333" d="M 344.5,379.5 C 343.225,375.079 343.558,370.745 345.5,366.5C 347.275,364.339 346.941,367.172 344.5,375C 344.741,376.984 345.408,378.817 346.5,380.5C 345.306,381.67 344.639,381.337 344.5,379.5 Z"/></g>
<g><path style="opacity:1" fill="#4b4b4b" d="M 342.5,367.5 C 341.599,370.861 341.599,374.527 342.5,378.5C 342.333,378.833 342.167,379.167 342,379.5C 339.637,377.478 339.137,375.145 340.5,372.5C 340.893,370.716 341.559,369.05 342.5,367.5 Z"/></g>
<g><path style="opacity:1" fill="#4a4a4a" d="M 156.5,371.5 C 157.808,374.3 157.474,376.967 155.5,379.5C 155.638,376.478 155.305,373.478 154.5,370.5C 154.343,369.127 154.51,367.793 155,366.5C 156.009,368.025 156.509,369.692 156.5,371.5 Z"/></g>
<g><path style="opacity:1" fill="#383838" d="M 158.5,371.5 C 159.338,371.842 159.672,372.508 159.5,373.5C 159.5,374.833 159.5,376.167 159.5,377.5C 159.509,379.308 159.009,380.975 158,382.5C 157.833,381.833 157.667,381.167 157.5,380.5C 158.302,377.551 158.636,374.551 158.5,371.5 Z"/></g>
<g><path style="opacity:1" fill="#222222" d="M 337.5,374.5 C 338.306,375.997 338.972,377.664 339.5,379.5C 339.376,380.107 339.043,380.44 338.5,380.5C 337.659,378.621 337.325,376.621 337.5,374.5 Z"/></g>
<g><path style="opacity:1" fill="#acacac" d="M 342.5,367.5 C 343.209,366.596 344.209,366.263 345.5,366.5C 343.558,370.745 343.225,375.079 344.5,379.5C 343.849,380.091 343.182,380.757 342.5,381.5C 341.095,381.24 339.762,380.907 338.5,380.5C 339.043,380.44 339.376,380.107 339.5,379.5C 338.972,377.664 338.306,375.997 337.5,374.5C 337.821,372.952 338.821,372.285 340.5,372.5C 339.137,375.145 339.637,377.478 342,379.5C 342.167,379.167 342.333,378.833 342.5,378.5C 341.599,374.527 341.599,370.861 342.5,367.5 Z"/></g>
<g><path style="opacity:1" fill="#d1d1d1" d="M 150.5,361.5 C 150.328,362.492 150.662,363.158 151.5,363.5C 152.028,368.903 152.194,374.236 152,379.5C 153.392,376.722 153.892,373.722 153.5,370.5C 153.833,370.5 154.167,370.5 154.5,370.5C 155.305,373.478 155.638,376.478 155.5,379.5C 157.474,376.967 157.808,374.3 156.5,371.5C 157.167,371.5 157.833,371.5 158.5,371.5C 158.636,374.551 158.302,377.551 157.5,380.5C 157.667,381.167 157.833,381.833 158,382.5C 159.009,380.975 159.509,379.308 159.5,377.5C 160.598,378.601 160.765,379.934 160,381.5C 159.583,382.756 158.75,383.423 157.5,383.5C 154.279,382.291 151.279,380.624 148.5,378.5C 149.126,372.702 149.793,367.036 150.5,361.5 Z"/></g>
<g><path style="opacity:1" fill="#7c7c7c" d="M 159.5,373.5 C 161.041,374.558 162.041,376.058 162.5,378C 161.841,380.462 161.507,382.962 161.5,385.5C 160.005,385.011 158.671,384.345 157.5,383.5C 158.75,383.423 159.583,382.756 160,381.5C 160.765,379.934 160.598,378.601 159.5,377.5C 159.5,376.167 159.5,374.833 159.5,373.5 Z"/></g>
<g><path style="opacity:1" fill="#e1e1e1" d="M 146.5,382.5 C 174.779,397.459 204.779,407.626 236.5,413C 276.089,414.685 313.089,405.852 347.5,386.5C 348.833,387.833 348.833,389.167 347.5,390.5C 308.847,414.332 267.18,422.166 222.5,414C 196.559,407.854 171.559,399.187 147.5,388C 146.594,386.301 146.261,384.467 146.5,382.5 Z"/></g>
<g><path style="opacity:1" fill="#686868" d="M 241.5,397.5 C 244.405,396.299 247.405,396.466 250.5,398C 247.445,398.634 244.445,398.468 241.5,397.5 Z"/></g>
<g><path style="opacity:1" fill="#565656" d="M 261.5,402.5 C 261.611,403.117 261.944,403.617 262.5,404C 260.735,404.64 259.068,404.473 257.5,403.5C 251.523,402.859 245.523,402.359 239.5,402C 237.392,401.64 235.392,400.973 233.5,400C 242.886,400.028 252.22,400.861 261.5,402.5 Z"/></g>
<g><path style="opacity:1" fill="#4f4f4f" d="M 242.5,404.5 C 252.167,405.833 261.833,405.833 271.5,404.5C 277.134,403.42 282.801,402.92 288.5,403C 268.423,408.562 248.423,408.562 228.5,403C 233.164,403.164 237.831,403.664 242.5,404.5 Z"/></g>
<g><path style="opacity:1" fill="#b8b8b8" d="M 261.5,402.5 C 264.584,404.101 267.917,404.768 271.5,404.5C 261.833,405.833 252.167,405.833 242.5,404.5C 247.695,404.821 252.695,404.487 257.5,403.5C 259.068,404.473 260.735,404.64 262.5,404C 261.944,403.617 261.611,403.117 261.5,402.5 Z"/></g>
</svg>
