<?xml version="1.0" encoding="UTF-8"?>
<!DOCTYPE svg PUBLIC "-//W3C//DTD SVG 1.1//EN" "http://www.w3.org/Graphics/SVG/1.1/DTD/svg11.dtd">
<svg xmlns="http://www.w3.org/2000/svg" version="1.1" width="500px" height="500px" style="shape-rendering:geometricPrecision; text-rendering:geometricPrecision; image-rendering:optimizeQuality; fill-rule:evenodd; clip-rule:evenodd" xmlns:xlink="http://www.w3.org/1999/xlink">
<g><path style="opacity:1" fill="#fefefe" d="M -0.5,-0.5 C 166.167,-0.5 332.833,-0.5 499.5,-0.5C 499.5,166.167 499.5,332.833 499.5,499.5C 332.833,499.5 166.167,499.5 -0.5,499.5C -0.5,332.833 -0.5,166.167 -0.5,-0.5 Z"/></g>
<g><path style="opacity:1" fill="#e0a39d" d="M 325.5,167.5 C 320.805,173.699 314.472,177.199 306.5,178C 269.718,185.425 232.718,186.425 195.5,181C 188.864,179.206 182.197,177.539 175.5,176C 172.54,174.043 169.874,171.876 167.5,169.5C 164.11,157.395 168.61,150.395 181,148.5C 222.351,158.983 263.851,159.15 305.5,149C 320.541,146.548 327.207,152.715 325.5,167.5 Z"/></g>
<g><path style="opacity:1" fill="#f6cbc4" d="M 325.5,167.5 C 339.007,181.848 350.84,197.515 361,214.5C 373.801,235.766 385.301,257.766 395.5,280.5C 387.026,288.135 378.359,295.635 369.5,303C 365.012,304.811 360.346,305.811 355.5,306C 346.167,306.333 336.833,306.667 327.5,307C 320.592,311.238 314.259,316.238 308.5,322C 303.4,323.049 298.233,323.549 293,323.5C 286.154,323.072 279.321,322.905 272.5,323C 265.449,326.195 258.449,329.362 251.5,332.5C 245.195,330.899 238.861,329.399 232.5,328C 208.078,330.941 187.078,323.941 169.5,307C 167.754,306.529 166.087,305.862 164.5,305C 153.5,304.667 142.5,304.333 131.5,304C 120.921,295.423 111.755,285.59 104,274.5C 109.429,287.135 117.263,298.301 127.5,308C 128.833,308.667 130.167,309.333 131.5,310C 141.833,310.333 152.167,310.667 162.5,311C 163.833,311.333 165.167,311.667 166.5,312C 177.845,321.166 190.845,326.833 205.5,329C 213.5,329.333 221.5,329.667 229.5,330C 237.217,332.073 244.883,334.24 252.5,336.5C 259.019,334.578 265.352,332.078 271.5,329C 283.134,329.911 294.8,330.244 306.5,330C 308.949,329.275 311.283,328.275 313.5,327C 318.876,321.956 324.542,317.289 330.5,313C 343.343,313.175 356.01,311.842 368.5,309C 369.833,308.333 371.167,307.667 372.5,307C 379.969,298.53 387.802,290.363 396,282.5C 396.383,283.056 396.883,283.389 397.5,283.5C 398.793,287.419 400.626,291.086 403,294.5C 403.635,296.635 403.301,298.635 402,300.5C 398.584,302.792 395.084,304.959 391.5,307C 386.124,312.044 380.458,316.711 374.5,321C 360.669,323.918 346.669,325.251 332.5,325C 327.856,329.314 323.522,333.98 319.5,339C 314.642,341.439 309.475,342.605 304,342.5C 294.511,341.531 285.011,341.364 275.5,342C 268.773,344.197 262.439,347.197 256.5,351C 252.833,351.667 249.167,351.667 245.5,351C 239.035,348.383 232.368,346.383 225.5,345C 218.991,344.5 212.491,344.667 206,345.5C 196.164,345.416 186.997,342.916 178.5,338C 172.844,333.504 166.844,329.504 160.5,326C 146.486,325.019 132.486,324.019 118.5,323C 109.227,315.291 101.727,306.124 96,295.5C 95.3333,293.5 95.3333,291.5 96,289.5C 114.016,245.763 137.849,205.763 167.5,169.5C 169.874,171.876 172.54,174.043 175.5,176C 182.197,177.539 188.864,179.206 195.5,181C 232.718,186.425 269.718,185.425 306.5,178C 314.472,177.199 320.805,173.699 325.5,167.5 Z"/></g>
<g><path style="opacity:1" fill="#fefcfb" d="M 395.5,280.5 C 396.906,280.973 397.573,281.973 397.5,283.5C 396.883,283.389 396.383,283.056 396,282.5C 387.802,290.363 379.969,298.53 372.5,307C 371.167,307.667 369.833,308.333 368.5,309C 356.01,311.842 343.343,313.175 330.5,313C 324.542,317.289 318.876,321.956 313.5,327C 311.283,328.275 308.949,329.275 306.5,330C 294.8,330.244 283.134,329.911 271.5,329C 265.352,332.078 259.019,334.578 252.5,336.5C 244.883,334.24 237.217,332.073 229.5,330C 221.5,329.667 213.5,329.333 205.5,329C 190.845,326.833 177.845,321.166 166.5,312C 165.167,311.667 163.833,311.333 162.5,311C 152.167,310.667 141.833,310.333 131.5,310C 130.167,309.333 128.833,308.667 127.5,308C 117.263,298.301 109.429,287.135 104,274.5C 111.755,285.59 120.921,295.423 131.5,304C 142.5,304.333 153.5,304.667 164.5,305C 166.087,305.862 167.754,306.529 169.5,307C 187.078,323.941 208.078,330.941 232.5,328C 238.861,329.399 245.195,330.899 251.5,332.5C 258.449,329.362 265.449,326.195 272.5,323C 279.321,322.905 286.154,323.072 293,323.5C 298.233,323.549 303.4,323.049 308.5,322C 314.259,316.238 320.592,311.238 327.5,307C 336.833,306.667 346.167,306.333 355.5,306C 360.346,305.811 365.012,304.811 369.5,303C 378.359,295.635 387.026,288.135 395.5,280.5 Z"/></g>
</svg>
