<?xml version="1.0" encoding="UTF-8"?>
<!DOCTYPE svg PUBLIC "-//W3C//DTD SVG 1.1//EN" "http://www.w3.org/Graphics/SVG/1.1/DTD/svg11.dtd">
<svg xmlns="http://www.w3.org/2000/svg" version="1.1" width="500px" height="500px" style="shape-rendering:geometricPrecision; text-rendering:geometricPrecision; image-rendering:optimizeQuality; fill-rule:evenodd; clip-rule:evenodd" xmlns:xlink="http://www.w3.org/1999/xlink">
<g><path style="opacity:1" fill="#fefefe" d="M -0.5,-0.5 C 166.167,-0.5 332.833,-0.5 499.5,-0.5C 499.5,166.167 499.5,332.833 499.5,499.5C 332.833,499.5 166.167,499.5 -0.5,499.5C -0.5,332.833 -0.5,166.167 -0.5,-0.5 Z"/></g>
<g><path style="opacity:1" fill="#eae6e6" d="M 270.5,289.5 C 268.5,290.833 266.5,292.167 264.5,293.5C 266.921,293.122 269.254,292.455 271.5,291.5C 275.567,299.29 280.4,306.624 286,313.5C 300.029,327.863 314.362,341.863 329,355.5C 340.333,368.167 351.667,380.833 363,393.5C 363.667,395.833 363.667,398.167 363,400.5C 358.882,406.984 353.049,411.15 345.5,413C 338.822,413.22 332.155,413.22 325.5,413C 322.813,416.683 319.813,420.017 316.5,423C 310.262,421.864 303.929,421.197 297.5,421C 293.868,423.63 290.535,426.63 287.5,430C 285.725,431.439 283.725,432.439 281.5,433C 272.261,431.557 262.927,430.89 253.5,431C 248.558,434.637 243.224,437.47 237.5,439.5C 230.982,437.244 224.648,434.411 218.5,431C 208.913,432.313 199.247,432.979 189.5,433C 182.004,427.751 174.337,422.751 166.5,418C 156.323,414.241 145.99,411.074 135.5,408.5C 159.411,371.093 183.911,334.093 209,297.5C 205.19,279.037 202.19,260.371 200,241.5C 198.693,221.514 198.359,201.514 199,181.5C 201.039,169.104 205.539,157.771 212.5,147.5C 209.102,137.688 206.269,127.688 204,117.5C 203.333,98.5 203.333,79.5 204,60.5C 206.381,59.565 208.881,59.2317 211.5,59.5C 212.448,67.8538 213.614,76.1871 215,84.5C 219.546,86.5224 224.046,88.6891 228.5,91C 232.043,94.5824 234.71,98.749 236.5,103.5C 240.558,93.4377 247.891,87.4377 258.5,85.5C 260.049,76.8695 261.383,68.2028 262.5,59.5C 265.119,59.2317 267.619,59.565 270,60.5C 270.667,79.1667 270.667,97.8333 270,116.5C 268.169,125.659 265.336,134.492 261.5,143C 270.752,156.42 276.252,171.253 278,187.5C 278.629,206.181 278.296,224.848 277,243.5C 274.725,258.819 272.558,274.152 270.5,289.5 Z"/></g>
<g><path style="opacity:1" fill="#f0eeee" d="M 215.5,97.5 C 222.954,98.5707 228.287,102.571 231.5,109.5C 230.559,109.489 229.892,109.989 229.5,111C 232.741,115.726 234.574,120.893 235,126.5C 232.505,122.506 230.838,118.506 230,114.5C 228.5,113 227,111.5 225.5,110C 223.025,110.257 223.025,111.257 225.5,113C 225.167,113.167 224.833,113.333 224.5,113.5C 223.38,112.167 222.047,111.667 220.5,112C 222.253,113.999 223.587,116.165 224.5,118.5C 218.602,118.374 217.102,115.707 220,110.5C 221.648,109.283 223.481,108.45 225.5,108C 223.043,106.438 220.376,105.438 217.5,105C 219.167,104.667 220.833,104.333 222.5,104C 220.5,103 218.5,102 216.5,101C 215.663,99.9887 215.33,98.8221 215.5,97.5 Z"/></g>
<g><path style="opacity:1" fill="#eeecec" d="M 251.5,97.5 C 253.288,97.2148 254.955,97.5481 256.5,98.5C 256.333,98.8333 256.167,99.1667 256,99.5C 252.747,101.543 249.58,103.71 246.5,106C 249.357,105.226 252.357,104.559 255.5,104C 254.304,103.346 254.304,102.846 255.5,102.5C 259.299,104.745 260.132,107.745 258,111.5C 256.467,111.056 254.967,110.723 253.5,110.5C 252.756,111.991 252.09,113.491 251.5,115C 252.167,115.333 252.833,115.667 253.5,116C 252.315,117.353 250.981,118.52 249.5,119.5C 251.657,119.781 253.323,121.281 254.5,124C 253.778,126.741 252.112,127.741 249.5,127C 252.032,126.388 252.865,124.888 252,122.5C 250.776,125.473 248.776,126.14 246,124.5C 246.275,120.517 245.275,120.517 243,124.5C 240.821,131.068 240.155,137.735 241,144.5C 239.882,141.861 239.382,139.027 239.5,136C 239.547,133.111 239.88,130.278 240.5,127.5C 239.559,127.511 238.892,127.011 238.5,126C 239.475,121.241 241.142,116.741 243.5,112.5C 242.833,111.833 242.167,111.167 241.5,110.5C 244.139,105.518 247.472,101.184 251.5,97.5 Z"/></g>
<g><path style="opacity:1" fill="#f2f1f1" d="M 236.5,141.5 C 237.886,146.083 240.386,150.083 244,153.5C 245.505,155.298 245.672,157.132 244.5,159C 246.905,160.615 246.905,161.281 244.5,161C 240.399,158.228 237.899,154.395 237,149.5C 236.333,151.5 235.667,153.5 235,155.5C 230.555,159.27 226.889,163.603 224,168.5C 223.692,167.692 223.192,167.025 222.5,166.5C 218.814,168.682 215.148,168.849 211.5,167C 218.186,167.737 223.686,165.57 228,160.5C 228.322,156.507 229.988,153.174 233,150.5C 234.273,147.511 235.439,144.511 236.5,141.5 Z"/></g>
<g><path style="opacity:1" fill="#f3f2f2" d="M 237.5,171.5 C 238.496,171.414 239.329,171.748 240,172.5C 240.333,176.5 240.667,180.5 241,184.5C 241.054,181.139 242.054,178.139 244,175.5C 244.692,176.025 245.192,176.692 245.5,177.5C 244.366,182.435 242.199,186.768 239,190.5C 238.103,184.194 237.603,177.861 237.5,171.5 Z"/></g>
<g><path style="opacity:1" fill="#f3f2f2" d="M 208.5,187.5 C 210.346,187.222 211.68,187.889 212.5,189.5C 207.212,194.743 204.045,201.076 203,208.5C 201.651,200.522 203.484,193.522 208.5,187.5 Z"/></g>
<g><path style="opacity:1" fill="#f3f2f2" d="M 263.5,188.5 C 268.804,188.974 271.637,191.974 272,197.5C 272.667,201.167 272.667,204.833 272,208.5C 271.228,202.16 268.561,196.827 264,192.5C 263.51,191.207 263.343,189.873 263.5,188.5 Z"/></g>
<g><path style="opacity:1" fill="#efeded" d="M 268.5,202.5 C 270.704,207.752 271.037,213.252 269.5,219C 269.539,220.894 270.206,221.894 271.5,222C 270.333,225.5 269.167,229 268,232.5C 267.667,231.833 267.333,231.167 267,230.5C 264.186,233.176 262.186,236.176 261,239.5C 263,238.167 264.667,236.5 266,234.5C 265.923,235.738 266.089,236.738 266.5,237.5C 267.736,236.754 269.07,236.421 270.5,236.5C 270.174,239.311 269.341,241.978 268,244.5C 268,242.5 268,240.5 268,238.5C 265.654,244.846 261.32,249.18 255,251.5C 252.659,250.993 252.159,249.826 253.5,248C 255.5,247 257.5,246 259.5,245C 256.16,244.265 253.826,244.598 252.5,246C 250.078,243.997 249.245,241.497 250,238.5C 250.654,237.304 251.154,237.304 251.5,238.5C 250.674,239.451 250.508,240.451 251,241.5C 251.941,239.939 253.108,238.605 254.5,237.5C 254.27,239.051 254.27,240.884 254.5,243C 257.328,243.969 259.662,243.303 261.5,241C 255.935,238.912 255.268,235.912 259.5,232C 258.004,231.493 256.837,231.993 256,233.5C 255.833,233.167 255.667,232.833 255.5,232.5C 257.003,230.578 259.003,229.412 261.5,229C 258.855,227.713 257.855,225.547 258.5,222.5C 261.86,221.79 263.693,223.124 264,226.5C 265,225.167 266,223.833 267,222.5C 268.377,215.924 268.877,209.257 268.5,202.5 Z"/></g>
<g><path style="opacity:1" fill="#f1f0f0" d="M 203.5,220.5 C 206.999,226.678 211.666,232.011 217.5,236.5C 218.933,238.809 218.266,240.309 215.5,241C 218.799,244.35 221.799,244.183 224.5,240.5C 224.062,239.494 223.396,239.494 222.5,240.5C 221.479,239.998 221.312,239.332 222,238.5C 223,237.167 224,237.167 225,238.5C 226.052,242.293 224.552,244.293 220.5,244.5C 218.845,243.772 217.179,243.605 215.5,244C 218.131,245.327 220.798,246.66 223.5,248C 224.357,248.689 225.023,249.522 225.5,250.5C 223.926,251.631 222.259,251.798 220.5,251C 214.05,247.901 209.884,243.068 208,236.5C 209.395,237.815 210.395,237.481 211,235.5C 212.586,236.376 214.086,237.376 215.5,238.5C 214.249,235.679 212.082,233.013 209,230.5C 208.667,231.167 208.333,231.833 208,232.5C 206.002,228.67 204.502,224.67 203.5,220.5 Z"/></g>
<g><path style="opacity:1" fill="#f3f2f2" d="M 236.5,250.5 C 238.017,250.511 239.184,251.177 240,252.5C 240.689,251.643 241.522,250.977 242.5,250.5C 243.377,253.825 243.544,257.158 243,260.5C 243.782,257.812 245.282,256.812 247.5,257.5C 245.486,265.84 240.486,268.34 232.5,265C 231.313,263.981 230.313,262.814 229.5,261.5C 230.167,261.167 230.833,260.833 231.5,260.5C 233.728,261.219 235.561,262.552 237,264.5C 237.167,264.167 237.333,263.833 237.5,263.5C 234.452,260.729 232.452,257.396 231.5,253.5C 233.143,253.48 234.476,254.147 235.5,255.5C 236.452,253.955 236.785,252.288 236.5,250.5 Z"/></g>
<g><path style="opacity:1" fill="#f2f2f2" d="M 223.5,273.5 C 224.88,273.962 225.547,274.962 225.5,276.5C 224.349,283.138 220.682,287.305 214.5,289C 213.549,288.282 213.383,287.449 214,286.5C 218.007,283.659 221.507,280.325 224.5,276.5C 224.333,276.167 224.167,275.833 224,275.5C 220.744,277.429 217.244,277.929 213.5,277C 215.833,276.667 218.167,276.333 220.5,276C 221.942,275.623 222.942,274.79 223.5,273.5 Z"/></g>
<g><path style="opacity:1" fill="#c1bebe" d="M 270.5,289.5 C 271.338,289.842 271.672,290.508 271.5,291.5C 269.254,292.455 266.921,293.122 264.5,293.5C 266.5,292.167 268.5,290.833 270.5,289.5 Z"/></g>
<g><path style="opacity:1" fill="#c4c0c0" d="M 227.5,296.5 C 226.833,296.5 226.5,296.833 226.5,297.5C 225.022,297.238 223.689,297.571 222.5,298.5C 218.367,307.797 217.7,307.463 220.5,297.5C 217.94,296.253 215.273,295.253 212.5,294.5C 212.833,294.167 213.167,293.833 213.5,293.5C 218.261,294.667 222.927,295.667 227.5,296.5 Z"/></g>
<g><path style="opacity:1" fill="#b3b0b0" d="M 264.5,293.5 C 260.183,295.579 255.516,296.746 250.5,297C 242.507,297.5 234.507,297.666 226.5,297.5C 226.5,296.833 226.833,296.5 227.5,296.5C 239.955,296.862 252.288,295.862 264.5,293.5 Z"/></g>
<g><path style="opacity:1" fill="#c5c2c2" d="M 265.5,308.5 C 263.33,307.162 261.664,305.328 260.5,303C 262.897,303.906 264.563,305.74 265.5,308.5 Z"/></g>
<g><path style="opacity:1" fill="#c5c2c2" d="M 276.5,307.5 C 274.9,306.748 273.4,305.748 272,304.5C 271.333,303.833 271.333,303.167 272,302.5C 274.391,303.39 275.891,305.057 276.5,307.5 Z"/></g>
<g><path style="opacity:1" fill="#c0bdbd" d="M 265.5,308.5 C 267.085,309.002 267.585,310.002 267,311.5C 265.961,310.756 265.461,309.756 265.5,308.5 Z"/></g>
<g><path style="opacity:1" fill="#c6c3c3" d="M 276.5,307.5 C 278.914,308.911 280.581,310.911 281.5,313.5C 279.086,312.089 277.419,310.089 276.5,307.5 Z"/></g>
<g><path style="opacity:1" fill="#bcb9b9" d="M 214.5,315.5 C 214.491,313.692 214.991,312.025 216,310.5C 216.599,312.535 216.099,314.201 214.5,315.5 Z"/></g>
<g><path style="opacity:1" fill="#bdb9b9" d="M 281.5,313.5 C 286.746,318.981 290.746,325.314 293.5,332.5C 289.253,326.344 285.253,320.01 281.5,313.5 Z"/></g>
<g><path style="opacity:1" fill="#cac6c6" d="M 203.5,317.5 C 204.262,320.152 203.762,322.818 202,325.5C 201.955,322.78 202.455,320.114 203.5,317.5 Z"/></g>
<g><path style="opacity:1" fill="#bebaba" d="M 214.5,315.5 C 211.576,324.44 208.743,333.44 206,342.5C 204.364,347.375 203.531,352.375 203.5,357.5C 202.844,356.378 202.511,355.045 202.5,353.5C 204.724,340.166 208.724,327.5 214.5,315.5 Z"/></g>
<g><path style="opacity:1" fill="#b2afaf" d="M 293.5,332.5 C 296.593,336.347 298.926,340.68 300.5,345.5C 297.407,341.653 295.074,337.32 293.5,332.5 Z"/></g>
<g><path style="opacity:1" fill="#b6b3b3" d="M 269.5,315.5 C 273.421,321.681 276.588,328.347 279,335.5C 283.333,349.833 287.667,364.167 292,378.5C 294.785,386.071 298.119,393.405 302,400.5C 302.667,401.5 302.667,402.5 302,403.5C 292.408,385.475 285.408,366.475 281,346.5C 277.703,335.917 273.87,325.584 269.5,315.5 Z"/></g>
<g><path style="opacity:1" fill="#bcb8b8" d="M 183.5,366.5 C 185.481,358.865 188.315,351.532 192,344.5C 190.012,352.145 187.179,359.478 183.5,366.5 Z"/></g>
<g><path style="opacity:1" fill="#b6b3b3" d="M 245.5,305.5 C 246.966,306.347 247.8,307.68 248,309.5C 249.89,316.728 251.223,324.062 252,331.5C 253.88,360.253 256.214,388.92 259,417.5C 256.353,406.997 254.687,396.33 254,385.5C 254.126,358.47 251.293,331.803 245.5,305.5 Z"/></g>
<g><path style="opacity:1" fill="#c0bdbd" d="M 225.5,309.5 C 226.598,310.601 226.765,311.934 226,313.5C 218.932,333.438 213.265,353.771 209,374.5C 209.547,366.421 210.881,358.421 213,350.5C 216.708,336.664 220.874,322.997 225.5,309.5 Z"/></g>
<g><path style="opacity:1" fill="#bebbbb" d="M 203.5,357.5 C 207.948,354.884 208.281,355.218 204.5,358.5C 203.893,358.376 203.56,358.043 203.5,357.5 Z"/></g>
<g><path style="opacity:1" fill="#c0bdbd" d="M 183.5,366.5 C 183.128,370.297 181.794,373.63 179.5,376.5C 179.872,372.703 181.206,369.37 183.5,366.5 Z"/></g>
<g><path style="opacity:1" fill="#b6b3b3" d="M 300.5,345.5 C 308.159,358.828 315.825,372.162 323.5,385.5C 313.801,373.448 306.135,360.115 300.5,345.5 Z"/></g>
<g><path style="opacity:1" fill="#c2bfbf" d="M 179.5,376.5 C 179.598,378.553 178.931,380.22 177.5,381.5C 177.402,379.447 178.069,377.78 179.5,376.5 Z"/></g>
<g><path style="opacity:1" fill="#bfbcbc" d="M 207.5,375.5 C 208.147,376.274 208.48,377.274 208.5,378.5C 206.891,388.488 205.391,398.488 204,408.5C 204.103,397.404 205.27,386.404 207.5,375.5 Z"/></g>
<g><path style="opacity:1" fill="#bdb9b9" d="M 177.5,381.5 C 177.245,384.016 176.411,386.35 175,388.5C 174.705,385.758 175.538,383.425 177.5,381.5 Z"/></g>
<g><path style="opacity:1" fill="#b8b5b5" d="M 323.5,385.5 C 325.587,386.585 326.92,388.251 327.5,390.5C 325.413,389.415 324.08,387.749 323.5,385.5 Z"/></g>
<g><path style="opacity:1" fill="#bbb7b7" d="M 327.5,390.5 C 330.719,392.528 332.886,395.195 334,398.5C 331.218,396.229 329.051,393.563 327.5,390.5 Z"/></g>
</svg>
